<?xml version="1.0" encoding="UTF-8" standalone="no"?>
<svg
   width="596"
   height="1133"
   viewBox="0 0 596 1133"
   fill="none"
   version="1.1"
   id="svg80"
   sodipodi:docname="backmodel.svg"
   inkscape:version="1.4 (e7c3feb1, 2024-10-09)"
   xmlns:inkscape="http://www.inkscape.org/namespaces/inkscape"
   xmlns:sodipodi="http://sodipodi.sourceforge.net/DTD/sodipodi-0.dtd"
   xmlns="http://www.w3.org/2000/svg"
   xmlns:svg="http://www.w3.org/2000/svg">
  <defs
     id="defs80" />
  <sodipodi:namedview
     id="namedview80"
     pagecolor="#ffffff"
     bordercolor="#000000"
     borderopacity="0.25"
     inkscape:showpageshadow="2"
     inkscape:pageopacity="0.0"
     inkscape:pagecheckerboard="0"
     inkscape:deskcolor="#d1d1d1"
     showgrid="false"
     inkscape:zoom="0.45748202"
     inkscape:cx="-486.35791"
     inkscape:cy="690.73753"
     inkscape:window-width="1712"
     inkscape:window-height="955"
     inkscape:window-x="0"
     inkscape:window-y="39"
     inkscape:window-maximized="1"
     inkscape:current-layer="svg80" />
  <path
     fill-rule="evenodd"
     clip-rule="evenodd"
     d="m 263.229,15.1992 c -7.794,7.7169 -12.099,16.6439 -13.641,21.4536 -1.223,3.8148 -1.611,10.4479 -1.585,17.2548 0.026,6.7838 0.462,13.6625 0.857,17.9214 0.023,0.2454 -0.137,0.4708 -0.376,0.531 -0.239,0.0602 -0.486,-0.0627 -0.582,-0.2896 -0.274,-0.645 -0.817,-1.593 -1.539,-2.3215 -0.728,-0.7348 -1.549,-1.1636 -2.412,-1.0068 -0.984,0.1789 -1.93,0.5772 -2.71,1.294 -0.779,0.7145 -1.422,1.7723 -1.762,3.3211 -0.205,0.9343 -0.299,2.0482 -0.242,3.3717 0.123,2.9091 0.557,6.4136 1.224,9.6388 0.67,3.2392 1.563,6.1409 2.582,7.8796 0.546,0.9301 1.094,2.0926 1.649,3.284 0.047,0.1002 0.094,0.2007 0.141,0.3014 0.513,1.1045 1.035,2.2273 1.579,3.2443 0.596,1.115 1.199,2.065 1.817,2.71 0.622,0.65 1.178,0.907 1.696,0.842 1.419,-0.177 2.184,-0.611 2.636,-1.05 0.422,-0.41 0.611,-0.858 0.791,-1.282 0.017,-0.04 0.034,-0.08 0.05,-0.119 0.029,-0.067 0.067,-0.145 0.116,-0.215 0.031,-0.044 0.15,-0.211 0.377,-0.25 0.304,-0.054 0.487,0.152 0.545,0.237 0.061,0.089 0.092,0.184 0.108,0.242 0.065,0.23 0.103,0.632 0.14,1.079 0.012,0.135 0.023,0.28 0.035,0.433 0.074,0.921 0.172,2.148 0.383,3.467 0.098,0.614 0.197,1.426 0.308,2.347 0.033,0.27 0.067,0.549 0.102,0.835 0.157,1.271 0.345,2.699 0.593,4.124 0.249,1.426 0.558,2.839 0.954,4.082 0.398,1.251 0.874,2.293 1.44,3.005 0.07,0.087 0.108,0.195 0.109,0.307 0.056,6.095 0.126,16.53 0.107,23.506 -0.009,3.454 -0.04,6.092 -0.109,6.915 -0.075,0.905 -0.601,1.824 -1.365,2.723 -0.773,0.91 -1.839,1.856 -3.094,2.819 -2.512,1.928 -5.849,3.973 -9.288,5.973 -6.911,4.022 -18.818,9.409 -32.963,14.291 -6.582,2.271 -11.23,2.98 -15.737,3.668 -0.362,0.055 -0.723,0.11 -1.084,0.166 -4.84,0.747 -9.704,1.614 -16.904,4.532 -0.803,0.325 -1.582,0.638 -2.338,0.943 l -0.525,0.211 c -6.289,2.532 -10.983,4.461 -15.358,7.573 -4.367,3.105 -8.441,7.408 -13.429,14.716 -10.656,15.612 -11.663,36.721 -11.663,47.718 0,8.813 -0.417,17.191 -0.626,20.284 -0.006,0.08 -0.03,0.158 -0.072,0.227 -1.83,2.993 -4.7,7.897 -7.361,12.875 -2.668,4.99 -5.104,10.012 -6.087,13.259 -0.501,1.653 -1.175,3.661 -1.949,5.894 -0.552,1.593 -1.154,3.301 -1.781,5.078 -2.915,8.27 -6.366,18.055 -7.759,24.858 -1.658,8.095 -3.413,11.18 -6.654,16.881 -0.951,1.671 -2.029,3.567 -3.2704,5.881 -0.4533,0.844 -0.9133,1.693 -1.3798,2.554 -5.1892,9.576 -11.1808,20.632 -17.704,44.093 -3.5567,12.791 -6.0534,25.337 -8.1783,36.367 -0.1849,0.96 -0.367,1.908 -0.5468,2.845 -1.8835,9.811 -3.5118,18.291 -5.4039,24.427 -2.0666,6.7 -5.6016,16.742 -8.7587,25.291 -1.579,4.276 -3.0648,8.182 -4.2269,11.114 -0.5809,1.466 -1.082,2.692 -1.4741,3.6 -0.1958,0.453 -0.3661,0.831 -0.5065,1.122 -0.1337,0.277 -0.2579,0.512 -0.3616,0.65 -0.1865,0.249 -0.46,0.482 -0.7654,0.696 -0.3109,0.219 -0.6817,0.437 -1.0865,0.651 -0.8095,0.428 -1.785,0.854 -2.7536,1.24 -1.9383,0.772 -3.89,1.401 -4.5258,1.592 -0.9685,0.291 -3.7727,1.436 -5.0753,1.982 l -0.0011,10e-4 c -4.4642,1.86 -8.8063,4.466 -10.5267,5.695 -0.7512,0.537 -1.4324,1.22 -2.1532,1.944 -0.0785,0.078 -0.1574,0.158 -0.237,0.237 -0.7952,0.795 -1.6467,1.618 -2.6431,2.216 -0.6685,0.401 -1.5746,0.882 -2.531,1.39 -0.4035,0.214 -0.816,0.433 -1.2233,0.652 -1.3956,0.753 -2.733,1.515 -3.5691,2.172 -1.7324,1.362 -3.9453,3.456 -5.03389,4.907 -0.41445,0.553 -0.60406,0.988 -0.75563,1.393 -0.02555,0.068 -0.05076,0.138 -0.0765,0.209 -0.12459,0.345 -0.26154,0.725 -0.50825,1.112 -0.14892,0.234 -0.33556,0.469 -0.58106,0.715 -0.54479,0.544 -1.30613,1.139 -2.08692,1.749 l -0.19305,0.15 c -0.86179,0.674 -1.74468,1.375 -2.47003,2.101 -0.39915,0.399 -0.74852,1.107 -0.89433,1.96 -0.144456,0.845 -0.079364,1.778 0.28725,2.609 0.38071,0.863 1.09699,1.642 2.30902,2.111 1.82716,0.707 4.04061,0.776 6.18197,0.381 2.14042,-0.395 4.15922,-1.244 5.58752,-2.315 1.4555,-1.091 2.333,-2.089 3.0549,-2.965 0.0887,-0.107 0.1759,-0.214 0.2623,-0.32 0.6065,-0.744 1.1742,-1.44 1.9482,-1.976 0.8538,-0.591 2.2343,-1.295 3.6136,-1.85 1.2285,-0.494 2.5313,-0.901 3.494,-0.976 l 2.0022,-3.629 c 0.1334,-0.242 0.4375,-0.33 0.6793,-0.197 0.2418,0.134 0.3297,0.438 0.1963,0.68 l -2.1284,3.857 c -1.2124,2.677 -3.9623,8.95 -5.3518,12.82 -1.5399,4.29 -3.9641,14.064 -5.2836,19.385 -0.1705,0.687 -0.3226,1.3 -0.4519,1.817 -1.1247,4.499 -3.1217,12.863 -4.1189,18.098 -1.0034,5.267 -2.244,12.225 -2.3668,14.681 -0.0155,0.31 -0.0532,0.711 -0.0957,1.163 -0.0158,0.168 -0.0322,0.342 -0.0483,0.521 -0.0607,0.674 -0.1207,1.439 -0.1409,2.238 -0.0408,1.612 0.083,3.299 0.6451,4.606 0.2898,0.673 0.6892,1.229 1.2283,1.626 0.5361,0.396 1.2412,0.657 2.1829,0.697 2.0019,0.083 3.4926,-0.863 4.6165,-2.198 1.8577,-2.206 2.6218,-5.367 2.8426,-6.28 0.0138,-0.057 0.0254,-0.105 0.0351,-0.144 0.0764,-0.306 0.2613,-1.332 0.4987,-2.664 l 0.065,-0.365 c 0.2207,-1.24 0.4752,-2.67 0.7167,-3.943 0.2765,-1.457 0.5446,-2.758 0.7303,-3.315 0.1456,-0.437 0.5009,-1.629 0.988,-3.264 0.7321,-2.458 1.7618,-5.914 2.8248,-9.306 0.6574,-2.097 1.3256,-4.163 1.939,-5.935 1.125,-3.25 1.9079,-5.474 2.4725,-6.995 0.5603,-1.51 0.9173,-2.361 1.1909,-2.84 0.1803,-0.315 0.456,-0.546 0.8167,-0.575 0.3324,-0.026 0.6089,0.132 0.7904,0.291 0.1866,0.163 0.3358,0.38 0.4197,0.601 0.0736,0.195 0.1469,0.536 -0.0516,0.834 -0.1002,0.15 -0.4924,0.867 -0.9427,1.892 -0.4462,1.016 -0.9339,2.298 -1.237,3.571 -0.2173,0.913 -0.8081,3.095 -1.5225,5.734 -0.3201,1.182 -0.665,2.456 -1.0122,3.749 -1.1267,4.193 -2.2778,8.581 -2.7114,10.749 -0.4332,2.166 -0.6188,3.743 -0.7901,5.301 l -0.0364,0.332 c -0.1588,1.45 -0.3201,2.924 -0.6718,4.859 -0.2072,1.139 -0.5044,2.48 -0.8224,3.914 -0.2562,1.156 -0.526,2.373 -0.7732,3.595 -0.5612,2.775 -1.0214,5.641 -1.0214,8.151 0,1.372 0.0818,2.602 0.2657,3.665 0.2485,1.436 0.6761,2.522 1.2972,3.243 0.6028,0.699 1.4204,1.092 2.5621,1.092 2.7332,0 4.2183,-1.557 4.8985,-2.535 0.1243,-0.179 0.2209,-0.338 0.2924,-0.463 0.4752,-0.831 1.9574,-4.285 2.5716,-6.988 0.3016,-1.327 0.7222,-3.602 1.1347,-5.832 l 0.033,-0.179 c 0.4201,-2.271 0.8299,-4.48 1.0848,-5.499 0.1085,-0.434 0.3877,-1.634 0.7731,-3.289 0.5008,-2.151 1.1806,-5.072 1.8974,-8.081 1.2626,-5.3 2.6442,-10.892 3.3417,-12.921 0.3426,-0.997 0.6699,-1.987 0.9785,-2.922 l 0.0638,-0.194 c 0.2845,-0.862 0.553,-1.677 0.8014,-2.4 0.2664,-0.775 0.5129,-1.456 0.7343,-1.985 0.1106,-0.265 0.2182,-0.5 0.3221,-0.693 0.0992,-0.185 0.2129,-0.366 0.3442,-0.497 0.5048,-0.505 1.2221,-0.475 1.7021,-0.235 0.247,0.124 0.481,0.324 0.6137,0.6 0.1406,0.292 0.1486,0.635 -0.0151,0.962 l -7e-4,10e-4 c -0.0011,0.003 -0.0034,0.008 -0.0069,0.016 -0.0051,0.012 -0.0115,0.027 -0.0194,0.048 -0.0158,0.04 -0.0355,0.093 -0.0592,0.159 -0.0472,0.132 -0.1071,0.309 -0.1786,0.526 -0.1429,0.436 -0.3288,1.026 -0.5461,1.735 -0.4344,1.418 -0.992,3.306 -1.5772,5.365 -1.1717,4.125 -2.448,8.92 -3.0688,12.024 -0.5653,2.827 -0.8992,5.112 -1.202,7.185 -0.0304,0.208 -0.0605,0.414 -0.0904,0.618 -0.3283,2.235 -0.644,4.258 -1.2136,6.474 -0.074,0.288 -0.1596,0.61 -0.253,0.963 -0.7613,2.873 -2.0421,7.705 -1.8216,11.508 0.0847,1.46 0.3893,2.71 0.9847,3.624 0.5804,0.891 1.4578,1.498 2.7905,1.659 1.88,0.227 3.453,-0.83 4.7968,-2.703 1.6019,-2.232 2.7606,-5.477 3.5868,-8.481 0.5813,-2.113 0.9834,-4.045 1.2672,-5.408 0.121,-0.581 0.2205,-1.059 0.3031,-1.404 0.3639,-1.516 1.1613,-4.214 1.9416,-6.855 l 0.0964,-0.326 c 0.8162,-2.762 1.5892,-5.392 1.834,-6.555 0.4994,-2.372 2.2551,-9.902 3.267,-12.811 0.1704,-0.49 0.3564,-1.065 0.554,-1.675 0.3652,-1.129 0.7699,-2.379 1.1875,-3.438 0.3232,-0.82 0.6724,-1.576 1.0453,-2.11 0.1856,-0.267 0.3986,-0.509 0.6446,-0.672 0.2565,-0.17 0.576,-0.268 0.9224,-0.173 0.4401,0.12 0.6191,0.508 0.6865,0.821 0.069,0.319 0.0608,0.708 0.0169,1.112 -0.0889,0.816 -0.3454,1.863 -0.6515,2.922 -0.3079,1.066 -0.6742,2.173 -0.9929,3.117 -0.0659,0.195 -0.1294,0.383 -0.1898,0.561 -0.2354,0.694 -0.424,1.25 -0.52,1.587 -0.2416,0.845 -0.5491,2.502 -0.864,4.218 l -0.0355,0.194 c -0.2988,1.629 -0.6014,3.279 -0.8482,4.204 -0.0798,0.3 -0.2018,0.737 -0.3523,1.277 -0.3721,1.334 -0.9185,3.293 -1.4344,5.341 -0.6064,2.407 -1.1572,4.886 -1.3238,6.553 -0.0994,0.993 -0.161,1.939 -0.1225,2.803 0.053,1.192 0.2949,2.17 0.8348,2.886 0.5267,0.698 1.3913,1.218 2.8486,1.39 0.8265,0.097 1.639,-0.335 2.4463,-1.234 0.803,-0.895 1.5241,-2.173 2.1491,-3.554 0.6221,-1.375 1.1352,-2.821 1.5333,-4.03 0.1691,-0.514 0.3206,-0.996 0.4511,-1.411 0.1697,-0.54 0.3039,-0.967 0.3951,-1.204 0.306,-0.796 1.5507,-4.56 2.7718,-8.364 1.2242,-3.814 2.4002,-7.593 2.5809,-8.437 0.1969,-0.918 1.0246,-3.33 1.9583,-5.82 0.9376,-2.501 2.008,-5.148 2.7084,-6.548 0.6589,-1.318 1.642,-4.344 2.6082,-7.908 0.9703,-3.578 1.9095,-7.646 2.4711,-10.952 0.2832,-1.668 0.6447,-3.389 1.0116,-5.118 l 0.0642,-0.302 c 0.3467,-1.633 0.6948,-3.273 0.9876,-4.898 0.6227,-3.456 0.9853,-6.798 0.5596,-9.778 -0.0422,-0.295 -0.0835,-0.582 -0.1238,-0.862 -0.7942,-5.517 -1.1848,-8.23 0.6572,-12.651 0.6973,-1.674 1.4366,-3.575 2.1811,-5.49 1.2353,-3.177 2.4848,-6.391 3.5802,-8.66 0.0783,-0.163 0.1656,-0.345 0.2626,-0.548 2.0806,-4.347 8.6106,-17.993 26.7896,-41.912 17.782,-23.398 29.412,-49.531 33.455,-66.439 0.268,-1.119 0.502,-2.196 0.702,-3.229 2.599,-13.396 4.749,-25.575 5.498,-29.989 0.01,-0.06 0.031,-0.117 0.062,-0.17 11.309,-19.185 19.927,-35.249 24.97,-53.132 0.06,-0.212 0.251,-0.359 0.471,-0.364 0.221,-0.004 0.418,0.136 0.486,0.346 1.316,4.053 3.475,9.667 5.686,15.417 0.406,1.055 0.813,2.113 1.217,3.168 2.6,6.786 5.077,13.412 6.086,17.448 0.999,3.997 1.619,6.098 2.233,7.726 0.461,1.223 0.919,2.178 1.544,3.483 0.21,0.436 0.437,0.912 0.69,1.449 l 0.188,0.398 c 1.933,4.104 3.864,8.204 4.358,13.267 0.103,1.056 0.282,2.397 0.502,3.979 0.057,0.408 0.116,0.831 0.177,1.268 0.364,2.591 0.8,5.696 1.178,9.121 0.497,4.513 0.895,9.591 0.895,14.805 0,6.175 -1.141,11.913 -2.253,17.503 l -0.038,0.188 c -1.126,5.664 -2.208,11.174 -2.084,16.923 0.08,3.741 0.187,6.794 0.294,9.365 0.074,1.767 0.148,3.31 0.214,4.693 0.137,2.845 0.242,5.017 0.242,7.078 0,1.204 -0.332,2.639 -0.837,4.342 -0.298,1.005 -0.666,2.132 -1.073,3.381 -0.282,0.865 -0.584,1.788 -0.894,2.772 -1.526,4.827 -3.33,11.234 -4.45,19.82 -0.861,6.599 -1.704,11.464 -2.458,15.548 -0.178,0.962 -0.35,1.879 -0.517,2.764 -0.541,2.879 -1.019,5.422 -1.406,8.07 -0.313,2.139 -0.565,4.343 -0.741,6.838 -10e-4,0.015 -0.003,0.03 -0.005,0.045 -0.347,2.143 -0.736,4.625 -1.153,7.37 -3.036,19.989 -7.528,53.893 -7.703,72.93 -0.178,19.274 0.907,41.235 1.639,56.07 0.298,6.04 0.538,10.898 0.611,13.913 0.249,10.349 1.621,24.682 5.108,37.632 0.331,1.23 0.688,2.478 1.064,3.737 0.895,3 1.893,6.063 2.893,9.111 l 0.238,0.725 c 0.919,2.801 1.833,5.585 2.657,8.28 1.788,5.846 3.175,11.334 3.29,15.764 0.118,4.57 -0.571,7.486 -1.351,10.782 -0.054,0.228 -0.108,0.457 -0.162,0.689 -0.839,3.572 -1.738,7.785 -1.862,15.176 -0.25,14.854 0.624,30.088 0.874,34.085 0.019,0.296 -0.011,0.749 -0.07,1.312 -0.06,0.573 -0.155,1.293 -0.278,2.14 -0.247,1.695 -0.612,3.918 -1.05,6.533 -0.163,0.972 -0.337,1.998 -0.518,3.073 -0.795,4.71 -1.745,10.341 -2.667,16.33 -2.267,14.729 -4.35,31.547 -3.542,42.105 1.153,15.079 4.829,39.567 7.895,59.086 0.643,4.096 1.26,7.977 1.821,11.504 0.526,3.306 1.002,6.301 1.404,8.871 0.223,1.427 0.481,3.062 0.765,4.871 1.548,9.832 3.906,24.807 6.011,39.591 2.49,17.48 4.633,34.73 4.654,42.87 0,2.4 -0.327,7.2 -0.73,11.56 -0.202,2.18 -0.423,4.26 -0.634,5.88 -0.105,0.82 -0.208,1.52 -0.306,2.06 -0.093,0.52 -0.19,0.96 -0.299,1.2 -0.63,1.39 -2.08,4.7 -2.08,7.55 0,0.68 0.081,1.37 0.188,2.08 0.032,0.22 0.068,0.45 0.103,0.67 0.079,0.51 0.161,1.03 0.221,1.55 0.177,1.52 0.184,3.15 -0.552,4.89 -0.735,1.74 -2.558,3.64 -4.257,5.17 -1.614,1.45 -3.189,2.63 -3.798,3.08 l -0.106,0.08 c -0.524,0.39 -1.005,0.77 -1.474,1.13 -2.143,1.66 -4.009,3.11 -8.491,5.17 -1.522,0.7 -2.921,1.61 -3.999,2.62 -1.083,1.01 -1.809,2.09 -2.051,3.12 -0.235,1 -0.028,2 0.846,2.94 0.898,0.97 2.516,1.9 5.131,2.64 5.334,1.51 9.818,3.17 12.97,4.45 1.576,0.65 2.819,1.2 3.67,1.59 0.425,0.19 0.752,0.35 0.973,0.45 0.111,0.06 0.195,0.1 0.252,0.12 l 0.065,0.04 h 0.017 l 0.004,0.01 h 0.001 c 0.001,0 0.001,0 -0.223,0.45 l 0.224,-0.45 c 0.138,0.07 0.237,0.2 0.267,0.35 0.361,1.84 1.125,3.11 2.249,3.98 1.136,0.88 2.69,1.39 4.701,1.62 6.144,0.69 13.219,1.24 19.401,0.49 6.199,-0.76 11.027,-2.11 13.859,-7.2 0.135,-0.24 0.46,-1 0.825,-2.12 0.36,-1.11 0.747,-2.55 1.015,-4.13 0.539,-3.18 0.572,-6.83 -0.966,-9.55 -0.432,-0.76 -0.829,-1.44 -1.186,-2.06 -0.601,-1.03 -1.091,-1.87 -1.452,-2.6 -0.293,-0.59 -0.515,-1.13 -0.654,-1.67 -0.173,-0.68 -0.361,-2.22 -0.414,-3.82 -0.027,-0.81 -0.02,-1.64 0.041,-2.4 0.062,-0.75 0.179,-1.46 0.392,-2 0.337,-0.86 0.492,-2.31 0.554,-4.01 0.045,-1.27 0.039,-2.63 0.033,-3.92 -0.002,-0.43 -0.004,-0.86 -0.004,-1.26 0,-1.19 -0.39,-3.09 -0.866,-5.14 -0.129,-0.56 -0.265,-1.12 -0.399,-1.68 -0.349,-1.46 -0.688,-2.87 -0.882,-3.97 -0.318,-1.81 -0.278,-2.82 -0.208,-4.21 l 0.006,-0.11 c 0.068,-1.35 0.156,-3.11 -0.025,-6.37 -0.376,-6.77 -0.251,-29.04 -0.001,-43.53 0.251,-14.54 4.381,-48.218 11.774,-71.024 2.05,-6.323 3.499,-12.374 4.493,-18.18 2.568,-15.006 2.1,-28.385 1.11,-40.626 -0.502,-6.196 -1.885,-13 -3.299,-19.95 -0.517,-2.544 -1.039,-5.108 -1.522,-7.669 -1.797,-9.515 -3.067,-18.974 -1.547,-27.014 1.507,-7.976 3.705,-14.474 5.675,-20.179 l 0.226,-0.655 c 1.879,-5.44 3.501,-10.133 4.094,-14.761 0.621,-4.842 0.777,-12.715 0.918,-19.884 l 10e-4,-0.044 c 0.07,-3.56 0.136,-6.941 0.255,-9.667 0.06,-1.369 0.133,-2.579 0.227,-3.567 0.094,-0.979 0.21,-1.774 0.366,-2.293 0.304,-1.014 0.799,-3.472 1.367,-6.694 1.465,-8.293 3.38,-21.389 3.738,-26.945 0.147,-2.277 0.882,-6.423 1.903,-11.428 1.023,-5.018 2.341,-10.936 3.664,-16.775 0.446,-1.969 0.893,-3.93 1.329,-5.844 l 0.32,-1.407 c 1.334,-5.856 2.541,-11.178 3.293,-14.864 1.249,-6.121 3.294,-16.712 5.035,-25.915 0.871,-4.601 1.665,-8.854 2.246,-12.026 0.291,-1.587 0.528,-2.902 0.695,-3.855 0.17,-0.976 0.258,-1.53 0.265,-1.635 0.01,-0.155 0.066,-0.46 0.144,-0.888 l 0.039,-0.209 c 0.103,-0.564 0.247,-1.364 0.418,-2.446 0.341,-2.165 0.791,-5.466 1.239,-10.285 0.895,-9.637 1.784,-25.34 1.784,-50.141 0,-0.276 0.224,-0.5 0.5,-0.5 0.276,0 0.5,0.224 0.5,0.5 0,24.801 0.888,40.504 1.784,50.141 0.448,4.819 0.898,8.12 1.239,10.285 0.171,1.082 0.315,1.882 0.418,2.446 l 0.038,0.209 c 0.079,0.428 0.135,0.733 0.145,0.888 0.006,0.105 0.095,0.659 0.265,1.635 0.167,0.953 0.404,2.268 0.695,3.855 0.581,3.172 1.375,7.425 2.246,12.026 1.741,9.203 3.786,19.794 5.035,25.915 0.752,3.686 1.959,9.008 3.293,14.864 l 0.32,1.407 c 0.436,1.914 0.883,3.875 1.329,5.844 1.323,5.839 2.641,11.757 3.664,16.775 1.021,5.005 1.756,9.151 1.903,11.428 0.358,5.556 2.273,18.652 3.737,26.945 0.569,3.222 1.064,5.68 1.368,6.694 0.156,0.519 0.272,1.314 0.366,2.293 0.094,0.988 0.167,2.198 0.227,3.567 0.119,2.726 0.185,6.107 0.255,9.667 l 10e-4,0.044 c 0.141,7.169 0.297,15.042 0.918,19.884 0.593,4.628 2.215,9.321 4.094,14.761 l 0.226,0.655 c 1.97,5.705 4.168,12.203 5.675,20.179 1.52,8.04 0.25,17.499 -1.547,27.014 -0.483,2.561 -1.005,5.125 -1.522,7.669 -1.414,6.95 -2.798,13.754 -3.299,19.95 -0.99,12.241 -1.458,25.62 1.11,40.626 0.994,5.806 2.443,11.857 4.493,18.18 7.393,22.806 11.523,56.484 11.774,71.024 0.25,14.49 0.375,36.76 -10e-4,43.53 -0.181,3.26 -0.093,5.02 -0.025,6.37 l 0.006,0.11 c 0.07,1.39 0.11,2.4 -0.208,4.21 -0.194,1.1 -0.533,2.51 -0.883,3.97 -0.134,0.56 -0.269,1.12 -0.399,1.68 -0.475,2.05 -0.865,3.95 -0.865,5.14 0,0.4 -0.002,0.83 -0.004,1.26 -0.006,1.29 -0.012,2.65 0.033,3.92 0.062,1.7 0.217,3.15 0.553,4.01 0.213,0.54 0.331,1.25 0.392,2 0.062,0.76 0.069,1.59 0.042,2.4 -0.053,1.6 -0.241,3.14 -0.414,3.82 -0.139,0.54 -0.361,1.08 -0.654,1.67 -0.362,0.73 -0.851,1.57 -1.452,2.6 -0.357,0.62 -0.754,1.3 -1.186,2.06 -1.535,2.72 -1.438,6.33 -0.865,9.5 0.461,2.55 1.206,4.71 1.584,5.81 0.079,0.23 0.143,0.41 0.184,0.54 2.912,5.66 7.373,6.59 13.637,7.42 6.254,0.83 13.467,-0.08 19.594,-0.76 6.127,-0.69 6.806,-3.5 6.961,-5.64 0.039,-0.14 0.132,-0.25 0.256,-0.31 l 0.224,0.45 c -0.224,-0.45 -0.224,-0.45 -0.223,-0.45 l 0.005,-0.01 h 0.017 l 0.065,-0.04 c 0.057,-0.02 0.141,-0.06 0.252,-0.12 0.221,-0.1 0.548,-0.26 0.973,-0.45 0.851,-0.39 2.094,-0.94 3.67,-1.59 3.152,-1.28 7.636,-2.94 12.97,-4.45 2.615,-0.74 4.483,-1.67 5.381,-2.64 0.874,-0.94 1.081,-1.94 0.846,-2.94 -0.242,-1.03 -1.218,-2.11 -2.301,-3.12 -1.078,-1.01 -2.477,-1.92 -3.999,-2.62 -4.482,-2.06 -6.348,-3.51 -8.491,-5.17 -0.469,-0.36 -0.95,-0.74 -1.475,-1.13 -0.511,-0.38 -2.185,-1.61 -3.903,-3.16 -1.699,-1.53 -3.522,-3.43 -4.258,-5.17 -0.735,-1.74 -0.728,-3.37 -0.551,-4.89 0.06,-0.52 0.142,-1.04 0.221,-1.55 0.035,-0.22 0.071,-0.45 0.103,-0.67 0.106,-0.71 0.188,-1.4 0.188,-2.08 0,-2.85 -1.45,-6.16 -2.08,-7.55 -0.109,-0.24 -0.206,-0.68 -0.299,-1.2 -0.098,-0.54 -0.201,-1.24 -0.306,-2.06 -0.211,-1.62 -0.433,-3.7 -0.634,-5.88 -0.403,-4.36 -0.73,-9.16 -0.73,-11.57 0.021,-8.13 2.164,-25.38 4.654,-42.86 2.105,-14.783 4.463,-29.758 6.01,-39.59 0.285,-1.809 0.543,-3.444 0.766,-4.872 0.402,-2.568 0.878,-5.56 1.403,-8.863 0.561,-3.529 1.178,-7.413 1.822,-11.512 3.066,-19.519 6.742,-44.007 7.895,-59.086 0.808,-10.558 -1.275,-27.376 -3.542,-42.105 -0.922,-5.987 -1.872,-11.616 -2.666,-16.325 -0.182,-1.076 -0.355,-2.105 -0.519,-3.078 -0.438,-2.615 -0.803,-4.838 -1.05,-6.533 -0.123,-0.847 -0.218,-1.567 -0.278,-2.14 -0.059,-0.563 -0.089,-1.016 -0.07,-1.312 0.25,-3.997 1.124,-19.231 0.874,-34.085 -0.124,-7.391 -1.023,-11.604 -1.862,-15.176 -0.054,-0.232 -0.108,-0.461 -0.162,-0.689 -0.78,-3.296 -1.47,-6.213 -1.351,-10.782 0.115,-4.43 1.502,-9.918 3.29,-15.764 0.824,-2.695 1.737,-5.478 2.656,-8.279 l 0.239,-0.726 c 1,-3.048 1.998,-6.111 2.893,-9.111 0.376,-1.259 0.733,-2.507 1.064,-3.737 3.487,-12.95 4.859,-27.283 5.108,-37.632 0.073,-3.015 0.313,-7.873 0.611,-13.913 0.732,-14.835 1.817,-36.796 1.639,-56.07 -0.175,-19.037 -4.667,-52.941 -7.703,-72.93 -0.417,-2.745 -0.806,-5.227 -1.153,-7.37 -0.002,-0.015 -0.004,-0.03 -0.005,-0.045 -0.176,-2.495 -0.428,-4.699 -0.741,-6.838 -0.387,-2.648 -0.865,-5.191 -1.407,-8.07 -0.166,-0.885 -0.339,-1.802 -0.516,-2.764 -0.754,-4.084 -1.597,-8.949 -2.458,-15.548 -1.12,-8.586 -2.924,-14.993 -4.45,-19.82 -0.31,-0.984 -0.612,-1.908 -0.894,-2.773 -0.407,-1.249 -0.775,-2.375 -1.073,-3.38 -0.505,-1.703 -0.837,-3.138 -0.837,-4.342 0,-2.061 0.104,-4.233 0.241,-7.077 0.067,-1.384 0.141,-2.927 0.215,-4.694 0.107,-2.571 0.214,-5.624 0.294,-9.365 0.124,-5.749 -0.958,-11.259 -2.084,-16.923 l -0.038,-0.188 c -1.112,-5.59 -2.253,-11.328 -2.253,-17.503 0,-5.214 0.397,-10.292 0.895,-14.805 0.378,-3.425 0.814,-6.53 1.178,-9.121 0.061,-0.437 0.12,-0.86 0.177,-1.268 0.22,-1.582 0.399,-2.923 0.502,-3.979 0.494,-5.063 2.425,-9.163 4.358,-13.267 l 0.014,-0.028 0.173,-0.37 c 0.254,-0.538 0.481,-1.013 0.691,-1.45 0.625,-1.304 1.083,-2.259 1.544,-3.482 0.614,-1.628 1.234,-3.729 2.233,-7.726 1.009,-4.036 3.486,-10.662 6.086,-17.448 0.404,-1.054 0.811,-2.112 1.216,-3.166 2.212,-5.751 4.371,-11.366 5.687,-15.419 0.068,-0.21 0.265,-0.35 0.485,-0.346 0.221,0.005 0.412,0.152 0.472,0.364 5.043,17.883 13.661,33.947 24.97,53.132 0.018,0.031 0.032,0.063 0.044,0.097 0.007,0.024 0.014,0.048 0.018,0.073 0.749,4.414 2.899,16.593 5.498,29.989 0.2,1.033 0.434,2.11 0.702,3.229 4.043,16.908 15.673,43.041 33.455,66.439 18.179,23.919 24.709,37.565 26.79,41.912 0.097,0.203 0.184,0.386 0.262,0.548 1.096,2.269 2.345,5.483 3.58,8.66 0.745,1.915 1.484,3.816 2.181,5.49 1.842,4.421 1.452,7.134 0.658,12.651 -0.041,0.28 -0.082,0.567 -0.124,0.862 -0.426,2.98 -0.063,6.322 0.559,9.778 0.293,1.625 0.641,3.264 0.988,4.896 l 0.064,0.304 c 0.367,1.729 0.729,3.45 1.012,5.118 0.561,3.306 1.501,7.374 2.471,10.952 0.966,3.564 1.949,6.59 2.608,7.908 0.701,1.4 1.771,4.047 2.709,6.548 0.933,2.49 1.761,4.902 1.958,5.82 0.181,0.844 1.357,4.623 2.581,8.437 1.221,3.804 2.466,7.568 2.772,8.364 0.091,0.237 0.225,0.663 0.394,1.203 0.131,0.415 0.283,0.897 0.452,1.412 0.398,1.209 0.911,2.655 1.533,4.03 0.625,1.381 1.346,2.659 2.149,3.554 0.807,0.899 1.62,1.331 2.447,1.234 1.457,-0.172 2.321,-0.692 2.848,-1.39 0.54,-0.716 0.782,-1.694 0.835,-2.886 0.038,-0.864 -0.023,-1.81 -0.123,-2.803 -0.166,-1.667 -0.717,-4.146 -1.323,-6.553 -0.516,-2.048 -1.063,-4.007 -1.435,-5.341 -0.15,-0.54 -0.272,-0.977 -0.352,-1.277 -0.247,-0.926 -0.55,-2.578 -0.849,-4.21 l -0.035,-0.188 c -0.315,-1.716 -0.622,-3.373 -0.864,-4.218 -0.096,-0.336 -0.284,-0.892 -0.519,-1.585 -0.061,-0.179 -0.125,-0.367 -0.191,-0.563 -0.318,-0.944 -0.685,-2.051 -0.993,-3.117 -0.306,-1.059 -0.562,-2.106 -0.651,-2.922 -0.044,-0.404 -0.052,-0.793 0.017,-1.112 0.067,-0.313 0.246,-0.701 0.686,-0.821 0.347,-0.095 0.666,0.003 0.923,0.173 0.246,0.163 0.459,0.405 0.644,0.672 0.373,0.534 0.723,1.29 1.046,2.11 0.417,1.06 0.822,2.31 1.187,3.439 0.198,0.61 0.384,1.184 0.554,1.674 1.012,2.909 2.768,10.439 3.267,12.811 0.245,1.163 1.018,3.793 1.834,6.555 l 0.097,0.327 c 0.78,2.64 1.577,5.338 1.941,6.854 0.083,0.345 0.182,0.823 0.303,1.404 0.284,1.363 0.686,3.295 1.267,5.408 0.827,3.004 1.985,6.249 3.587,8.481 1.344,1.873 2.917,2.93 4.797,2.703 1.333,-0.161 2.21,-0.768 2.791,-1.659 0.595,-0.914 0.9,-2.164 0.984,-3.624 0.221,-3.803 -1.06,-8.635 -1.821,-11.508 -0.094,-0.353 -0.179,-0.675 -0.253,-0.963 -0.57,-2.216 -0.886,-4.239 -1.214,-6.474 -0.03,-0.204 -0.06,-0.41 -0.09,-0.619 -0.303,-2.072 -0.637,-4.358 -1.202,-7.184 -0.621,-3.104 -1.897,-7.899 -3.069,-12.024 -0.585,-2.059 -1.143,-3.947 -1.577,-5.365 -0.218,-0.709 -0.404,-1.299 -0.546,-1.735 -0.072,-0.217 -0.132,-0.394 -0.179,-0.526 -0.024,-0.066 -0.043,-0.119 -0.059,-0.159 -0.008,-0.021 -0.015,-0.036 -0.02,-0.048 -0.005,-0.012 -0.007,-0.017 -0.007,-0.017 -0.164,-0.327 -0.156,-0.67 -0.015,-0.962 0.132,-0.276 0.366,-0.476 0.613,-0.6 0.48,-0.24 1.198,-0.27 1.703,0.235 0.131,0.131 0.244,0.312 0.344,0.497 0.053,0.099 0.107,0.209 0.162,0.328 0.053,0.114 0.106,0.236 0.16,0.365 0.221,0.529 0.468,1.21 0.734,1.985 0.164,0.476 0.336,0.992 0.516,1.535 0.113,0.343 0.23,0.697 0.349,1.059 0.309,0.935 0.636,1.925 0.979,2.922 0.697,2.029 2.079,7.621 3.341,12.921 0.718,3.011 1.398,5.934 1.899,8.085 0.385,1.653 0.664,2.851 0.772,3.285 0.255,1.019 0.665,3.228 1.085,5.499 0.423,2.287 0.858,4.649 1.167,6.011 0.615,2.703 2.097,6.157 2.572,6.988 0.072,0.125 0.168,0.284 0.293,0.463 0.68,0.978 2.165,2.535 4.898,2.535 1.142,0 1.959,-0.393 2.562,-1.092 0.621,-0.721 1.049,-1.807 1.297,-3.243 0.184,-1.063 0.266,-2.293 0.266,-3.665 0,-2.51 -0.46,-5.376 -1.021,-8.151 -0.248,-1.222 -0.517,-2.439 -0.774,-3.594 -0.318,-1.435 -0.615,-2.776 -0.822,-3.915 -0.352,-1.935 -0.513,-3.409 -0.672,-4.86 l -0.036,-0.331 c -0.172,-1.558 -0.357,-3.135 -0.79,-5.301 -0.434,-2.168 -1.585,-6.556 -2.712,-10.749 -0.346,-1.291 -0.691,-2.563 -1.011,-3.745 -0.715,-2.64 -1.306,-4.825 -1.523,-5.738 -0.304,-1.273 -0.791,-2.555 -1.237,-3.571 -0.451,-1.025 -0.843,-1.742 -0.943,-1.892 -0.199,-0.298 -0.125,-0.639 -0.052,-0.834 0.084,-0.221 0.233,-0.438 0.42,-0.601 0.181,-0.159 0.458,-0.317 0.79,-0.291 0.361,0.029 0.637,0.26 0.817,0.575 0.274,0.479 0.631,1.33 1.191,2.84 0.565,1.521 1.348,3.745 2.472,6.995 0.614,1.772 1.282,3.838 1.939,5.935 1.063,3.391 2.093,6.847 2.825,9.304 0.487,1.636 0.843,2.829 0.988,3.266 0.186,0.557 0.454,1.858 0.731,3.315 0.265,1.4 0.547,2.99 0.781,4.308 0.238,1.332 0.423,2.358 0.499,2.664 0.01,0.039 0.021,0.087 0.035,0.144 0.221,0.913 0.985,4.074 2.843,6.28 1.124,1.335 2.614,2.281 4.616,2.198 0.942,-0.04 1.647,-0.301 2.183,-0.697 0.539,-0.397 0.939,-0.953 1.228,-1.626 0.562,-1.307 0.686,-2.994 0.645,-4.606 -0.02,-0.799 -0.08,-1.564 -0.14,-2.238 -0.06,-0.663 -0.123,-1.26 -0.144,-1.684 -0.123,-2.456 -1.364,-9.414 -2.367,-14.681 -0.997,-5.235 -2.994,-13.599 -4.119,-18.098 -0.129,-0.517 -0.281,-1.13 -0.452,-1.817 -1.319,-5.32 -3.744,-15.095 -5.284,-19.385 -1.389,-3.87 -4.139,-10.143 -5.351,-12.82 l -2.129,-3.857 c -0.133,-0.242 -0.045,-0.546 0.196,-0.68 0.242,-0.133 0.546,-0.045 0.68,0.197 l 2.002,3.629 c 0.963,0.075 2.265,0.482 3.494,0.976 1.379,0.555 2.76,1.259 3.614,1.85 0.774,0.536 1.341,1.232 1.948,1.976 0.086,0.106 0.173,0.213 0.262,0.32 0.722,0.876 1.599,1.874 3.055,2.965 1.428,1.071 3.447,1.92 5.588,2.315 2.141,0.395 4.354,0.326 6.181,-0.381 1.212,-0.469 1.929,-1.248 2.309,-2.111 0.367,-0.831 0.432,-1.764 0.288,-2.609 -0.146,-0.853 -0.495,-1.561 -0.895,-1.96 -0.725,-0.726 -1.608,-1.427 -2.47,-2.101 l -0.193,-0.15 c -0.781,-0.61 -1.542,-1.205 -2.087,-1.749 -0.245,-0.246 -0.432,-0.481 -0.581,-0.715 -0.246,-0.387 -0.383,-0.767 -0.508,-1.112 -0.026,-0.071 -0.051,-0.141 -0.076,-0.209 -0.152,-0.405 -0.342,-0.84 -0.756,-1.393 -1.089,-1.451 -3.302,-3.545 -5.034,-4.907 -0.836,-0.657 -2.173,-1.419 -3.569,-2.172 -0.407,-0.219 -0.82,-0.438 -1.223,-0.652 -0.957,-0.508 -1.863,-0.989 -2.531,-1.39 -0.997,-0.598 -1.848,-1.421 -2.644,-2.216 -0.079,-0.079 -0.158,-0.158 -0.236,-0.237 -0.721,-0.723 -1.402,-1.407 -2.154,-1.944 -1.72,-1.229 -6.062,-3.835 -10.526,-5.695 l -10e-4,-10e-4 c -1.303,-0.546 -4.107,-1.691 -5.076,-1.982 -0.635,-0.191 -2.587,-0.82 -4.525,-1.592 -0.969,-0.386 -1.945,-0.812 -2.754,-1.24 -0.405,-0.214 -0.776,-0.432 -1.087,-0.651 -0.305,-0.214 -0.579,-0.447 -0.765,-0.696 -0.065,-0.086 -0.138,-0.211 -0.216,-0.36 -0.047,-0.089 -0.096,-0.187 -0.146,-0.29 -0.14,-0.291 -0.31,-0.669 -0.506,-1.122 -0.392,-0.908 -0.893,-2.134 -1.474,-3.6 -1.162,-2.932 -2.648,-6.838 -4.227,-11.114 -3.157,-8.549 -6.692,-18.591 -8.759,-25.291 -1.892,-6.135 -3.52,-14.616 -5.404,-24.427 -0.179,-0.936 -0.362,-1.885 -0.547,-2.845 -2.124,-11.03 -4.621,-23.576 -8.178,-36.367 -6.523,-23.461 -12.515,-34.517 -17.704,-44.093 -0.466,-0.861 -0.926,-1.71 -1.38,-2.554 -1.241,-2.314 -2.319,-4.21 -3.27,-5.881 -3.241,-5.701 -4.996,-8.786 -6.654,-16.881 -1.393,-6.803 -4.844,-16.588 -7.76,-24.858 -0.626,-1.778 -1.229,-3.485 -1.78,-5.078 -0.774,-2.233 -1.448,-4.241 -1.949,-5.894 -0.983,-3.247 -3.419,-8.269 -6.087,-13.259 -2.661,-4.978 -5.532,-9.882 -7.361,-12.875 -0.042,-0.069 -0.067,-0.147 -0.072,-0.227 -0.209,-3.093 -0.626,-11.471 -0.626,-20.284 0,-10.997 -1.007,-32.106 -11.663,-47.718 -4.988,-7.308 -9.062,-11.611 -13.429,-14.716 -4.375,-3.112 -9.069,-5.041 -15.358,-7.573 -0.919,-0.37 -1.873,-0.753 -2.863,-1.154 -7.2,-2.918 -12.064,-3.785 -16.904,-4.532 -0.361,-0.056 -0.722,-0.111 -1.084,-0.166 -4.507,-0.688 -9.155,-1.397 -15.737,-3.668 -14.145,-4.882 -26.052,-10.269 -32.964,-14.291 -3.438,-2 -6.775,-4.045 -9.287,-5.973 -1.255,-0.963 -2.321,-1.909 -3.094,-2.819 -0.764,-0.899 -1.29,-1.818 -1.365,-2.723 -0.069,-0.823 -0.1,-3.461 -0.109,-6.915 -0.019,-6.976 0.051,-17.411 0.107,-23.506 0.001,-0.112 0.039,-0.22 0.109,-0.307 0.566,-0.712 1.042,-1.754 1.44,-3.005 0.396,-1.243 0.705,-2.656 0.954,-4.082 0.248,-1.425 0.436,-2.853 0.593,-4.124 0.035,-0.287 0.069,-0.566 0.102,-0.836 0.112,-0.921 0.21,-1.733 0.308,-2.346 0.211,-1.319 0.309,-2.546 0.383,-3.467 0.012,-0.153 0.023,-0.298 0.035,-0.433 0.037,-0.447 0.075,-0.849 0.14,-1.079 0.016,-0.058 0.047,-0.153 0.108,-0.242 0.058,-0.085 0.241,-0.291 0.545,-0.237 0.227,0.039 0.346,0.206 0.377,0.25 0.049,0.07 0.087,0.148 0.115,0.215 0.017,0.039 0.034,0.079 0.051,0.119 0.18,0.424 0.369,0.872 0.791,1.282 0.452,0.439 1.217,0.873 2.636,1.05 0.518,0.065 1.074,-0.192 1.696,-0.842 0.617,-0.645 1.221,-1.595 1.817,-2.71 0.543,-1.017 1.065,-2.1394 1.579,-3.2437 l 0.141,-0.302 c 0.554,-1.1914 1.103,-2.3539 1.649,-3.284 1.019,-1.7387 1.912,-4.6404 2.582,-7.8796 0.667,-3.2252 1.101,-6.7297 1.224,-9.6388 0.057,-1.3235 -0.037,-2.4374 -0.242,-3.3717 -0.34,-1.5488 -0.983,-2.6066 -1.762,-3.3211 -0.78,-0.7168 -1.726,-1.1151 -2.711,-1.294 -0.862,-0.1568 -1.683,0.272 -2.411,1.0068 -0.722,0.7285 -1.265,1.6765 -1.539,2.3215 -0.096,0.2269 -0.343,0.3498 -0.582,0.2896 -0.239,-0.0602 -0.399,-0.2856 -0.376,-0.531 0.395,-4.2589 0.831,-11.1376 0.857,-17.9214 0.026,-6.8069 -0.363,-13.44 -1.585,-17.2548 C 344.37,31.8431 340.065,22.9161 332.271,15.1992 324.486,7.49246 313.232,1.00016 297.763,1.00016 c -0.004,0 -0.009,-5e-5 -0.013,-1.6e-4 -0.004,1.1e-4 -0.009,1.6e-4 -0.013,1.6e-4 -15.469,0 -26.723,6.4923 -34.508,14.19904 z"
     fill="#e0e0e0"
     id="full_body"
     style="display:inline"
     inkscape:label="full_body" />
  <g
     id="Adductors"
     inkscape:label="adductors">
    <path
       d="M297.75 576V564.25L297.125 570.25L295 579.25L292 585.25L291 594.5L288.5 608.125L285.625 621.5L280.875 639.25L277.375 651.75L273.375 665.375L268.75 678.625L265.25 703.625L261.25 734.75C262.417 731.083 265.925 720.15 270.625 705.75C276.5 687.75 284.25 674.125 290.75 652.5C295.95 635.2 297.167 612.625 297.125 603.5L297.75 576Z"
       fill="#BDBDBD"
       id="path13" />
    <path
       d="M297.75 576V564.25L298.375 570.25L300.5 579.25L303.5 585.25L304.5 594.5L307 608.125L309.875 621.5L314.625 639.25L318.125 651.75L322.125 665.375L326.75 678.625L330.25 703.625L334.25 734.75C333.083 731.083 329.575 720.15 324.875 705.75C319 687.75 311.25 674.125 304.75 652.5C299.55 635.2 298.333 612.625 298.375 603.5L297.75 576Z"
       fill="#BDBDBD"
       id="path12" />
    <path
       d="M269 678.125C275.958 658.375 290.275 612.175 291.875 585.375C289.075 589.675 285.708 592.5 284.375 593.375L273.375 598.875C275.375 614.675 271.292 658.292 269 678.125Z"
       fill="#BDBDBD"
       id="path11" />
    <path
       d="M326.5 678.125C319.542 658.375 305.225 612.175 303.625 585.375C306.425 589.675 309.792 592.5 311.125 593.375L322.125 598.875C320.125 614.675 324.208 658.292 326.5 678.125Z"
       fill="#BDBDBD"
       id="path10" />
  </g>
  <g
     id="Hamstrings"
     inkscape:label="hamstrings">
    <path
       d="M364.125 714.625C364.708 695.209 364.75 646.125 360.25 605.125C362.125 605.042 367.775 605.5 375.375 608C384.875 611.125 389.125 618.75 390.25 620.625C391.15 622.125 392.875 626.917 393.625 629.125C394.125 631.75 395.325 638.5 396.125 644.5C396.925 650.5 397.042 663.084 397 668.625L396.375 694.5L395.25 718.875C395 725.042 394.25 739.525 393.25 748.125C392 758.875 393.875 765.5 395.125 770.5C396.125 774.5 396.292 783.917 396.25 788.125L395.875 806.625L395.5 818.25C394.458 814.5 391.7 805.225 389 798.125C385.625 789.25 380 783.375 375.125 777.625C370.25 771.875 366.125 756.5 364.125 745.5C362.525 736.7 363.458 721.25 364.125 714.625Z"
       fill="#BDBDBD"
       id="path17" />
    <path
       d="M231.383 714.625C230.799 695.209 230.758 646.125 235.258 605.125C233.383 605.042 227.733 605.5 220.133 608C210.633 611.125 206.383 618.75 205.258 620.625C204.358 622.125 202.633 626.917 201.883 629.125C201.383 631.75 200.183 638.5 199.383 644.5C198.583 650.5 198.466 663.084 198.508 668.625L199.133 694.5L200.258 718.875C200.508 725.042 201.258 739.525 202.258 748.125C203.508 758.875 201.633 765.5 200.383 770.5C199.383 774.5 199.216 783.917 199.258 788.125L199.633 806.625L200.008 818.25C201.049 814.5 203.808 805.225 206.508 798.125C209.883 789.25 215.508 783.375 220.383 777.625C225.258 771.875 229.383 756.5 231.383 745.5C232.983 736.7 232.049 721.25 231.383 714.625Z"
       fill="#BDBDBD"
       id="path16" />
    <path
       d="M232.5 635C233 627.3 234.625 611.792 235.375 605C239.875 604.5 250.1 603.375 255 602.875C259.9 602.375 269.542 599.75 273.75 598.5V616.625L273 635.875L270.875 659L268 686L265.125 706.75L261.125 736.25C260.125 741.458 259.275 754.575 263.875 765.375C269.612 778.845 269.501 781.862 269.128 791.933L269.125 792C268.825 800.1 265.333 811.958 263.625 816.875C262.417 820.708 259.7 829.75 258.5 835.25C257.3 840.75 258 849.792 258.5 853.625C257.708 849.583 255.925 839.975 255.125 833.875C254.325 827.775 254.125 809.333 254.125 800.875L254.375 790.125C254.833 788 255.475 783.375 254.375 781.875C253.275 780.375 247.5 780.5 244.75 780.75C243.708 778.542 240.65 770.475 236.75 755.875C232.85 741.275 231.458 715.292 231.25 704.125V673.25C231.458 663.708 232 642.7 232.5 635Z"
       fill="#BDBDBD"
       id="path15" />
    <path
       d="M363.125 635C362.625 627.3 361 611.792 360.25 605C355.75 604.5 345.525 603.375 340.625 602.875C335.725 602.375 326.083 599.75 321.875 598.5V616.625L322.625 635.875L324.75 659L327.625 686L330.5 706.75L334.5 736.25C335.5 741.458 336.35 754.575 331.75 765.375C326.013 778.845 326.124 781.862 326.497 791.933L326.5 792C326.8 800.1 330.292 811.958 332 816.875C333.208 820.708 335.925 829.75 337.125 835.25C338.325 840.75 337.625 849.792 337.125 853.625C337.917 849.583 339.7 839.975 340.5 833.875C341.3 827.775 341.5 809.333 341.5 800.875L341.25 790.125C340.792 788 340.15 783.375 341.25 781.875C342.35 780.375 348.125 780.5 350.875 780.75C351.917 778.542 354.975 770.475 358.875 755.875C362.775 741.275 364.167 715.292 364.375 704.125V673.25C364.167 663.708 363.625 642.7 363.125 635Z"
       fill="#BDBDBD"
       id="path14" />
  </g>
  <g
     id="Quads"
     inkscape:label="quads">
    <path
       d="M196.625 595.5C196.917 586.958 196.575 563.35 192.875 537.25C191.292 548.708 187.875 573.675 186.875 581.875C185.875 590.075 185.208 608.458 185 616.625L185.375 637.5L186.625 666.5L187.625 688.25L189 701.375C190 707.25 192.575 720.6 194.875 727C197.175 733.4 200.75 745.833 202.25 751.25L199.625 707.25C199.042 693.083 198.025 662.025 198.625 651.125C199.225 640.225 201.625 630.167 202.75 626.5C202.208 626.875 200.625 626.35 198.625 621.25C196.625 616.15 196.458 601.958 196.625 595.5Z"
       fill="#BDBDBD"
       id="path19" />
    <path
       d="M398.75 595.5C398.458 586.958 398.8 563.35 402.5 537.25C404.083 548.708 407.5 573.675 408.5 581.875C409.5 590.075 410.167 608.458 410.375 616.625L410 637.5L408.75 666.5L407.75 688.25L406.375 701.375C405.375 707.25 402.8 720.6 400.5 727C398.2 733.4 394.625 745.833 393.125 751.25L395.75 707.25C396.333 693.083 397.35 662.025 396.75 651.125C396.15 640.225 393.75 630.167 392.625 626.5C393.167 626.875 394.75 626.35 396.75 621.25C398.75 616.15 398.917 601.958 398.75 595.5Z"
       fill="#BDBDBD"
       id="path18" />
    <path
       d="M310.625 684.875L304 650.625L305.625 654.625L314.375 677.875L322.875 700.375L328.875 717.25L333.5 731.75C334.042 733.5 335.15 739 335.25 747C335.35 755 333.042 762.5 331.875 765.25L327.5 775.75L326.125 783.75L325.5 765.25L324.25 759.375L320.875 738.625L319.75 727.125L315.875 708.125L310.625 684.875Z"
       fill="#BDBDBD"
       id="path8" />
    <path
       d="M284.878 684.875L291.503 650.625L289.878 654.625L281.128 677.875L272.628 700.375L266.628 717.25L262.003 731.75C261.461 733.5 260.353 739 260.253 747C260.153 755 262.461 762.5 263.628 765.25L268.003 775.75L269.378 783.75L270.003 765.25L271.253 759.375L274.628 738.625L275.753 727.125L279.628 708.125L284.878 684.875Z"
       fill="#BDBDBD"
       id="path9" />
  </g>
  <g
     id="Calves"
     inkscape:label="calfs">
    <path
       d="M254.066 793.625C254.191 801.5 251.941 829.25 259.191 857.875C261.091 864.475 263.733 881.875 264.816 889.75C265.808 902.008 266.279 915.435 263.701 930.5C263.206 933.391 262.599 936.342 261.862 939.356C253.654 968.427 243.901 971.498 239.066 971.25C234.191 971 226.679 959.375 227.167 944.25C227.258 941.436 227.35 938.9 227.441 936.625C226.689 955.375 216.316 962.875 212.316 963C208.522 963.119 202.59 960.988 199.003 941.88C196.136 923.409 192.992 901.871 191.941 888.125C190.316 866.875 199.541 821.25 200.316 817.375C202.727 805.32 206.721 799.418 208.094 793.625C208.359 792.511 208.526 791.4 208.566 790.25C208.766 784.55 206.316 783 205.816 779.875C205.816 778.834 207.716 776.725 215.316 776.625C224.816 776.5 229.316 786.125 230.691 786.125C232.066 786.125 235.691 784.5 238.816 782.5C240.217 781.604 242.246 781.009 244.441 780.726C247.143 780.379 250.097 780.505 252.441 781.125C256.691 782.25 253.941 785.75 254.066 793.625Z"
       fill="#BDBDBD"
       id="path21" />
    <path
       d="M341.292 793.625C341.167 801.5 343.417 829.25 336.167 857.875C334.267 864.475 331.625 881.875 330.542 889.75C329.551 902.008 329.079 915.435 331.658 930.5C332.152 933.391 332.759 936.342 333.497 939.356C341.705 968.427 351.457 971.498 356.292 971.25C361.167 971 368.679 959.375 368.191 944.25C368.101 941.436 368.008 938.9 367.917 936.625C368.67 955.375 379.042 962.875 383.042 963C386.837 963.119 392.769 960.988 396.356 941.88C399.223 923.409 402.366 901.871 403.417 888.125C405.042 866.875 395.817 821.25 395.042 817.375C392.631 805.32 388.637 799.418 387.264 793.625C387 792.511 386.832 791.4 386.792 790.25C386.592 784.55 389.042 783 389.542 779.875C389.542 778.834 387.642 776.725 380.042 776.625C370.542 776.5 366.042 786.125 364.667 786.125C363.292 786.125 359.667 784.5 356.542 782.5C355.141 781.604 353.112 781.009 350.917 780.726C348.215 780.379 345.262 780.505 342.917 781.125C338.667 782.25 341.417 785.75 341.292 793.625Z"
       fill="#BDBDBD"
       id="path20" />
    <path
       d="M201.5 958.5L208.25 999.625C214.086 1009.27 225.589 1032.2 227.902 1051.16C228.035 1052.55 228.151 1053.88 228.25 1055.12C228.184 1053.83 228.066 1052.5 227.902 1051.16C225.476 1025.67 217.428 977.083 201.5 958.5Z"
       fill="#BDBDBD"
       id="path7" />
    <path
       d="M393.875 958.5L387.125 999.625C381.289 1009.27 369.786 1032.2 367.473 1051.16C367.34 1052.55 367.224 1053.88 367.125 1055.12C367.191 1053.83 367.309 1052.5 367.473 1051.16C369.899 1025.67 377.947 977.083 393.875 958.5Z"
       fill="#BDBDBD"
       id="path6" />
    <path
       d="M210.75 1085.12C221.35 1093.32 229.75 1108.62 232.625 1115.25C230.292 1113.46 225.175 1109.55 223.375 1108.25C221.575 1106.95 219.458 1104.46 218.625 1103.38L210.75 1092C211.35 1091.1 211 1087.04 210.75 1085.12Z"
       fill="#BDBDBD"
       id="path5" />
    <path
       d="M384.75 1085.12C374.15 1093.32 365.75 1108.62 362.875 1115.25C365.208 1113.46 370.325 1109.55 372.125 1108.25C373.925 1106.95 376.042 1104.46 376.875 1103.38L384.75 1092C384.15 1091.1 384.5 1087.04 384.75 1085.12Z"
       fill="#BDBDBD"
       id="path4" />
    <path
       d="M192.5 1118.5C199.8 1115.3 206.625 1108.17 209.125 1105C209.333 1105.79 210 1107.88 211 1109.88C212.25 1112.38 214.375 1112.62 212.375 1117.12C210.375 1121.62 209.75 1122.62 210.375 1125L205.5 1123.12L197.5 1120.25L192.5 1118.5Z"
       fill="#BDBDBD"
       id="path3" />
    <path
       d="M403 1118.5C395.7 1115.3 388.875 1108.17 386.375 1105C386.167 1105.79 385.5 1107.88 384.5 1109.88C383.25 1112.38 381.125 1112.62 383.125 1117.12C385.125 1121.62 385.75 1122.62 385.125 1125L390 1123.12L398 1120.25L403 1118.5Z"
       fill="#BDBDBD"
       id="path2" />
  </g>
  <g
     id="Glutes"
     inkscape:label="glutes"
     onclick="">
    <path
       d="M275.125 498.375C272.708 493.542 267 480.425 263.5 466.625C262.667 464.458 260.375 459.55 257.875 457.25C255.375 454.95 250.333 456.542 248.125 457.625L243 461.125L238 466.625L234.75 472.875L230 484.125L224.125 498.375L219.75 506.875C216.125 514 208.25 529.725 205.75 535.625C203.25 541.525 197.375 549.75 194.75 553.125L195.75 566.25L196.875 586.75C196.875 593.708 197 609.3 197.5 616C198 622.7 201.292 625.792 202.875 626.5C203.917 623.958 206.8 617.95 210 614.25C215.8 607.85 227.833 605.583 233.125 605.25L257 602.5C264.958 601.542 282.675 597.35 289.875 588.25C298.875 576.875 297.75 564.125 297.75 550.75C297.75 537.375 296.375 532.125 294.5 528C292.625 523.875 287.75 518.625 284.5 514.625C281.9 511.425 277.167 502.458 275.125 498.375Z"
       fill="#BDBDBD"
       id="path23" />
    <path
       d="M320.375 498.375C322.792 493.542 328.5 480.425 332 466.625C332.833 464.458 335.125 459.55 337.625 457.25C340.125 454.95 345.167 456.542 347.375 457.625L352.5 461.125L357.5 466.625L360.75 472.875L365.5 484.125L371.375 498.375L375.75 506.875C379.375 514 387.25 529.725 389.75 535.625C392.25 541.525 398.125 549.75 400.75 553.125L399.75 566.25L398.625 586.75C398.625 593.708 398.5 609.3 398 616C397.5 622.7 394.208 625.792 392.625 626.5C391.583 623.958 388.7 617.95 385.5 614.25C379.7 607.85 367.667 605.583 362.375 605.25L338.5 602.5C330.542 601.542 312.825 597.35 305.625 588.25C296.625 576.875 297.75 564.125 297.75 550.75C297.75 537.375 299.125 532.125 301 528C302.875 523.875 307.75 518.625 311 514.625C313.6 511.425 318.333 502.458 320.375 498.375Z"
       fill="#BDBDBD"
       id="path22" />
    <path
       d="M376.75 488.5C378.125 478.125 380.625 469.875 388.25 465.75L389.25 467.375L390.125 471.875L393 480.25L395.25 489.5L397.75 506.5L400.625 523L402.375 535.125L400.75 553.125L398.25 550.125L394.125 543.875L389.875 536L383.25 522.125L376.375 508.25C376.042 505.125 375.65 496.8 376.75 488.5Z"
       fill="#BDBDBD"
       id="path24" />
    <path
       d="M218.875 488.5C217.5 478.125 215 469.875 207.375 465.75L206.375 467.375L205.5 471.875L202.625 480.25L200.375 489.5L197.875 506.5L195 523L193.25 535.125L194.875 553.125L197.375 550.125L201.5 543.875L205.75 536L212.375 522.125L219.25 508.25C219.583 505.125 219.975 496.8 218.875 488.5Z"
       fill="#BDBDBD"
       id="path25" />
    <path
       d="M364.875 445.125C371.25 447.5 381.625 453.75 388.25 465.75C383.15 468.249 380.292 473.958 379.5 476.5C375.5 488 375.917 502.792 376.625 508.75L372 499.5L365.75 485L360.25 471.5C359.542 469.833 357.225 465.625 353.625 462.125C346.625 455.225 340.458 455.667 338.25 456.75C342.333 453.667 350.825 447.25 352.125 446.25C353.75 445 358.5 442.75 364.875 445.125Z"
       fill="#BDBDBD"
       id="path26" />
    <path
       d="M230.625 445.125C224.25 447.5 213.875 453.75 207.25 465.75C212.35 468.249 215.208 473.958 216 476.5C220 488 219.583 502.792 218.875 508.75L223.5 499.5L229.75 485L235.25 471.5C235.958 469.833 238.275 465.625 241.875 462.125C248.875 455.225 255.042 455.667 257.25 456.75C253.167 453.667 244.675 447.25 243.375 446.25C241.75 445 237 442.75 230.625 445.125Z"
       fill="#BDBDBD"
       id="path27" />
  </g>
  <g
     id="Lower Back"
     inkscape:label="lower back">
    <path
       d="M226.125 418.75C217.325 408.95 210.875 396.667 208.75 391.75C209 394.792 209.575 402.35 209.875 408.25C210.175 414.15 209.333 420.042 208.875 422.25L207.125 431.75C206.583 434.667 205.5 440.9 205.5 442.5C205.5 444.1 205.75 451.25 205.875 454.625L206.375 467.625L210.5 460.625C212.25 458.5 216.6 453.25 220 449.25C223.4 445.25 227 442.333 228.375 441.375C231 441.167 237.025 440.55 240.125 439.75C243.225 438.95 247.5 440.5 249.25 441.375C245.208 437.917 234.925 428.55 226.125 418.75Z"
       fill="#BDBDBD"
       id="path29" />
    <path
       d="M369.375 418.75C378.175 408.95 384.625 396.667 386.75 391.75C386.5 394.792 385.925 402.35 385.625 408.25C385.325 414.15 386.167 420.042 386.625 422.25L388.375 431.75C388.917 434.667 390 440.9 390 442.5C390 444.1 389.75 451.25 389.625 454.625L389.125 467.625L385 460.625C383.25 458.5 378.9 453.25 375.5 449.25C372.1 445.25 368.5 442.333 367.125 441.375C364.5 441.167 358.475 440.55 355.375 439.75C352.275 438.95 348 440.5 346.25 441.375C350.292 437.917 360.575 428.55 369.375 418.75Z"
       fill="#BDBDBD"
       id="path28" />
  </g>
  <g
     id="Forearms"
     inkscape:label="forearms">
    <path
       d="M156.125 396.5L160.125 373C158.125 375.25 154.5 384.25 153.125 388C152.025 391 147.333 395.5 145.125 397.375C143.708 398.375 140.675 400.8 139.875 402.5C139.075 404.2 137.125 405.958 136.25 406.625C135.95 413.025 129.708 417.542 126.625 419L124.125 414.625L120.375 424.5L115.875 436.875L110.5 450.875L102.625 473.375L94.125 499.25L88.75 520.125L91.5 519.125L97.375 507.5L104.125 496L113.5 481.875C117.25 476.833 125.5 465.65 128.5 461.25C132.25 455.75 136.375 448.125 143.375 435.125C148.975 424.725 154.208 405.042 156.125 396.5Z"
       fill="#BDBDBD"
       id="path45" />
    <path
       d="M439.375 396.5L435.375 373C437.375 375.25 441 384.25 442.375 388C443.475 391 448.167 395.5 450.375 397.375C451.792 398.375 454.825 400.8 455.625 402.5C456.425 404.2 458.375 405.958 459.25 406.625C459.55 413.025 465.792 417.542 468.875 419L471.375 414.625L475.125 424.5L479.625 436.875L485 450.875L492.875 473.375L501.375 499.25L506.75 520.125L504 519.125L498.125 507.5L491.375 496L482 481.875C478.25 476.833 470 465.65 467 461.25C463.25 455.75 459.125 448.125 452.125 435.125C446.525 424.725 441.292 405.042 439.375 396.5Z"
       fill="#BDBDBD"
       id="path44" />
    <path
       d="M116.125 407.75C117.5 410 122.375 410.625 124.25 414.375L117.25 433L113.125 444.125L110.25 451L110.875 439.5L110.25 430L108.25 419.25L103.75 403.375L97.625 385.625L93.25 373.75L100 361L104.25 353.25L106.875 348.5C106.375 351.75 106.75 360.75 107.75 367.375C108.55 372.675 110.833 379.667 111.875 382.5C112.625 384.083 114.275 387.25 114.875 387.25C115.475 387.25 115.958 386.5 116.125 386.125C115.417 388.75 114.025 395.075 114.125 399.375C114.248 404.68 114.737 405.48 116.072 407.663L116.125 407.75Z"
       fill="#BDBDBD"
       id="path43" />
    <path
       d="M479.375 407.75C478 410 473.125 410.625 471.25 414.375L478.25 433L482.375 444.125L485.25 451L484.625 439.5L485.25 430L487.25 419.25L491.75 403.375L497.875 385.625L502.25 373.75L495.5 361L491.25 353.25L488.625 348.5C489.125 351.75 488.75 360.75 487.75 367.375C486.95 372.675 484.667 379.667 483.625 382.5C482.875 384.083 481.225 387.25 480.625 387.25C480.025 387.25 479.542 386.5 479.375 386.125C480.083 388.75 481.475 395.075 481.375 399.375C481.252 404.68 480.763 405.48 479.428 407.663L479.375 407.75Z"
       fill="#BDBDBD"
       id="path42" />
    <path
       d="M110.125 451.25C114 429.625 104.875 405.625 96.6252 383.25C94.7252 388.85 92.4168 404.083 91.5001 411C90.5418 425.083 88.6251 455.525 88.6251 464.625C88.6251 473.725 84.6251 492.333 82.6251 500.5L77.5001 520C79.3751 520.458 84.2251 521.1 88.6251 520C90.5251 509.2 99.4168 482.333 103.625 470.25C104.917 467.208 108.025 459.15 110.125 451.25Z"
       fill="#BDBDBD"
       id="path41" />
    <path
       d="M485.375 451.25C481.5 429.625 490.625 405.625 498.875 383.25C500.775 388.85 503.083 404.083 504 411C504.958 425.083 506.875 455.525 506.875 464.625C506.875 473.725 510.875 492.333 512.875 500.5L518 520C516.125 520.458 511.275 521.1 506.875 520C504.975 509.2 496.083 482.333 491.875 470.25C490.583 467.208 487.475 459.15 485.375 451.25Z"
       fill="#BDBDBD"
       id="path40" />
    <path
       d="M96.6611 383.375L93.2861 373.75L86.9111 388.25L83.4111 398.125L79.6611 410.625L76.6611 421.5L73.0361 439.125L70.4111 452.625L66.7861 469.5L62.5361 482.625C61.0778 487.208 57.7611 497.25 56.1611 500.75C54.1611 505.125 56.9111 509.75 61.5361 512.625C65.2361 514.925 70.6611 517.25 72.9111 518.125L74.9111 511L77.5361 499.375L81.0361 476L83.4111 456.125L85.4111 441.375L88.6611 423.5L91.0361 414.75C92.5361 400.15 95.4111 387.75 96.6611 383.375Z"
       fill="#BDBDBD"
       id="path39" />
    <path
       d="M498.875 383.375L502.25 373.75L508.625 388.25L512.125 398.125L515.875 410.625L518.875 421.5L522.5 439.125L525.125 452.625L528.75 469.5L533 482.625C534.458 487.208 537.775 497.25 539.375 500.75C541.375 505.125 538.625 509.75 534 512.625C530.3 514.925 524.875 517.25 522.625 518.125L520.625 511L518 499.375L514.5 476L512.125 456.125L510.125 441.375L506.875 423.5L504.5 414.75C503 400.15 500.125 387.75 498.875 383.375Z"
       fill="#BDBDBD"
       id="path38" />
    <path
       d="M88 470.875C89.625 456.875 88.25 446.625 91 415C88.4 422 85.5 439.417 84.375 447.25C83 457.792 80.025 480.925 79.125 489.125C78.225 497.325 74.3333 511.958 72.5 518.25L77.375 519.875C80.375 512.75 86.375 484.875 88 470.875Z"
       fill="#BDBDBD"
       id="path37" />
    <path
       d="M507.375 470.875C505.75 456.875 507.125 446.625 504.375 415C506.975 422 509.875 439.417 511 447.25C512.375 457.792 515.35 480.925 516.25 489.125C517.15 497.325 521.042 511.958 522.875 518.25L518 519.875C515 512.75 509 484.875 507.375 470.875Z"
       fill="#BDBDBD"
       id="path36" />
    <path
       d="M83.752 520.875C85.6686 520.917 90.077 520.375 92.377 517.875L87.127 530.5C84.002 531.5 78.627 530.875 71.252 528.625C63.877 526.375 56.877 522.125 53.627 519.5C51.027 517.4 50.4603 515.458 50.502 514.75L55.627 502.125C53.927 506.725 58.752 511.042 61.377 512.625C64.0853 514.083 70.352 517.35 73.752 518.75C77.152 520.15 81.8353 520.75 83.752 520.875Z"
       fill="#E0E0E0"
       id="path35" />
    <path
       d="M511.625 520.875C509.708 520.917 505.3 520.375 503 517.875L508.25 530.5C511.375 531.5 516.75 530.875 524.125 528.625C531.5 526.375 538.5 522.125 541.75 519.5C544.35 517.4 544.917 515.458 544.875 514.75L539.75 502.125C541.45 506.725 536.625 511.042 534 512.625C531.292 514.083 525.025 517.35 521.625 518.75C518.225 520.15 513.542 520.75 511.625 520.875Z"
       fill="#E0E0E0"
       id="path34" />
    <path
       d="M82.1122 531.014C82.1122 534.01 79.9872 539.547 79.9872 541.499C79.9872 543.452 75.5 565.708 75.6122 570.872C75.7109 575.414 73.6106 585.971 72.4872 584.701C73.7197 586.094 72.501 588.051 71.8356 589.538C71.1702 591.026 69.7298 595.881 69.4574 598.322C69.3228 599.528 68.7203 600.278 67.8889 600.541C68.5302 600.606 68.4543 603.523 67.4688 604.553C66.4832 605.583 66.0037 609.191 65.7419 609.987C65.4801 610.784 63.8481 617.721 62.2761 613.909C60.7042 610.097 63.5427 607.064 63.8123 604.605C64.082 602.146 63.0975 599.972 64.3486 599.03C63.5536 596.654 66.432 590.953 66.6886 588.906C66.9793 586.589 66.0065 584.978 67.8889 584.701C65.4349 583.268 66.1964 577.549 67.1389 574.246C68.3058 570.158 68.6122 568.125 69.4386 563.623C69.7967 562.584 65.4499 561.352 65.1122 562.875C64.7669 564.433 64.8803 564.345 64.4872 565.25C64.3668 565.527 64.2904 565.696 64.2439 565.795C64.2778 565.777 64.2495 566.001 63.8622 567.265C62.9562 570.222 61.0817 578.871 61.2926 579.59C61.4587 580.157 62.3741 583.004 59.3261 583.102C61.2891 586.244 55.4603 590.855 55.237 595.871C55.0568 599.918 55.1298 603.383 52.6882 604.062C54.8262 604.371 49.7012 615.496 48.5761 617.621C47.6881 619.298 46.2969 625.18 45.1057 624.871C43.5174 624.459 45.1058 618.621 45.1057 617.336C45.1056 614.699 46.7722 610.987 47.1486 608.271C47.5249 605.556 47.8579 604.026 49.1741 603.64C46.4007 602.361 48.8596 599.593 49.2807 598.659C49.7543 597.608 51.8269 592.213 51.3875 588.936C50.9481 585.659 51.3148 583.174 53.2011 582.621C49.0683 580.264 54.2559 576.247 55.237 573.628C56.3331 570.701 61.3652 557.639 63.1122 549.889C63.2223 549.4 63.3171 548.981 63.3984 548.623C62.7323 549.262 61.5915 550.435 61.6122 550.25C58.7372 549.75 54.2372 552.125 52.1122 558.125C51.0857 561.023 49.8173 564.453 49.326 565.898C48.8346 567.343 46.2425 574.73 46.0887 578.68C46.0027 580.89 44.9854 581.578 43.3769 581.442C45.2369 583.364 43.3918 585.973 42.9004 587.417C42.409 588.862 38.0825 593.494 38.413 598.214C38.5963 600.832 37.7246 601.474 36.4657 601.368C37.4886 604.439 34.2308 610.628 33.4681 613.371C32.7585 615.923 31.9241 620.272 31.2234 620.996C30.5227 621.72 30.4383 627.496 28.799 627.496C27.1598 627.496 28.9427 621.659 28.7991 620.269C28.6554 618.879 28.7991 614.621 29.4991 612.781C30.0681 611.284 31.1311 605.407 31.2234 603.037C31.3027 600.998 31.8898 600.043 32.9274 600.26C30.4712 599.312 32.4446 597.331 33.235 596.074C34.0362 594.8 36.162 585.731 36.123 584.701C36.0849 583.695 36.2267 579.035 39.0313 580.098C38.9027 580.044 38.7731 579.989 38.6425 579.933C34.4792 578.149 38.6425 573.628 38.7372 572.411C38.947 569.712 38.7372 566.375 38.3622 564.25L36.6122 560.5C35.3622 563.125 34.3622 564.25 32.9983 569.003C32.091 572.165 32.1238 572.928 29.9547 572.411C31.416 573.177 29.5294 576.912 28.4512 578.747C27.3731 580.583 24.8092 585.396 24.4512 587.773C24.1945 589.478 23.5251 590.782 21.9642 590.879C22.4011 591.369 21.7204 592.381 21.4512 594.246C21.182 596.112 19.971 605.121 18.9512 606.246C17.9314 607.371 17.2012 614.746 14.9512 614.747C12.7012 614.747 15.2947 607.105 14.9512 605.371C14.6077 603.637 16.9487 595.792 17.2012 594.246C17.4537 592.701 17.2024 589.389 18.6492 589.809C16.7704 588.38 18.8586 586.695 20.1595 583.848C21.5762 580.747 21.2749 581.187 22.3262 575.122C23.3775 569.057 23.8561 570.886 25.4066 570.872C22.7084 569.419 25.0366 565.479 29.9547 559.497C35.6185 552.608 42.1122 543.25 39.3622 532.125C36.3622 535.25 35.7258 534.154 32.9983 535.5L31.3622 538.625C29.8159 540.016 28.0465 541.683 27.4786 540.064C27.2774 541.172 26.4405 541.693 24.9531 541.499C23.4656 541.305 17.6053 543.956 15.7625 546.489C14.9895 547.551 14.1026 547.446 13.3202 546.851C12.3721 547.677 11.4114 548.622 9.73141 549.506C7.49141 550.684 5.45121 552.371 4.61359 551.275C3.77597 550.179 6.93493 548.636 7.81808 547.744C8.70123 546.851 9.56492 545.681 11.4114 544.031C11.3279 543.787 11.2729 543.565 11.2515 543.38C11.0735 541.844 16.5218 540.663 17.9067 539.709C19.2916 538.755 20.205 539.242 21.9724 536.321C23.7397 533.4 25.7124 535.674 25.9888 535.962C25.8429 535.626 25.7621 535.292 25.8093 534.93C25.987 533.566 27.6584 533.322 28.8755 532.682C32.9983 530.515 40.1122 527.125 51.4872 517.125L54.8622 518.25L82.1122 531.014Z"
       fill="#E0E0E0"
       id="path33" />
    <path
       d="M513.375 531.014C513.375 534.01 515.5 539.547 515.5 541.499C515.5 543.452 519.987 565.708 519.875 570.872C519.776 575.414 521.877 585.971 523 584.701C521.768 586.094 522.986 588.051 523.652 589.538C524.317 591.026 525.758 595.881 526.03 598.322C526.164 599.528 526.767 600.278 527.598 600.541C526.957 600.606 527.033 603.523 528.019 604.553C529.004 605.583 529.484 609.191 529.745 609.987C530.007 610.784 531.639 617.721 533.211 613.909C534.783 610.097 531.945 607.064 531.675 604.605C531.405 602.146 532.39 599.972 531.139 599.03C531.934 596.654 529.055 590.953 528.799 588.906C528.508 586.589 529.481 584.978 527.598 584.701C530.052 583.268 529.291 577.549 528.348 574.246C527.182 570.158 526.875 568.125 526.049 563.623C525.691 562.584 530.037 561.352 530.375 562.875C530.72 564.433 530.607 564.345 531 565.25C531.121 565.527 531.197 565.696 531.243 565.795C531.21 565.777 531.238 566.001 531.625 567.265C532.531 570.222 534.406 578.871 534.195 579.59C534.029 580.157 533.113 583.004 536.161 583.102C534.198 586.244 540.027 590.855 540.25 595.871C540.431 599.918 540.357 603.383 542.799 604.062C540.661 604.371 545.786 615.496 546.911 617.621C547.799 619.298 549.19 625.18 550.382 624.871C551.97 624.459 550.382 618.621 550.382 617.336C550.382 614.699 548.715 610.987 548.339 608.271C547.962 605.556 547.629 604.026 546.313 603.64C549.087 602.361 546.628 599.593 546.207 598.659C545.733 597.608 543.66 592.213 544.1 588.936C544.539 585.659 544.173 583.174 542.286 582.621C546.419 580.264 541.231 576.247 540.25 573.628C539.154 570.701 534.122 557.639 532.375 549.889C532.265 549.4 532.17 548.981 532.089 548.623C532.755 549.262 533.896 550.435 533.875 550.25C536.75 549.75 541.25 552.125 543.375 558.125C544.402 561.023 545.67 564.453 546.161 565.898C546.653 567.343 549.245 574.73 549.399 578.68C549.485 580.89 550.502 581.578 552.11 581.442C550.25 583.364 552.096 585.973 552.587 587.417C553.078 588.862 557.405 593.494 557.074 598.214C556.891 600.832 557.763 601.474 559.022 601.368C557.999 604.439 561.256 610.628 562.019 613.371C562.729 615.923 563.563 620.272 564.264 620.996C564.965 621.72 565.049 627.496 566.688 627.496C568.328 627.496 566.545 621.659 566.688 620.269C566.832 618.879 566.688 614.621 565.988 612.781C565.419 611.284 564.356 605.407 564.264 603.037C564.185 600.998 563.598 600.043 562.56 600.26C565.016 599.312 563.043 597.331 562.252 596.074C561.451 594.8 559.325 585.731 559.364 584.701C559.402 583.695 559.261 579.035 556.456 580.098C556.585 580.044 556.714 579.989 556.845 579.933C561.008 578.149 556.845 573.628 556.75 572.411C556.54 569.712 556.75 566.375 557.125 564.25L558.875 560.5C560.125 563.125 561.125 564.25 562.489 569.003C563.396 572.165 563.364 572.928 565.533 572.411C564.071 573.177 565.958 576.912 567.036 578.747C568.114 580.583 570.678 585.396 571.036 587.773C571.293 589.478 571.962 590.782 573.523 590.879C573.086 591.369 573.767 592.381 574.036 594.246C574.305 596.112 575.516 605.121 576.536 606.246C577.556 607.371 578.286 614.746 580.536 614.747C582.786 614.747 580.193 607.105 580.536 605.371C580.88 603.637 578.539 595.792 578.286 594.246C578.034 592.701 578.285 589.389 576.838 589.809C578.717 588.38 576.629 586.695 575.328 583.848C573.911 580.747 574.212 581.187 573.161 575.122C572.11 569.057 571.631 570.886 570.081 570.872C572.779 569.419 570.451 565.479 565.533 559.497C559.869 552.608 553.375 543.25 556.125 532.125C559.125 535.25 559.762 534.154 562.489 535.5L564.125 538.625C565.671 540.016 567.441 541.683 568.009 540.064C568.21 541.172 569.047 541.693 570.534 541.499C572.022 541.305 577.882 543.956 579.725 546.489C580.498 547.551 581.385 547.446 582.167 546.851C583.115 547.677 584.076 548.622 585.756 549.506C587.996 550.684 590.036 552.371 590.874 551.275C591.711 550.179 588.552 548.636 587.669 547.744C586.786 546.851 585.922 545.681 584.076 544.031C584.159 543.787 584.214 543.565 584.236 543.38C584.414 541.844 578.966 540.663 577.581 539.709C576.196 538.755 575.282 539.242 573.515 536.321C571.748 533.4 569.775 535.674 569.499 535.962C569.644 535.626 569.725 535.292 569.678 534.93C569.5 533.566 567.829 533.322 566.612 532.682C562.489 530.515 555.375 527.125 544 517.125L540.625 518.25L513.375 531.014Z"
       fill="#E0E0E0"
       id="path32" />
    <path
       d="M25.7373 526.875C27.4873 525.625 31.8623 523 36.3623 521.125C37.654 520.583 40.4873 519.425 41.4873 519.125C42.7373 518.75 49.2373 516.625 50.3623 515.125L87.7373 529.25C85.8623 533.75 86.3623 536.375 87.2373 542.5C88.1123 548.625 85.7373 556.125 84.6123 562.75C84.0473 566.077 83.1041 570.161 82.1309 573.75C81.1661 577.308 80.1718 580.381 79.4873 581.75C78.1123 584.5 75.2373 592.25 74.8623 594C74.4873 595.75 70.1123 609.25 69.4873 610.875C68.8623 612.5 66.2373 623.125 61.9873 622.625C58.8716 622.258 57.9729 620.347 57.8628 617.875C57.8227 616.975 57.8872 616.001 57.9873 615C58.1581 613.292 58.7177 610.781 59.3238 608.375C60.0486 605.498 60.84 602.771 61.1123 601.75C61.6123 599.875 62.3623 594.875 62.8623 593.125C63.3623 591.375 66.2373 584 64.8623 583.625C63.4873 583.25 62.1123 588.5 61.1123 591.375C60.1123 594.25 58.3623 601.75 57.8623 604.125C57.3623 606.5 54.7373 614.75 53.9873 617.875C53.4591 620.076 52.0628 628.726 48.7502 633.343C47.3595 635.281 45.6311 636.509 43.4873 636.25C40.5333 635.893 39.447 633.503 39.2728 630.5C39.0196 626.132 40.6957 620.467 41.3623 617.875C42.4873 613.5 42.6123 609.875 43.8623 603.625C45.1123 597.375 48.9873 584.375 49.3623 583.625C49.7373 582.875 48.4873 582.25 47.8623 582.875C47.2373 583.5 46.1123 587.375 44.7373 591.375C43.3623 595.375 39.2373 613.625 38.7373 615.625C38.2373 617.625 37.1123 624.375 36.4873 627.125C35.8623 629.875 34.3623 633.375 33.8623 634.25C33.7849 634.385 33.6805 634.557 33.5463 634.75C32.8141 635.804 31.1953 637.5 28.2373 637.5C25.6862 637.5 24.3968 635.707 23.8853 632.75C23.695 631.65 23.6123 630.389 23.6123 629C23.6123 623.875 25.4873 617.375 26.2373 613.25C26.9873 609.125 26.8623 607.125 27.7373 602.75C28.6123 598.375 32.3623 585.125 32.9873 582.5C33.6123 579.875 34.9873 577.25 35.2373 576.875C35.4873 576.5 34.6123 575.375 34.1123 576.25C33.6123 577.125 32.7373 579.5 30.4873 586C29.8761 587.766 29.2096 589.826 28.5529 591.922C26.7919 597.54 25.1015 603.407 24.7373 604.5C24.5648 605.017 24.3031 606.279 24.0239 607.75C23.4939 610.544 22.9011 614.095 22.7373 614.75C22.5789 615.383 21.8186 618.927 19.7571 621.375C18.5644 622.792 16.9363 623.842 14.7373 623.75C12.6807 623.664 11.52 622.595 10.8876 621.125C9.67508 618.307 10.4052 614.018 10.4873 612.375C10.6123 609.875 11.8623 602.875 12.8623 597.625C13.8623 592.375 15.8623 584 16.9873 579.5C18.1123 575 20.9873 563.125 22.7373 558.25C24.1373 554.35 26.904 548.042 28.1123 545.375C26.3623 545.375 22.6123 547 20.9873 548.125C19.3623 549.25 18.7373 551.125 15.7373 553.375C12.7373 555.625 7.3623 556.875 3.4873 555.375C2.15149 554.858 1.33556 553.984 0.901306 553C0.0758514 551.129 0.629395 548.858 1.6123 547.875C3.1123 546.375 5.2373 545 6.3623 543.875C6.58381 543.653 6.74714 543.447 6.87524 543.246C7.39777 542.426 7.33381 541.705 8.2373 540.5C9.3623 539 11.6123 536.875 13.3623 535.5C15.1123 534.125 18.8623 532.375 20.7373 531.25C22.6123 530.125 23.9873 528.125 25.7373 526.875Z"
       fill="#BDBDBD"
       id="path31" />
    <path
       d="M569.75 526.875C568 525.625 563.625 523 559.125 521.125C557.833 520.583 555 519.425 554 519.125C552.75 518.75 546.25 516.625 545.125 515.125L507.75 529.25C509.625 533.75 509.125 536.375 508.25 542.5C507.375 548.625 509.75 556.125 510.875 562.75C511.44 566.077 512.383 570.161 513.356 573.75C514.321 577.308 515.316 580.381 516 581.75C517.375 584.5 520.25 592.25 520.625 594C521 595.75 525.375 609.25 526 610.875C526.625 612.5 529.25 623.125 533.5 622.625C536.616 622.258 537.514 620.347 537.625 617.875C537.665 616.975 537.6 616.001 537.5 615C537.329 613.292 536.77 610.781 536.164 608.375C535.439 605.498 534.647 602.771 534.375 601.75C533.875 599.875 533.125 594.875 532.625 593.125C532.125 591.375 529.25 584 530.625 583.625C532 583.25 533.375 588.5 534.375 591.375C535.375 594.25 537.125 601.75 537.625 604.125C538.125 606.5 540.75 614.75 541.5 617.875C542.028 620.076 543.425 628.726 546.737 633.343C548.128 635.281 549.856 636.509 552 636.25C554.954 635.893 556.04 633.503 556.214 630.5C556.468 626.132 554.792 620.467 554.125 617.875C553 613.5 552.875 609.875 551.625 603.625C550.375 597.375 546.5 584.375 546.125 583.625C545.75 582.875 547 582.25 547.625 582.875C548.25 583.5 549.375 587.375 550.75 591.375C552.125 595.375 556.25 613.625 556.75 615.625C557.25 617.625 558.375 624.375 559 627.125C559.625 629.875 561.125 633.375 561.625 634.25C561.702 634.385 561.807 634.557 561.941 634.75C562.673 635.804 564.292 637.5 567.25 637.5C569.801 637.5 571.09 635.707 571.602 632.75C571.792 631.65 571.875 630.389 571.875 629C571.875 623.875 570 617.375 569.25 613.25C568.5 609.125 568.625 607.125 567.75 602.75C566.875 598.375 563.125 585.125 562.5 582.5C561.875 579.875 560.5 577.25 560.25 576.875C560 576.5 560.875 575.375 561.375 576.25C561.875 577.125 562.75 579.5 565 586C565.611 587.766 566.278 589.826 566.934 591.922C568.695 597.54 570.386 603.407 570.75 604.5C570.922 605.017 571.184 606.279 571.463 607.75C571.993 610.544 572.586 614.095 572.75 614.75C572.908 615.383 573.669 618.927 575.73 621.375C576.923 622.792 578.551 623.842 580.75 623.75C582.807 623.664 583.967 622.595 584.6 621.125C585.812 618.307 585.082 614.018 585 612.375C584.875 609.875 583.625 602.875 582.625 597.625C581.625 592.375 579.625 584 578.5 579.5C577.375 575 574.5 563.125 572.75 558.25C571.35 554.35 568.583 548.042 567.375 545.375C569.125 545.375 572.875 547 574.5 548.125C576.125 549.25 576.75 551.125 579.75 553.375C582.75 555.625 588.125 556.875 592 555.375C593.336 554.858 594.152 553.984 594.586 553C595.411 551.129 594.858 548.858 593.875 547.875C592.375 546.375 590.25 545 589.125 543.875C588.903 543.653 588.74 543.447 588.612 543.246C588.09 542.426 588.153 541.705 587.25 540.5C586.125 539 583.875 536.875 582.125 535.5C580.375 534.125 576.625 532.375 574.75 531.25C572.875 530.125 571.5 528.125 569.75 526.875Z"
       fill="#BDBDBD"
       id="path30" />
  </g>
  <g
     id="Triceps"
     inkscape:label="triceps">
    <path
       d="M181.016 254.75L177.266 252.25C175.866 253.25 162.432 259.917 155.891 263.125L149.641 277.75C147.432 282.667 142.516 293.45 140.516 297.25C138.016 302 141.266 306.25 143.016 308.625C144.766 311 149.391 313.5 151.391 313.5C153.391 313.5 159.016 307.375 167.391 298.5C174.091 291.4 180.682 282.458 183.141 278.875L181.016 254.75Z"
       fill="#BDBDBD"
       id="path51" />
    <path
       d="M185.641 305.125L183.266 279C180.807 281.958 174.891 289.175 170.891 294.375C166.891 299.575 158.474 307.625 154.766 311C153.599 312.208 150.866 314.325 149.266 313.125C148.141 319.75 142.641 337.25 136.891 351.375C131.147 365.485 131.889 372.61 132.514 378.606L132.516 378.625C133.141 384.625 133.891 384 134.891 389.125C135.891 394.25 136.141 397.375 134.516 401.125C133.216 404.125 133.557 405.792 133.891 406.25C134.724 406.583 136.741 406.775 138.141 404.875C139.891 402.5 144.141 397.875 147.766 394.875C151.391 391.875 154.391 386.375 155.641 381.875C156.641 378.275 161.557 370.292 163.891 366.75L174.766 346.5L179.766 335.5L184.516 322.125L185.641 315.5V305.125Z"
       fill="#BDBDBD"
       id="path50" />
    <path
       d="M414.5 254.75L418.25 252.25C419.65 253.25 433.083 259.917 439.625 263.125L445.875 277.75C448.083 282.667 453 293.45 455 297.25C457.5 302 454.25 306.25 452.5 308.625C450.75 311 446.125 313.5 444.125 313.5C442.125 313.5 436.5 307.375 428.125 298.5C421.425 291.4 414.833 282.458 412.375 278.875L414.5 254.75Z"
       fill="#BDBDBD"
       id="path48" />
    <path
       d="M409.875 305.125L412.25 279C414.708 281.958 420.625 289.175 424.625 294.375C428.625 299.575 437.042 307.625 440.75 311C441.917 312.208 444.65 314.325 446.25 313.125C447.375 319.75 452.875 337.25 458.625 351.375C464.369 365.485 463.627 372.61 463.002 378.606L463 378.625C462.375 384.625 461.625 384 460.625 389.125C459.625 394.25 459.375 397.375 461 401.125C462.3 404.125 461.958 405.792 461.625 406.25C460.792 406.583 458.775 406.775 457.375 404.875C455.625 402.5 451.375 397.875 447.75 394.875C444.125 391.875 441.125 386.375 439.875 381.875C438.875 378.275 433.958 370.292 431.625 366.75L420.75 346.5L415.75 335.5L411 322.125L409.875 315.5V305.125Z"
       fill="#BDBDBD"
       id="path47" />
    <path
       d="M148.391 280.25L155.891 263.125C151.182 265.125 140.816 270.15 137.016 274.25C133.216 278.35 127.516 288.792 125.141 293.5L121.266 301.625C120.724 303.333 119.266 307.75 117.766 311.75C115.891 316.75 110.266 333.75 108.391 342C106.526 350.204 106.639 353.093 106.886 359.395L106.891 359.5C107.141 365.875 109.766 376.25 110.766 379.375C111.766 382.5 113.891 387.25 115.141 387.25C116.391 387.25 117.266 377.375 116.641 369.375C116.016 361.375 120.516 348.5 126.766 336.625C131.766 327.125 138.849 316.583 141.766 312.5L143.766 309.375C139.866 305.275 139.391 301.167 139.641 299.625L148.391 280.25Z"
       fill="#BDBDBD"
       id="path49" />
    <path
       d="M447.125 280.25L439.625 263.125C444.333 265.125 454.7 270.15 458.5 274.25C462.3 278.35 468 288.792 470.375 293.5L474.25 301.625C474.792 303.333 476.25 307.75 477.75 311.75C479.625 316.75 485.25 333.75 487.125 342C488.99 350.204 488.876 353.093 488.629 359.395L488.625 359.5C488.375 365.875 485.75 376.25 484.75 379.375C483.75 382.5 481.625 387.25 480.375 387.25C479.125 387.25 478.25 377.375 478.875 369.375C479.5 361.375 475 348.5 468.75 336.625C463.75 327.125 456.667 316.583 453.75 312.5L451.75 309.375C455.65 305.275 456.125 301.167 455.875 299.625L447.125 280.25Z"
       fill="#BDBDBD"
       id="path46" />
  </g>
  <g
     id="Lats"
     inkscape:label="lats">
    <path
       d="M338.361 282.802C328.781 304.143 310.447 326.684 300.25 337.75C300.25 365.5 308.162 397.5 313.537 403.5C318.912 409.5 313.287 422.875 321.287 433.625C329.287 444.375 329.412 454.25 337.287 447.5C340.258 444.954 342.837 443.048 345.287 441.755C367.412 425.625 386.162 397.5 387.162 388.875C387.382 387.294 387.946 382.943 388.05 381.875C388.536 376.899 390.435 372.865 392.376 368.745L392.55 368.375C394.55 364.125 395.05 363.625 397.05 355.625C399.05 347.625 407.037 328.673 410.162 319.048C408.738 310.432 409.958 300.366 411.798 282.204C394.706 287.82 375.956 291.556 358.76 289.199C351.616 288.219 344.739 286.187 338.361 282.802Z"
       fill="#BDBDBD"
       id="path56" />
    <path
       d="m 256.926,282.802 c 9.58,21.341 27.914,43.882 38.111,54.948 0,27.75 -7.912,59.75 -13.287,65.75 -5.375,6 0.25,19.375 -7.75,30.125 -8,10.75 -8.125,20.625 -16,13.875 -2.971,-2.546 -5.55,-4.452 -8,-5.745 -22.125,-16.13 -40.875,-44.255 -41.875,-52.88 -0.22,-1.581 -0.784,-5.932 -0.888,-7 -0.486,-4.976 -2.385,-9.01 -4.326,-13.13 l -0.174,-0.37 c -2,-4.25 -2.5,-4.75 -4.5,-12.75 -2,-8 -9.987,-26.952 -13.112,-36.577 1.424,-8.616 0.204,-18.682 -1.636,-36.844 17.092,5.616 35.842,9.352 53.038,6.995 7.145,-0.98 14.021,-3.012 20.399,-6.397 z"
       fill="#bdbdbd"
       id="path57"
       style="display:inline" />
  </g>
  <g
     id="Shoulders"
     inkscape:label="shoulders">
    <path
       d="m 172.375,197.969 c -1.875,-1.75 -11.25,-5.125 -16.25,0 -2.142,2.041 -7.119,7.299 -9.888,12 -10.75,15.75 -11.75,37 -11.75,48 0,8.727 -0.41,17.029 -0.619,20.173 3.859,-6.539 12.415,-10.791 22.132,-15.321 6.916,-3.225 14.421,-6.59 21.239,-11.019 1.325,-0.861 2.623,-1.761 3.886,-2.708 17,-12.75 22.625,-25.875 34.25,-35.5 1.919,-1.589 3.136,-2.987 3.757,-4.234 3.14,-6.306 -8.98,-8.739 -22.757,-12.391 -16.5,-4.375 -22.125,2.75 -24,1 z"
       fill="#bdbdbd"
       id="path61"
       style="display:inline" />
    <path
       d="m 423.257,197.969 c 1.875,-1.75 11.251,-5.125 16.251,0 2.142,2.041 7.118,7.299 9.887,12 10.75,15.75 11.75,37 11.75,48 0,8.727 0.41,17.029 0.62,20.173 -3.859,-6.539 -12.415,-10.791 -22.132,-15.321 -6.916,-3.225 -14.421,-6.59 -21.24,-11.019 -1.324,-0.861 -2.622,-1.761 -3.886,-2.708 -17,-12.75 -22.624,-25.875 -34.249,-35.5 -1.919,-1.589 -3.137,-2.987 -3.757,-4.234 -3.141,-6.306 8.98,-8.739 22.757,-12.391 16.5,-4.375 22.124,2.75 23.999,1 z"
       fill="#bdbdbd"
       id="path60"
       style="display:inline" />
    <path
       d="M 180.125,208.749 C 177.544,218.75 168,227.875 163,233 c -2.142,2.042 -11.373,9.608 -15.875,13.625 -8.125,7.25 -12.875,17.781 -12.875,21.5 0,8.726 -0.176,7.039 -0.382,10.016 3.859,-6.538 12.415,-10.79 22.132,-15.321 6.916,-3.224 14.421,-6.589 21.239,-11.018 1.325,-0.861 2.623,-1.761 3.886,-2.709 17,-12.75 22.625,-25.875 34.25,-35.5 1.919,-1.588 3.137,-2.987 3.757,-4.233 3.14,-6.306 -8.981,-8.737 -22.757,-12.392 -12,-3.183 -15.25,7.907 -16.25,11.781 z"
       fill="#bdbdbd"
       id="path62"
       style="display:inline" />
    <path
       d="m 349.653,237.125 c -2.5,-16.75 1.75,-16.625 20.25,-25 21.625,-9.125 29.125,-4.875 48.875,-3.5 19.75,1.375 19.375,9 19.375,18.875 0,9.875 -15.005,22.347 -27.875,29.875 -1.946,1.138 -4.19,2.387 -6.625,3.702 11.625,-0.674 11.472,4.173 7.847,21.173 -3.502,16.422 -37.347,15 -44.972,13.5 -7.625,-1.5 -8.625,-8.375 -6.5,-12.068 -3.765,0.904 -5.002,-2.389 -6,-5.682 -1.25,-4.125 -1.875,-24.125 -4.375,-40.875 z"
       fill="#bdbdbd"
       id="path54"
       style="display:inline" />
    <path
       d="m 246,237.125 c 2.5,-16.75 -1.75,-16.625 -20.25,-25 -21.625,-9.125 -29.125,-4.875 -48.875,-3.5 -19.75,1.375 -19.375,9 -19.375,18.875 0,9.875 15.005,22.347 27.875,29.875 1.946,1.138 4.191,2.387 6.625,3.702 -13.25,-0.702 -10.25,5.673 -8.5,21.048 1.899,16.684 38,15.125 45.625,13.625 7.625,-1.5 8.625,-8.375 6.5,-12.068 3.766,0.904 5.002,-2.389 6,-5.682 1.25,-4.125 1.875,-24.125 4.375,-40.875 z"
       fill="#bdbdbd"
       id="path55"
       style="display:inline" />
  </g>
  <g
     id="Middle Back"
     inkscape:label="middle back"
     style="display:inline">
    <path
       d="m 339.3295,282.125 c -0.1,0.225 -0.2,0.451 -0.301,0.677 -9.58,21.341 -27.914,43.882 -38.111,54.948 -0.986,1.069 -1.895,2.031 -2.713,2.875 0.167,-29.405 0.772,-85.783 1.983,-118 l 65.517,-12.75 c 0.48,0.074 1.643,0.784 2.807,2.968 0.148,0.278 0.296,0.58 0.443,0.907 1.133,2.528 -7.401,20.44 -17.079,41.055 -4.199,8.943 -8.613,18.395 -12.546,27.32 z"
       fill="#bdbdbd"
       id="path70"
       style="display:inline" />
    <path
       d="m 256.424,282.125 c 0.099,0.225 0.2,0.451 0.301,0.677 9.58,21.341 27.914,43.882 38.111,54.948 0.985,1.069 1.895,2.031 2.713,2.875 -0.167,-29.405 -0.772,-85.783 -1.983,-118 l -65.517,-12.75 c -0.481,0.074 -1.643,0.784 -2.807,2.968 -0.148,0.278 -0.296,0.58 -0.443,0.907 -1.133,2.528 7.401,20.44 17.079,41.055 4.199,8.943 8.613,18.395 12.546,27.32 z"
       fill="#bdbdbd"
       id="path68"
       style="display:inline" />
    <path
       d="m 269.548,93.2498 c 1.125,-1.375 10.375,-0.375 18.75,-0.875 5.625,0 9.25,-3.875 9.25,10.8752 0,62.875 -15.25,60.75 -15.25,63.625 0,3.875 9.875,10.375 12.25,37 1.9,21.3 2.792,100.042 3,136.75 -0.818,-0.844 -1.728,-1.806 -2.713,-2.875 -10.197,-11.066 -28.531,-33.607 -38.111,-54.948 -0.101,-0.226 -0.202,-0.452 -0.301,-0.677 -3.933,-8.925 -8.347,-18.377 -12.546,-27.32 -9.678,-20.615 -18.212,-38.527 -17.079,-41.055 0.147,-0.327 0.295,-0.629 0.443,-0.907 1.164,-2.184 2.326,-2.894 2.807,-2.968 -3.25,-3.958 -12.95,-12.475 -25.75,-14.875 -15.956,-2.992 -37.008,-3.87 -29.067,-7.47 0.824,-0.332 1.675,-0.674 2.554,-1.03 14.5,-5.875 19.625,-3.5 33.75,-8.375 14.125,-4.875 26,-10.25 32.875,-14.25 L 253.548,158 c 5.431,-3.54 9.602,-8.961 12.651,-15.125 4.81,-9.725 8.078,-20.424 7.849,-29.375 -0.322,-12.568 -3.624,-18.2918 -4.5,-19.6467 -0.143,-0.2217 -0.158,-0.4102 0,-0.6035 z"
       fill="#bdbdbd"
       id="path67"
       style="display:inline" />
    <path
       d="m 325.713,93.2498 c -1.125,-1.375 -10.375,-0.375 -18.75,-0.875 -5.625,0 -9.25,-3.875 -9.25,10.8752 0,62.875 15.25,60.75 15.25,63.625 0,3.875 -9.875,10.375 -12.25,37 -1.9,21.3 -2.792,100.042 -3,136.75 0.818,-0.844 1.727,-1.806 2.713,-2.875 10.197,-11.066 28.531,-33.607 38.111,-54.948 0.101,-0.226 0.201,-0.452 0.301,-0.677 3.933,-8.925 8.347,-18.377 12.546,-27.32 9.678,-20.615 18.212,-38.527 17.079,-41.055 -0.147,-0.327 -0.295,-0.629 -0.443,-0.907 -1.164,-2.184 -2.327,-2.894 -2.807,-2.968 3.25,-3.958 12.95,-12.475 25.75,-14.875 15.955,-2.992 37.008,-3.87 29.067,-7.47 -0.824,-0.332 -1.675,-0.674 -2.554,-1.03 -14.5,-5.875 -19.625,-3.5 -33.75,-8.375 -14.125,-4.875 -26,-10.25 -32.875,-14.25 L 341.713,158 c -5.431,-3.54 -9.602,-8.961 -12.651,-15.125 -4.811,-9.725 -8.079,-20.424 -7.849,-29.375 0.322,-12.568 3.624,-18.2918 4.5,-19.6467 0.143,-0.2217 0.158,-0.4102 0,-0.6035 z"
       fill="#bdbdbd"
       id="path66"
       style="display:inline" />
  </g>
  <g
     id="Neck"
     inkscape:label="neck">
    <path
       d="m 325.749,93.2498 c -1.125,-1.375 -10.375,-0.375 -18.75,-0.875 -5.625,0 -9.25,-3.875 -9.25,10.8752 0,62.875 15.25,60.75 15.25,63.625 4.671,4.625 67.048,31.125 78,28.125 15.956,-2.992 37.008,-3.87 29.067,-7.47 -0.824,-0.332 -1.675,-0.674 -2.554,-1.03 -14.5,-5.875 -19.625,-3.5 -33.75,-8.375 -14.125,-4.875 -26,-10.25 -32.875,-14.25 L 341.749,158 c -5.431,-3.54 -9.602,-8.961 -12.651,-15.125 -4.81,-9.725 -8.078,-20.424 -7.849,-29.375 0.322,-12.568 3.624,-18.2918 4.5,-19.6467 0.143,-0.2217 0.158,-0.4102 0,-0.6035 z"
       fill="#bdbdbd"
       id="path74"
       style="display:inline" />
    <path
       d="m 269.548,93.2498 c 1.125,-1.375 10.375,-0.375 18.75,-0.875 5.625,0 9.25,-3.875 9.25,10.8752 0,62.875 -15.25,60.75 -15.25,63.625 -4.671,4.625 -67.048,31.125 -78,28.125 -15.956,-2.992 -37.008,-3.87 -29.067,-7.47 0.824,-0.332 1.675,-0.674 2.554,-1.03 14.5,-5.875 19.625,-3.5 33.75,-8.375 14.125,-4.875 26,-10.25 32.875,-14.25 L 253.548,158 c 5.431,-3.54 9.602,-8.961 12.651,-15.125 4.81,-9.725 8.078,-20.424 7.849,-29.375 -0.322,-12.568 -3.624,-18.2918 -4.5,-19.6467 -0.144,-0.2217 -0.158,-0.4102 0,-0.6035 z"
       fill="#bdbdbd"
       id="path72"
       style="display:inline" />
    <path
       d="m 273.875,120.267 c -0.75,4.625 -5,24.875 -17.125,35.125 L 258,152.267 V 94.2666 c 1.2,-1.3 4.167,-1.8748 5.5,-1.9997 0.875,-0.0833 3.3,0.1 6,1.5 4.625,4.75 5.125,21.8751 4.375,26.5001 z"
       fill="#bdbdbd"
       id="path53"
       style="display:inline" />
    <path
       d="m 321.5,120.375 c 0.75,4.625 5,24.875 17.125,35.125 l -1.25,-3.125 v -58 c -1.2,-1.3 -4.167,-1.8748 -5.5,-1.9997 -0.875,-0.0833 -3.3,0.1 -6,1.5 -4.625,4.75 -5.125,21.8747 -4.375,26.4997 z"
       fill="#bdbdbd"
       id="path52"
       style="display:inline" />
    <path
       d="m 312.957,88.4998 c -15.875,-2.25 -11.75,-14.75 -9.5,-30.75 1.839,-12.375 23.25,-4.25 30.25,0 7,4.25 4.5,12.375 1.125,22.75 -3.375,10.375 -6,10.25 -21.875,8 z"
       fill="#bdbdbd"
       id="path76"
       style="display:inline" />
    <path
       d="m 282.47,88.4998 c 15.875,-2.25 11.75,-14.75 9.5,-30.75 -1.84,-12.375 -23.25,-4.25 -30.25,0 -7,4.25 -4.5,12.375 -1.125,22.75 3.375,10.375 6,10.25 21.875,8 z"
       fill="#bdbdbd"
       id="path77"
       style="display:inline" />
  </g>
</svg>
