<?xml version="1.0" encoding="UTF-8" standalone="no"?>
<svg
   width="587"
   height="1137"
   viewBox="0 0 587 1137"
   fill="none"
   version="1.1"
   id="svg126"
   sodipodi:docname="frontModel.svg"
   inkscape:version="1.4 (e7c3feb1, 2024-10-09)"
   xmlns:inkscape="http://www.inkscape.org/namespaces/inkscape"
   xmlns:sodipodi="http://sodipodi.sourceforge.net/DTD/sodipodi-0.dtd"
   xmlns="http://www.w3.org/2000/svg"
   xmlns:svg="http://www.w3.org/2000/svg">
  <defs
     id="defs126" />
  <sodipodi:namedview
     id="namedview126"
     pagecolor="#ffffff"
     bordercolor="#000000"
     borderopacity="0.25"
     inkscape:showpageshadow="2"
     inkscape:pageopacity="0.0"
     inkscape:pagecheckerboard="0"
     inkscape:deskcolor="#d1d1d1"
     inkscape:zoom="0.5721132"
     inkscape:cx="93.512962"
     inkscape:cy="620.50657"
     inkscape:window-width="1712"
     inkscape:window-height="955"
     inkscape:window-x="0"
     inkscape:window-y="39"
     inkscape:window-maximized="1"
     inkscape:current-layer="svg126" />
  <path
     fill-rule="evenodd"
     clip-rule="evenodd"
     d="m 258.729,15.1991 c -7.794,7.7168 -12.099,16.6438 -13.641,21.4535 -1.223,3.8148 -1.612,10.448 -1.585,17.2549 0.026,6.7837 0.462,13.6625 0.857,17.9214 0.023,0.2454 -0.137,0.4707 -0.376,0.531 -0.239,0.0602 -0.486,-0.0627 -0.582,-0.2896 -0.274,-0.645 -0.817,-1.593 -1.539,-2.3215 -0.728,-0.7348 -1.549,-1.1637 -2.412,-1.0069 -0.984,0.179 -1.93,0.5773 -2.711,1.294 -0.778,0.7145 -1.422,1.7723 -1.761,3.3211 -0.205,0.9343 -0.299,2.0482 -0.243,3.3717 0.124,2.9091 0.558,6.4136 1.225,9.6388 0.67,3.2392 1.563,6.1409 2.582,7.8796 0.546,0.9302 1.094,2.0927 1.649,3.284 0.047,0.1003 0.094,0.2008 0.14,0.3014 0.514,1.1046 1.036,2.2265 1.58,3.2445 0.596,1.114 1.199,2.065 1.817,2.71 0.622,0.65 1.178,0.907 1.696,0.842 1.419,-0.177 2.184,-0.611 2.635,-1.05 0.423,-0.41 0.612,-0.858 0.792,-1.282 0.017,-0.04 0.033,-0.08 0.05,-0.119 0.029,-0.068 0.067,-0.145 0.116,-0.215 0.031,-0.044 0.15,-0.211 0.377,-0.25 0.304,-0.054 0.487,0.152 0.545,0.237 0.061,0.089 0.091,0.184 0.108,0.241 0.065,0.23 0.103,0.633 0.14,1.08 0.012,0.135 0.023,0.28 0.035,0.433 0.074,0.92 0.172,2.148 0.383,3.467 0.095,0.597 0.191,1.366 0.3,2.233 0.035,0.283 0.072,0.576 0.11,0.877 0.157,1.232 0.344,2.612 0.593,4.006 0.501,2.812 1.238,5.59 2.415,7.305 0.056,0.082 0.087,0.179 0.088,0.278 0.056,6.095 0.126,16.531 0.107,23.506 -0.009,3.455 -0.04,6.093 -0.109,6.916 -0.075,0.905 -0.601,1.824 -1.365,2.723 -0.773,0.909 -1.839,1.856 -3.094,2.819 -2.512,1.928 -5.849,3.972 -9.288,5.973 -6.911,4.022 -18.819,9.409 -32.963,14.291 -6.582,2.271 -11.23,2.98 -15.737,3.668 -0.362,0.055 -0.723,0.11 -1.084,0.166 -4.84,0.747 -9.705,1.614 -16.904,4.531 -0.803,0.326 -1.582,0.639 -2.338,0.943 l -0.525,0.212 c -6.289,2.532 -10.983,4.461 -15.358,7.573 -4.367,3.105 -8.441,7.408 -13.429,14.716 -10.656,15.612 -11.663,36.721 -11.663,47.718 0,8.813 -0.417,17.191 -0.626,20.284 -0.006,0.08 -0.03,0.158 -0.072,0.227 -1.83,2.993 -4.7,7.897 -7.361,12.875 -2.668,4.99 -5.104,10.012 -6.088,13.259 -0.854,2.821 -2.22,6.693 -3.728,10.971 -0.704,1.996 -1.439,4.081 -2.168,6.188 -2.298,6.643 -4.537,13.52 -5.592,18.671 -1.658,8.095 -3.413,11.18 -6.6545,16.881 -0.9505,1.671 -2.0288,3.567 -3.27,5.88 -0.4533,0.845 -0.9133,1.694 -1.3798,2.555 -5.1892,9.576 -11.1808,20.632 -17.7041,44.093 -3.5566,12.791 -6.0534,25.336 -8.1782,36.367 -0.1849,0.96 -0.367,1.908 -0.5468,2.845 -1.8836,9.81 -3.5118,18.291 -5.4039,24.426 -2.0666,6.701 -5.6016,16.742 -8.7588,25.292 -1.5789,4.276 1.1853,6.432 0.0232,9.364 -0.5809,1.466 -1.082,2.692 -1.4741,3.6 -0.1959,0.453 -0.3661,0.831 -0.5065,1.122 -0.1337,0.276 -0.2579,0.512 -0.3616,0.65 -0.1865,0.249 -0.46,0.481 -0.7655,0.696 -0.3108,0.219 -0.6817,0.437 -1.0864,0.651 -0.8095,0.428 -1.785,0.853 -2.7537,1.239 -1.9382,0.773 -3.89,1.402 -4.5257,1.593 -0.9685,0.29 -3.7727,1.436 -5.0753,1.982 l -0.0011,10e-4 c -4.4642,1.86 -8.8064,4.466 -10.5267,5.695 -0.7513,0.536 -1.4325,1.22 -2.1533,1.943 -0.0784,0.079 -0.1573,0.158 -0.2369,0.238 -0.7952,0.795 -1.6467,1.618 -2.6432,2.216 -0.6684,0.401 -1.5745,0.882 -2.531,1.389 -0.4034,0.215 -0.8159,0.434 -1.2232,0.653 -1.3956,0.753 -2.7331,1.515 -3.5691,2.172 -1.7324,1.361 -3.94532,3.456 -5.03391,4.907 -0.48792,0.651 -0.6633,1.135 -0.83883,1.62 l -0.02877,0.079 c -0.19717,0.542 -0.41535,1.091 -1.05385,1.73 -0.54479,0.544 -1.30612,1.139 -2.08691,1.748 l -0.19305,0.151 c -0.86179,0.674 -1.74469,1.375 -2.47004,2.101 -0.62036,0.62 -1.093285,1.957 -0.934926,3.339 0.153599,1.341 0.895046,2.666 2.636876,3.341 1.82715,0.707 4.04061,0.775 6.18196,0.381 2.14045,-0.395 4.15925,-1.244 5.58755,-2.315 1.4555,-1.092 2.333,-2.089 3.0549,-2.965 0.0886,-0.108 0.1758,-0.214 0.2622,-0.32 0.6066,-0.744 1.1743,-1.44 1.9483,-1.976 0.8538,-0.591 2.2343,-1.295 3.6136,-1.85 1.3624,-0.548 2.816,-0.989 3.796,-0.989 0.1699,0 0.3282,0.086 0.4202,0.229 0.0921,0.143 0.1054,0.323 0.0352,0.477 -1.2081,2.667 -3.9673,8.959 -5.3598,12.838 -1.54,4.29 -3.9642,14.064 -5.2836,19.384 -0.1705,0.688 -0.3226,1.301 -0.4519,1.818 -1.1247,4.499 -3.1218,12.862 -4.1189,18.098 -1.0034,5.267 -2.244,12.224 -2.3668,14.681 -0.0164,0.327 -0.0546,0.735 -0.0983,1.201 -0.134,1.428 -0.3189,3.399 -0.0772,5.24 0.1586,1.209 0.496,2.287 1.1073,3.07 0.5941,0.761 1.4778,1.283 2.8396,1.339 2.7201,0.114 4.5172,-1.684 5.7002,-3.777 1.0907,-1.93 1.5886,-3.994 1.7587,-4.7 0.0139,-0.057 0.0256,-0.106 0.0352,-0.144 0.0765,-0.306 0.2614,-1.332 0.4988,-2.665 l 0.065,-0.365 c 0.2206,-1.239 0.4751,-2.669 0.7167,-3.942 0.2765,-1.458 0.5446,-2.758 0.7303,-3.315 0.1456,-0.437 0.5009,-1.63 0.988,-3.264 0.732,-2.458 1.7618,-5.914 2.8248,-9.306 0.6574,-2.097 1.3255,-4.163 1.939,-5.936 1.1249,-3.249 1.9078,-5.473 2.4725,-6.994 0.5603,-1.51 0.9172,-2.361 1.1909,-2.84 0.1803,-0.316 0.456,-0.546 0.8166,-0.575 0.3324,-0.026 0.609,0.132 0.7905,0.29 0.1865,0.164 0.3358,0.38 0.4197,0.602 0.0736,0.195 0.1468,0.536 -0.0517,0.833 -0.1001,0.151 -0.4923,0.868 -0.9426,1.893 -0.4462,1.015 -0.9339,2.298 -1.237,3.571 -0.2173,0.913 -0.8082,3.095 -1.5226,5.734 -0.3201,1.182 -0.665,2.456 -1.0122,3.748 -1.1266,4.194 -2.2777,8.582 -2.7113,10.75 -0.4332,2.166 -0.6188,3.743 -0.7902,5.3 l -0.0364,0.332 c -0.1587,1.451 -0.32,2.925 -0.6718,4.859 -0.2071,1.14 -0.5043,2.48 -0.8223,3.915 -0.2563,1.156 -0.5261,2.373 -0.7733,3.595 -0.5611,2.775 -1.0213,5.641 -1.0213,8.151 0,2.544 0.2823,4.575 0.95,5.954 0.3298,0.681 0.7453,1.186 1.2522,1.522 0.5044,0.335 1.1316,0.524 1.9228,0.524 3.2295,0 4.7229,-2.179 5.1909,-2.998 0.4752,-0.832 1.9573,-4.285 2.5715,-6.988 0.3016,-1.327 0.7223,-3.602 1.1348,-5.832 l 0.033,-0.179 c 0.4201,-2.272 0.8299,-4.48 1.0847,-5.499 0.1085,-0.434 0.3878,-1.634 0.7732,-3.289 0.5007,-2.152 1.1806,-5.072 1.8974,-8.081 1.2626,-5.3 2.6442,-10.892 3.3417,-12.922 0.3426,-0.996 0.6698,-1.986 0.9784,-2.921 l 0.0639,-0.194 c 0.2845,-0.863 0.553,-1.677 0.8014,-2.4 0.2663,-0.776 0.5128,-1.456 0.7342,-1.986 0.1107,-0.264 0.2183,-0.499 0.3221,-0.692 0.0993,-0.185 0.213,-0.366 0.3443,-0.498 0.5048,-0.504 1.2221,-0.474 1.7021,-0.234 0.247,0.124 0.481,0.324 0.6137,0.6 0.1406,0.292 0.1485,0.634 -0.0151,0.962 l -7e-4,10e-4 c -0.0011,0.002 -0.0034,0.007 -0.0069,0.016 -0.0051,0.012 -0.0115,0.027 -0.0194,0.047 -0.0158,0.041 -0.0355,0.094 -0.0592,0.16 -0.0472,0.132 -0.1072,0.309 -0.1787,0.526 -0.1428,0.435 -0.3287,1.026 -0.546,1.735 -0.4344,1.418 -0.9921,3.305 -1.5772,5.365 -1.1717,4.124 -2.448,8.92 -3.0688,12.024 -0.5653,2.826 -0.8992,5.112 -1.202,7.185 -0.0304,0.208 -0.0605,0.414 -0.0905,0.618 -0.3283,2.235 -0.6439,4.258 -1.2135,6.474 -0.074,0.287 -0.1597,0.61 -0.2534,0.964 -0.6269,2.364 -1.6091,6.068 -1.8099,9.441 -0.1155,1.94 0.0336,3.705 0.6127,5.018 0.5625,1.276 1.53,2.135 3.1512,2.331 1.594,0.192 2.9592,-0.535 4.1586,-1.897 1.2068,-1.371 2.1968,-3.336 3.0011,-5.471 1.2722,-3.376 2.0369,-7.045 2.4926,-9.232 0.1211,-0.581 0.2204,-1.057 0.3016,-1.396 0.3639,-1.516 1.1613,-4.214 1.9416,-6.855 l 0.0964,-0.326 c 0.8162,-2.763 1.5892,-5.393 1.8339,-6.555 0.4995,-2.372 2.2552,-9.902 3.2671,-12.811 0.1703,-0.49 0.3564,-1.065 0.5539,-1.675 0.3653,-1.129 0.7699,-2.379 1.1875,-3.438 0.3232,-0.82 0.6725,-1.576 1.0453,-2.111 0.1857,-0.266 0.3987,-0.509 0.6446,-0.672 0.2566,-0.169 0.576,-0.267 0.9225,-0.172 0.44,0.12 0.6191,0.508 0.6865,0.821 0.069,0.319 0.0608,0.708 0.0169,1.112 -0.0889,0.816 -0.3454,1.862 -0.6515,2.922 -0.308,1.066 -0.6742,2.173 -0.9929,3.117 -0.0659,0.195 -0.1294,0.382 -0.1898,0.561 -0.2355,0.694 -0.424,1.25 -0.52,1.586 -0.2416,0.846 -0.5491,2.503 -0.864,4.219 l -0.0355,0.193 c -0.2989,1.63 -0.6014,3.28 -0.8482,4.205 -0.0799,0.299 -0.2018,0.737 -0.3523,1.277 -0.3721,1.334 -0.9185,3.293 -1.4344,5.341 -0.6064,2.407 -1.1572,4.886 -1.3239,6.553 -0.1881,1.881 -0.2336,3.553 0.2363,4.806 0.2292,0.611 0.578,1.112 1.0924,1.492 0.5175,0.382 1.2338,0.663 2.2322,0.78 0.8265,0.098 1.6391,-0.334 2.4464,-1.233 0.803,-0.895 1.524,-2.173 2.1491,-3.554 0.6221,-1.375 1.1352,-2.821 1.5333,-4.031 0.1691,-0.513 0.3206,-0.995 0.4511,-1.411 0.1697,-0.54 0.3039,-0.966 0.395,-1.204 0.3061,-0.795 1.5508,-4.559 2.7719,-8.363 1.2242,-3.814 2.4002,-7.593 2.5809,-8.437 0.1968,-0.918 -0.9755,-3.331 -0.0418,-5.821 0.9377,-2.5 1.2581,-5.147 1.9585,-6.548 0.6589,-1.318 1.642,-4.343 2.6082,-7.907 0.9703,-3.578 1.9095,-7.646 2.4711,-10.953 0.2832,-1.667 0.6446,-3.388 1.0116,-5.117 l 0.0641,-0.302 c 0.3467,-1.634 0.6948,-3.273 0.9876,-4.898 0.6228,-3.456 -0.2578,-6.757 -0.6836,-9.737 -0.0421,-0.295 -0.0834,-0.582 -0.1237,-0.862 -0.7942,-5.517 0.0584,-8.272 1.9004,-12.692 0.6973,-1.674 1.4366,-3.576 2.181,-5.49 1.2354,-3.178 2.4849,-6.391 3.5802,-8.66 0.0784,-0.163 0.1657,-0.345 0.2627,-0.548 2.0806,-4.347 7.1109,-16.243 25.2897,-40.163 18.962,-24.95 30.924,-53.006 34.157,-69.667 2.599,-13.396 4.749,-25.576 5.498,-29.989 0.01,-0.06 0.031,-0.117 0.062,-0.17 11.309,-19.185 19.926,-35.25 24.97,-53.132 0.06,-0.212 0.251,-0.36 0.471,-0.364 0.221,-0.004 0.418,0.136 0.486,0.346 1.316,4.053 3.475,9.667 5.686,15.417 0.406,1.054 0.813,2.113 1.217,3.167 2.6,6.787 5.077,13.413 6.086,17.449 0.999,3.997 1.618,6.098 2.233,7.726 0.461,1.222 0.919,2.178 1.544,3.483 0.209,0.436 0.437,0.911 0.69,1.449 l 0.188,0.398 c 1.932,4.104 3.864,8.204 4.358,13.266 0.103,1.057 0.281,2.398 0.502,3.98 0.057,0.409 0.116,0.833 0.178,1.272 0.843,6.003 2.072,14.756 2.072,23.922 0,6.175 -1.142,11.913 -2.253,17.503 l -0.038,0.188 c -1.126,5.664 -2.208,11.174 -2.084,16.923 0.08,3.74 0.187,6.794 0.294,9.365 0.073,1.767 0.148,3.31 0.214,4.693 0.137,2.845 0.242,5.016 0.242,7.078 0,1.203 -0.332,2.639 -0.837,4.341 -0.298,1.006 -0.666,2.133 -1.073,3.381 -0.282,0.865 -0.584,1.789 -0.895,2.772 -1.526,4.827 -3.329,11.235 -4.449,19.821 -0.861,6.599 -1.704,11.464 -2.458,15.548 -0.178,0.961 -0.35,1.879 -0.517,2.764 -0.541,2.879 -1.019,5.422 -1.406,8.07 -0.313,2.138 -0.565,4.342 -0.741,6.838 -10e-4,0.015 -0.003,0.03 -0.006,0.045 -2.871,17.754 -8.656,58.643 -8.855,80.3 -0.178,19.274 0.906,41.235 1.639,56.07 0.298,6.039 0.538,10.898 0.611,13.913 0.249,10.349 1.621,24.682 5.108,37.632 0.331,1.23 0.688,2.478 1.064,3.737 0.895,3 1.893,6.063 2.893,9.11 l 0.238,0.726 c 0.919,2.801 1.833,5.584 2.657,8.28 1.788,5.846 3.175,11.334 3.29,15.764 0.118,4.569 -0.571,7.485 -1.351,10.782 -0.054,0.228 -0.108,0.457 -0.162,0.689 -0.839,3.572 -1.738,7.784 -1.862,15.175 -0.25,14.855 0.624,30.089 0.874,34.086 0.018,0.296 -0.011,0.749 -0.07,1.312 -0.06,0.573 -0.155,1.293 -0.278,2.14 -0.248,1.695 -0.612,3.918 -1.051,6.533 -0.163,0.972 -0.336,1.998 -0.517,3.073 -0.795,4.71 -1.745,10.341 -2.667,16.33 -2.267,14.728 -4.35,31.547 -3.543,42.105 1.396,18.253 6.488,50.279 9.716,70.586 0.526,3.306 1.002,6.3 1.405,8.875 0.423,2.702 0.914,5.718 1.439,8.948 1.26,7.739 2.719,16.707 3.922,25.534 1.702,12.49 2.898,24.76 2.268,32.88 -0.625,8.07 -1.063,12.36 -1.345,15.08 l -0.021,0.21 c -0.266,2.57 -0.382,3.69 -0.382,5.42 0,1.65 0.372,3.7 0.782,5.96 l 0.085,0.47 c 0.436,2.42 0.883,5.02 0.883,7.45 0,1.79 0.089,3.4 0.167,4.79 0.024,0.44 0.048,0.87 0.067,1.26 0.039,0.83 0.059,1.56 0.029,2.18 -0.03,0.62 -0.112,1.17 -0.308,1.6 -0.268,0.59 -0.687,1.18 -1.133,1.82 -0.115,0.16 -0.232,0.32 -0.348,0.49 -0.584,0.85 -1.218,1.85 -1.761,3.17 -0.432,1.06 -0.611,2.03 -0.789,2.99 -0.045,0.24 -0.089,0.48 -0.137,0.72 -0.24,1.2 -0.573,2.39 -1.526,3.55 -0.498,0.6 -1.362,1.28 -2.376,2.04 -0.235,0.17 -0.481,0.36 -0.736,0.54 -2.952,2.19 -7.085,5.26 -9.845,9.86 -2.023,3.37 -2.972,6.74 -3.324,9.55 -0.353,2.83 -0.101,5.06 0.247,6.16 0.178,0.57 0.348,0.92 0.493,1.14 0.141,0.22 0.266,0.33 0.381,0.43 0.097,0.08 0.307,0.23 0.444,0.45 0.153,0.24 0.205,0.53 0.205,0.88 0,0.52 0.243,1.39 0.731,2.14 0.487,0.74 1.135,1.24 1.894,1.24 0.975,0 1.705,-0.09 2.191,-0.23 0.243,-0.07 0.403,-0.15 0.497,-0.21 0.053,-0.04 0.074,-0.06 0.08,-0.07 0.064,-0.23 0.282,-0.38 0.52,-0.36 0.243,0.02 0.438,0.21 0.46,0.45 0.08,0.88 0.255,1.66 0.549,2.23 0.288,0.57 0.661,0.88 1.149,0.95 1.27,0.18 2.411,0.14 3.272,-0.11 0.857,-0.26 1.37,-0.7 1.554,-1.3 0.068,-0.22 0.28,-0.36 0.511,-0.35 0.232,0.02 0.422,0.19 0.46,0.42 0.143,0.86 0.461,1.62 1.014,2.17 0.543,0.53 1.363,0.91 2.618,0.91 1.218,0 2.045,-0.39 2.616,-0.95 0.582,-0.57 0.935,-1.35 1.123,-2.16 0.059,-0.26 0.307,-0.43 0.566,-0.38 0.26,0.04 0.443,0.27 0.419,0.54 -0.093,1.02 0.08,2.56 0.875,3.82 0.773,1.23 2.166,2.25 4.651,2.25 1.577,0 2.653,-0.36 3.399,-0.87 0.747,-0.51 1.205,-1.19 1.498,-1.91 0.295,-0.72 0.417,-1.45 0.496,-2.05 0.011,-0.09 0.022,-0.18 0.032,-0.26 0.025,-0.2 0.047,-0.38 0.072,-0.52 0.018,-0.1 0.043,-0.22 0.081,-0.32 0.028,-0.08 0.109,-0.28 0.323,-0.39 0.352,-0.17 0.848,-0.24 1.255,-0.24 0.212,0 0.428,0.02 0.619,0.06 0.166,0.04 0.407,0.11 0.578,0.28 0.122,0.12 0.158,0.27 0.171,0.32 0.017,0.08 0.025,0.16 0.029,0.23 0.007,0.15 0.004,0.32 -0.001,0.51 -0.01,0.38 -0.028,0.86 -0.006,1.38 0.046,1.06 0.262,2.14 0.932,2.81 0.772,0.77 1.711,1.47 3.066,1.96 1.36,0.49 3.166,0.76 5.681,0.64 6.215,-0.3 9.929,-3.94 12.157,-7.71 1.908,-3.23 2.694,-6.49 3.012,-7.81 0.055,-0.23 0.096,-0.4 0.127,-0.5 0.052,-0.17 0.139,-0.4 0.245,-0.67 0.713,-1.85 2.266,-5.88 -0.451,-10.69 -0.433,-0.76 -0.829,-1.44 -1.187,-2.06 -0.6,-1.03 -1.09,-1.87 -1.451,-2.6 -0.293,-0.59 -0.515,-1.13 -0.654,-1.67 -0.359,-1.4 -0.121,-2.68 0.637,-4.6 0.413,-1.05 0.904,-2.09 1.402,-3.14 l 0.129,-0.27 c 0.457,-0.96 0.916,-1.92 1.332,-2.91 0.91,-2.16 1.602,-4.4 1.602,-6.87 0,-2.51 -0.335,-3.93 -0.654,-5.1 -0.032,-0.12 -0.065,-0.24 -0.097,-0.35 -0.29,-1.05 -0.558,-2.01 -0.499,-3.45 0.029,-0.7 0.104,-1.84 0.198,-3.28 0.315,-4.81 0.84,-12.87 0.553,-18.04 -0.091,-1.63 -0.54,-3.68 -1.174,-6.08 -0.316,-1.2 -0.676,-2.48 -1.056,-3.83 -0.38,-1.36 -0.781,-2.78 -1.176,-4.27 -1.582,-5.95 -3.096,-12.91 -2.97,-20.23 0.251,-14.54 4.381,-48.218 11.774,-71.024 7.346,-22.659 6.975,-41.834 5.602,-58.806 -0.501,-6.196 -1.885,-13 -3.298,-19.95 -0.518,-2.544 -1.039,-5.108 -1.523,-7.669 -1.796,-9.515 -3.066,-18.974 -1.546,-27.014 1.507,-7.976 3.705,-14.474 5.674,-20.18 l 0.227,-0.654 c 1.879,-5.44 3.501,-10.133 4.094,-14.762 0.621,-4.841 0.777,-12.714 0.918,-19.883 l 10e-4,-0.045 c 0.07,-3.559 0.136,-6.94 0.255,-9.667 0.06,-1.368 0.133,-2.578 0.227,-3.567 0.093,-0.978 0.21,-1.773 0.366,-2.293 0.304,-1.013 0.798,-3.471 1.367,-6.693 1.465,-8.293 3.379,-21.389 3.738,-26.945 0.172,-2.662 1.149,-7.888 2.451,-14.072 1.305,-6.197 2.946,-13.399 4.46,-20.041 l 0.001,-0.007 0.304,-1.334 c 1.334,-5.856 2.541,-11.178 3.293,-14.864 0.223,-1.091 0.472,-2.286 0.741,-3.578 2.757,-13.236 7.612,-36.541 7.499,-59.945 v -13.093 c 0,-0.143 0.061,-0.28 0.169,-0.375 0.107,-0.094 0.25,-0.139 0.393,-0.121 1.113,0.139 2.299,0.212 3.563,0.212 1.263,0 2.449,-0.073 3.563,-0.212 0.142,-0.018 0.285,0.027 0.393,0.121 0.107,0.095 0.169,0.232 0.169,0.375 v 13.093 c -0.114,23.404 4.742,46.709 7.499,59.945 0.269,1.292 0.518,2.487 0.741,3.578 0.752,3.686 1.958,9.008 3.292,14.864 l 0.304,1.334 0.002,0.007 c 1.513,6.642 3.154,13.844 4.459,20.041 1.303,6.184 2.28,11.41 2.452,14.072 0.358,5.556 2.273,18.652 3.737,26.945 0.569,3.222 1.064,5.68 1.368,6.693 0.156,0.52 0.272,1.315 0.366,2.293 0.094,0.989 0.167,2.199 0.227,3.567 0.119,2.727 0.185,6.108 0.255,9.667 l 10e-4,0.045 c 0.141,7.169 0.297,15.042 0.918,19.883 0.593,4.629 2.215,9.322 4.094,14.762 l 0.226,0.654 c 1.97,5.706 4.168,12.204 5.675,20.18 1.519,8.04 0.25,17.499 -1.547,27.014 -0.483,2.561 -1.005,5.125 -1.522,7.669 -1.414,6.95 -2.798,13.754 -3.299,19.95 -1.373,16.972 -1.743,36.147 5.602,58.806 7.394,22.806 11.524,56.484 11.775,71.024 0.126,7.32 -1.388,14.28 -2.97,20.23 -0.396,1.49 -0.796,2.91 -1.176,4.27 l -0.025,0.08 c -0.371,1.33 -0.722,2.58 -1.031,3.75 -0.635,2.4 -1.083,4.45 -1.174,6.08 -0.288,5.17 0.238,13.23 0.553,18.04 0.093,1.44 0.168,2.58 0.197,3.28 0.06,1.44 -0.208,2.4 -0.499,3.45 -0.032,0.11 -0.064,0.23 -0.096,0.35 -0.32,1.17 -0.654,2.59 -0.654,5.1 0,2.47 0.691,4.71 1.601,6.87 0.417,0.99 0.875,1.95 1.333,2.91 l 0.129,0.27 c 0.497,1.05 0.989,2.09 1.402,3.14 0.758,1.92 0.996,3.2 0.636,4.6 -0.138,0.54 -0.36,1.08 -0.653,1.67 -0.362,0.73 -0.851,1.57 -1.452,2.6 -0.357,0.62 -0.754,1.3 -1.186,2.06 -2.718,4.81 -1.164,8.84 -0.451,10.69 0.105,0.27 0.193,0.5 0.245,0.67 0.03,0.1 0.072,0.27 0.127,0.5 0.318,1.32 1.104,4.58 3.012,7.81 2.228,3.77 5.941,7.41 12.156,7.71 2.515,0.12 4.322,-0.15 5.682,-0.64 1.354,-0.49 2.294,-1.19 3.065,-1.96 0.671,-0.67 0.886,-1.75 0.932,-2.81 0.02,-0.45 0.008,-0.87 -0.002,-1.23 l -0.004,-0.15 c -0.005,-0.19 -0.008,-0.36 0,-0.51 0.004,-0.07 0.012,-0.15 0.029,-0.23 0.013,-0.05 0.049,-0.2 0.17,-0.32 0.172,-0.17 0.413,-0.24 0.579,-0.28 0.191,-0.04 0.407,-0.06 0.619,-0.06 0.406,0 0.903,0.07 1.254,0.24 0.215,0.11 0.296,0.31 0.324,0.39 0.038,0.1 0.062,0.22 0.08,0.32 0.036,0.2 0.067,0.49 0.105,0.78 0.079,0.6 0.201,1.33 0.496,2.05 0.293,0.72 0.751,1.4 1.497,1.91 0.746,0.51 1.822,0.87 3.4,0.87 2.485,0 3.878,-1.02 4.651,-2.25 0.795,-1.26 0.968,-2.8 0.874,-3.82 -0.023,-0.27 0.16,-0.5 0.419,-0.54 0.26,-0.05 0.507,0.12 0.566,0.38 0.189,0.81 0.542,1.59 1.124,2.16 0.571,0.56 1.398,0.95 2.616,0.95 1.233,0 2.051,-0.38 2.599,-0.92 0.558,-0.55 0.883,-1.32 1.033,-2.17 0.041,-0.22 0.231,-0.39 0.462,-0.41 0.23,-0.01 0.441,0.13 0.509,0.35 0.183,0.6 0.697,1.04 1.554,1.3 0.861,0.25 2.002,0.29 3.272,0.11 0.464,-0.07 0.837,-0.38 1.132,-0.96 0.298,-0.58 0.48,-1.37 0.566,-2.23 0.025,-0.24 0.22,-0.43 0.462,-0.44 0.238,-0.02 0.454,0.13 0.517,0.36 0.007,0.01 0.027,0.03 0.08,0.07 0.095,0.06 0.255,0.14 0.498,0.21 0.485,0.14 1.216,0.23 2.191,0.23 0.759,0 1.407,-0.5 1.894,-1.24 0.487,-0.75 0.731,-1.62 0.731,-2.14 0,-0.35 0.052,-0.64 0.205,-0.88 0.117,-0.19 0.287,-0.33 0.395,-0.41 0.018,-0.02 0.034,-0.03 0.048,-0.04 0.116,-0.1 0.241,-0.21 0.381,-0.43 0.145,-0.22 0.316,-0.57 0.494,-1.14 0.347,-1.1 0.6,-3.33 0.246,-6.16 -0.352,-2.81 -1.301,-6.18 -3.323,-9.55 -2.76,-4.6 -6.894,-7.67 -9.846,-9.86 -0.254,-0.18 -0.5,-0.37 -0.735,-0.54 -1.014,-0.76 -1.878,-1.44 -2.376,-2.04 -0.954,-1.16 -1.286,-2.35 -1.526,-3.55 -0.048,-0.24 -0.093,-0.48 -0.137,-0.72 -0.179,-0.96 -0.357,-1.93 -0.789,-2.99 -0.543,-1.32 -1.177,-2.32 -1.761,-3.17 -0.117,-0.17 -0.233,-0.33 -0.348,-0.49 -0.447,-0.64 -0.866,-1.23 -1.133,-1.82 -0.197,-0.43 -0.278,-0.98 -0.308,-1.6 -0.031,-0.62 -0.01,-1.35 0.029,-2.18 0.019,-0.39 0.042,-0.82 0.067,-1.26 0.078,-1.39 0.167,-3 0.167,-4.79 0,-2.43 0.446,-5.03 0.883,-7.45 l 0.085,-0.47 c 0.41,-2.26 0.782,-4.31 0.782,-5.96 0,-1.73 -0.116,-2.85 -0.382,-5.42 l -0.022,-0.21 c -0.281,-2.72 -0.719,-7.01 -1.345,-15.08 -0.629,-8.12 0.566,-20.39 2.269,-32.88 1.202,-8.827 2.662,-17.794 3.921,-25.533 0.526,-3.23 1.017,-6.247 1.44,-8.949 0.403,-2.575 0.879,-5.57 1.404,-8.876 3.229,-20.307 8.32,-52.332 9.716,-70.585 0.808,-10.558 -1.275,-27.377 -3.542,-42.105 -0.922,-5.987 -1.872,-11.616 -2.666,-16.326 -0.182,-1.076 -0.355,-2.104 -0.519,-3.077 -0.438,-2.615 -0.803,-4.838 -1.05,-6.533 -0.124,-0.847 -0.218,-1.567 -0.279,-2.14 -0.059,-0.563 -0.088,-1.016 -0.069,-1.312 0.25,-3.997 1.124,-19.231 0.874,-34.086 -0.124,-7.391 -1.023,-11.603 -1.862,-15.175 -0.054,-0.232 -0.109,-0.461 -0.162,-0.689 -0.78,-3.297 -1.47,-6.213 -1.351,-10.782 0.115,-4.43 1.502,-9.918 3.29,-15.764 0.824,-2.695 1.737,-5.478 2.656,-8.279 l 0.239,-0.727 c 1,-3.047 1.998,-6.11 2.893,-9.11 0.376,-1.259 0.733,-2.507 1.064,-3.737 3.487,-12.95 4.859,-27.283 5.108,-37.632 0.073,-3.015 0.313,-7.873 0.611,-13.913 0.732,-14.835 1.817,-36.796 1.639,-56.07 -0.2,-21.657 -5.984,-62.546 -8.856,-80.3 -0.002,-0.015 -0.004,-0.03 -0.005,-0.045 -0.176,-2.496 -0.429,-4.7 -0.741,-6.838 -0.387,-2.648 -0.865,-5.191 -1.407,-8.07 -0.166,-0.885 -0.339,-1.803 -0.516,-2.764 -0.755,-4.084 -1.597,-8.949 -2.458,-15.548 -1.12,-8.586 -2.924,-14.994 -4.45,-19.821 -0.311,-0.983 -0.612,-1.907 -0.894,-2.772 -0.408,-1.249 -0.775,-2.375 -1.073,-3.381 -0.505,-1.702 -0.837,-3.138 -0.837,-4.341 0,-2.061 0.104,-4.233 0.241,-7.077 0.067,-1.384 0.141,-2.927 0.215,-4.694 0.107,-2.571 0.213,-5.625 0.294,-9.365 0.124,-5.749 -0.958,-11.259 -2.084,-16.923 l -0.038,-0.188 c -1.112,-5.59 -2.253,-11.328 -2.253,-17.503 0,-9.166 1.229,-17.919 2.072,-23.921 0.061,-0.439 0.121,-0.864 0.178,-1.273 0.22,-1.582 0.399,-2.923 0.502,-3.98 0.494,-5.062 2.425,-9.162 4.358,-13.266 l 0.013,-0.028 0.174,-0.37 c 0.253,-0.538 0.481,-1.013 0.691,-1.45 0.625,-1.304 1.083,-2.26 1.544,-3.482 0.614,-1.628 1.234,-3.729 2.233,-7.726 1.009,-4.036 3.486,-10.662 6.086,-17.449 0.404,-1.054 0.811,-2.113 1.217,-3.167 2.211,-5.75 4.37,-11.364 5.686,-15.417 0.068,-0.21 0.265,-0.35 0.485,-0.346 0.221,0.004 0.412,0.152 0.472,0.364 5.043,17.882 13.661,33.947 24.97,53.132 0.018,0.031 0.032,0.063 0.043,0.097 0.008,0.024 0.014,0.048 0.019,0.073 0.749,4.413 2.898,16.593 5.498,29.989 3.233,16.661 15.195,44.717 34.157,69.667 18.178,23.92 24.709,37.566 26.789,41.913 0.097,0.203 0.185,0.385 0.263,0.548 1.095,2.269 2.345,5.483 3.58,8.66 0.745,1.915 1.484,3.816 2.181,5.49 1.842,4.42 1.452,7.134 0.658,12.651 -0.041,0.28 -0.082,0.567 -0.124,0.862 -0.426,2.98 -0.063,6.322 0.559,9.778 0.293,1.624 0.641,3.264 0.988,4.896 l 0.064,0.304 c 0.367,1.729 0.729,3.45 1.012,5.117 0.561,3.307 0.649,4.755 1.619,8.334 0.966,3.564 1.11,6.735 1.769,8.053 0.701,1.401 0.442,4.167 1.38,6.668 0.934,2.489 0.781,5.256 0.978,6.174 0.18,0.844 1.356,4.623 2.581,8.437 1.221,3.804 2.465,7.568 2.771,8.363 0.092,0.237 0.226,0.664 0.395,1.203 0.131,0.416 0.282,0.898 0.452,1.412 0.398,1.21 0.911,2.656 1.533,4.031 0.625,1.381 1.346,2.659 2.149,3.554 0.807,0.899 1.62,1.331 2.446,1.233 0.999,-0.117 1.715,-0.398 2.233,-0.78 0.514,-0.38 0.863,-0.881 1.092,-1.492 0.47,-1.253 0.424,-2.925 0.236,-4.806 -0.166,-1.667 -0.717,-4.146 -1.324,-6.553 -0.515,-2.048 -1.062,-4.007 -1.434,-5.342 -0.15,-0.539 -0.272,-0.977 -0.352,-1.276 -0.247,-0.926 -0.55,-2.579 -0.849,-4.21 l -0.035,-0.188 c -0.315,-1.716 -0.622,-3.373 -0.864,-4.219 -0.096,-0.335 -0.284,-0.891 -0.519,-1.584 -0.061,-0.179 -0.125,-0.367 -0.191,-0.563 -0.318,-0.944 -0.685,-2.051 -0.993,-3.117 -0.306,-1.06 -0.562,-2.106 -0.651,-2.922 -0.044,-0.404 -0.052,-0.793 0.017,-1.112 0.067,-0.313 0.246,-0.701 0.686,-0.821 0.347,-0.095 0.666,0.003 0.923,0.172 0.246,0.163 0.459,0.406 0.644,0.672 0.373,0.535 0.722,1.291 1.046,2.111 0.417,1.059 0.822,2.31 1.187,3.438 0.198,0.611 0.384,1.185 0.554,1.675 1.012,2.909 2.768,10.439 3.267,12.811 0.245,1.162 1.018,3.792 1.834,6.555 l 0.096,0.326 c 0.781,2.641 1.578,5.339 1.942,6.855 0.081,0.339 0.181,0.815 0.302,1.396 0.455,2.187 1.22,5.856 2.492,9.232 0.805,2.135 1.794,4.1 3.001,5.471 1.2,1.362 2.565,2.089 4.159,1.897 1.621,-0.196 2.589,-1.055 3.151,-2.331 0.579,-1.313 0.728,-3.078 0.613,-5.018 -0.201,-3.373 -1.183,-7.078 -1.81,-9.442 -0.094,-0.353 -0.179,-0.676 -0.253,-0.963 -0.57,-2.216 -0.886,-4.239 -1.214,-6.474 -0.03,-0.204 -0.06,-0.411 -0.09,-0.619 -0.303,-2.072 -0.637,-4.358 -1.202,-7.184 -0.621,-3.104 -1.898,-7.9 -3.069,-12.024 -0.585,-2.06 -1.143,-3.947 -1.577,-5.365 -0.218,-0.709 -0.404,-1.3 -0.546,-1.735 -0.072,-0.217 -0.132,-0.394 -0.179,-0.526 -0.024,-0.066 -0.044,-0.119 -0.059,-0.16 -0.008,-0.02 -0.015,-0.035 -0.02,-0.047 -0.005,-0.013 -0.007,-0.017 -0.007,-0.017 -0.164,-0.328 -0.156,-0.67 -0.015,-0.962 0.132,-0.276 0.366,-0.476 0.613,-0.6 0.48,-0.24 1.198,-0.27 1.702,0.234 0.132,0.132 0.245,0.313 0.345,0.498 0.053,0.099 0.107,0.209 0.162,0.328 0.053,0.114 0.106,0.235 0.16,0.364 0.221,0.53 0.468,1.21 0.734,1.986 0.164,0.476 0.336,0.992 0.516,1.535 0.113,0.343 0.23,0.697 0.349,1.059 0.309,0.935 0.636,1.925 0.979,2.921 0.697,2.03 2.079,7.622 3.341,12.922 0.718,3.011 1.398,5.934 1.899,8.085 0.385,1.653 0.663,2.851 0.772,3.285 0.255,1.019 0.665,3.227 1.085,5.499 0.423,2.287 0.858,4.649 1.167,6.011 0.615,2.703 2.097,6.156 2.572,6.988 0.468,0.819 1.961,2.998 5.191,2.998 0.791,0 1.418,-0.189 1.923,-0.524 0.507,-0.336 0.922,-0.841 1.252,-1.522 0.668,-1.379 0.95,-3.41 0.95,-5.954 0,-2.51 -0.46,-5.376 -1.021,-8.151 -0.248,-1.222 -0.517,-2.439 -0.774,-3.595 -0.318,-1.434 -0.615,-2.775 -0.822,-3.915 -0.352,-1.935 -0.513,-3.408 -0.672,-4.859 l -0.036,-0.332 c -0.172,-1.557 -0.357,-3.134 -0.79,-5.3 -0.434,-2.168 -1.585,-6.556 -2.712,-10.75 -0.347,-1.29 -0.691,-2.563 -1.011,-3.744 -0.715,-2.64 -1.306,-4.825 -1.524,-5.738 -0.303,-1.273 -0.79,-2.556 -1.237,-3.571 -0.45,-1.025 -0.842,-1.742 -0.942,-1.893 -0.199,-0.297 -0.125,-0.638 -0.052,-0.833 0.084,-0.222 0.233,-0.438 0.42,-0.602 0.181,-0.158 0.458,-0.316 0.79,-0.29 0.361,0.029 0.637,0.259 0.817,0.575 0.274,0.479 0.631,1.33 1.191,2.84 0.565,1.521 1.347,3.745 2.472,6.994 0.614,1.773 1.282,3.839 1.939,5.936 1.063,3.391 2.093,6.846 2.825,9.303 0.487,1.636 0.842,2.83 0.988,3.267 0.186,0.557 0.454,1.857 0.73,3.315 0.266,1.4 0.547,2.99 0.782,4.307 0.238,1.333 0.422,2.359 0.499,2.665 0.01,0.038 0.021,0.087 0.035,0.145 0.17,0.705 0.668,2.769 1.759,4.699 1.183,2.093 2.98,3.891 5.7,3.777 1.362,-0.056 2.245,-0.578 2.84,-1.339 0.611,-0.783 0.948,-1.861 1.107,-3.07 0.242,-1.841 0.057,-3.812 -0.077,-5.24 -0.044,-0.466 -0.082,-0.874 -0.099,-1.201 -0.122,-2.457 -1.363,-9.414 -2.366,-14.681 -0.998,-5.236 -2.995,-13.599 -4.119,-18.098 -0.13,-0.517 -0.282,-1.13 -0.452,-1.817 -1.319,-5.32 -3.744,-15.095 -5.284,-19.385 -1.392,-3.879 -4.151,-10.171 -5.36,-12.838 -0.07,-0.154 -0.056,-0.334 0.036,-0.477 0.092,-0.143 0.25,-0.229 0.42,-0.229 0.98,0 2.433,0.441 3.796,0.989 1.379,0.555 2.76,1.259 3.613,1.85 0.775,0.536 1.342,1.232 1.949,1.976 0.086,0.106 0.173,0.213 0.262,0.32 0.722,0.876 1.599,1.873 3.055,2.965 1.428,1.071 3.447,1.92 5.587,2.315 2.142,0.394 4.355,0.326 6.182,-0.381 1.742,-0.675 2.484,-2 2.637,-3.341 0.159,-1.382 -0.314,-2.719 -0.935,-3.339 -0.725,-0.726 -1.608,-1.427 -2.47,-2.101 l -0.193,-0.151 c -0.781,-0.609 -1.542,-1.204 -2.087,-1.748 -0.638,-0.639 -0.856,-1.188 -1.054,-1.73 l -0.028,-0.079 c -0.176,-0.485 -0.351,-0.969 -0.839,-1.62 -1.089,-1.451 -3.302,-3.546 -5.034,-4.907 -0.836,-0.657 -2.174,-1.419 -3.569,-2.172 -0.408,-0.219 -0.82,-0.438 -1.224,-0.653 -0.956,-0.507 -1.862,-0.988 -2.53,-1.389 -0.997,-0.598 -1.848,-1.421 -2.644,-2.216 -0.079,-0.079 -0.158,-0.159 -0.236,-0.237 -0.721,-0.724 -1.402,-1.407 -2.154,-1.944 -1.72,-1.229 -6.062,-3.835 -10.527,-5.695 l -0.001,-10e-4 c -1.302,-0.546 -4.106,-1.692 -5.075,-1.982 -0.636,-0.191 -2.587,-0.82 -4.526,-1.593 -0.968,-0.386 -1.944,-0.811 -2.753,-1.239 -0.405,-0.214 -0.776,-0.432 -1.087,-0.651 -0.305,-0.215 -0.579,-0.447 -0.765,-0.696 -0.065,-0.087 -0.138,-0.211 -0.217,-0.36 -0.046,-0.089 -0.095,-0.187 -0.145,-0.29 -0.14,-0.291 -0.31,-0.669 -0.506,-1.122 -0.392,-0.908 -0.893,-2.134 -1.474,-3.6 -1.162,-2.932 1.352,-4.838 -0.227,-9.114 -3.157,-8.55 -6.692,-18.591 -8.759,-25.292 -1.892,-6.135 -3.52,-14.615 -5.404,-24.426 -0.18,-0.936 -0.362,-1.885 -0.547,-2.845 -2.125,-11.031 -4.621,-23.576 -8.178,-36.367 -6.523,-23.461 -12.515,-34.517 -17.704,-44.093 -0.466,-0.861 -0.926,-1.71 -1.38,-2.555 -1.241,-2.313 -2.319,-4.209 -3.27,-5.88 -3.242,-5.701 -4.996,-8.786 -6.654,-16.881 -1.055,-5.151 -3.294,-12.028 -5.592,-18.671 -0.729,-2.107 -1.464,-4.192 -2.168,-6.188 -1.508,-4.278 -2.874,-8.15 -3.729,-10.971 -0.984,-3.247 -3.419,-8.269 -6.087,-13.259 -2.662,-4.978 -5.532,-9.882 -7.361,-12.875 -0.042,-0.069 -0.067,-0.147 -0.072,-0.227 -0.209,-3.093 -0.626,-11.471 -0.626,-20.284 0,-10.997 -1.007,-32.106 -11.663,-47.718 -4.988,-7.308 -9.062,-11.611 -13.429,-14.716 -4.375,-3.112 -9.069,-5.041 -15.358,-7.573 -0.919,-0.37 -1.873,-0.753 -2.863,-1.155 -7.2,-2.917 -12.064,-3.784 -16.904,-4.531 -0.361,-0.056 -0.722,-0.111 -1.084,-0.166 -4.507,-0.688 -9.156,-1.397 -15.737,-3.668 -14.145,-4.882 -26.052,-10.269 -32.964,-14.291 -3.438,-2.001 -6.775,-4.045 -9.287,-5.973 -1.255,-0.963 -2.322,-1.91 -3.094,-2.819 -0.764,-0.899 -1.29,-1.818 -1.365,-2.723 -0.069,-0.823 -0.1,-3.461 -0.11,-6.916 -0.018,-6.975 0.052,-17.411 0.108,-23.506 0.001,-0.11 0.038,-0.217 0.107,-0.304 0.535,-0.68 0.996,-1.705 1.389,-2.953 0.391,-1.239 0.703,-2.657 0.96,-4.092 0.256,-1.433 0.456,-2.873 0.622,-4.154 0.044,-0.333 0.085,-0.655 0.124,-0.965 0.112,-0.876 0.211,-1.647 0.304,-2.231 0.211,-1.319 0.309,-2.547 0.382,-3.467 0.013,-0.153 0.024,-0.298 0.035,-0.433 0.038,-0.447 0.075,-0.85 0.141,-1.08 0.016,-0.057 0.047,-0.152 0.107,-0.241 0.059,-0.085 0.242,-0.291 0.546,-0.237 0.227,0.039 0.346,0.206 0.377,0.25 0.049,0.07 0.086,0.147 0.115,0.215 0.017,0.039 0.034,0.079 0.051,0.119 0.18,0.424 0.369,0.872 0.791,1.282 0.452,0.439 1.217,0.873 2.636,1.05 0.518,0.065 1.074,-0.192 1.696,-0.842 0.617,-0.645 1.22,-1.596 1.816,-2.71 0.544,-1.017 1.066,-2.1396 1.58,-3.2439 l 0.141,-0.302 c 0.554,-1.1913 1.103,-2.3538 1.648,-3.284 1.02,-1.7387 1.913,-4.6404 2.583,-7.8796 0.667,-3.2252 1.1,-6.7297 1.224,-9.6388 0.057,-1.3235 -0.038,-2.4374 -0.242,-3.3717 -0.34,-1.5488 -0.983,-2.6066 -1.762,-3.3211 -0.781,-0.7167 -1.726,-1.115 -2.711,-1.294 -0.862,-0.1568 -1.683,0.2721 -2.411,1.0069 -0.722,0.7285 -1.265,1.6765 -1.539,2.3215 -0.096,0.2269 -0.343,0.3498 -0.582,0.2896 -0.239,-0.0603 -0.399,-0.2856 -0.376,-0.531 0.395,-4.2589 0.831,-11.1377 0.857,-17.9214 0.026,-6.8069 -0.363,-13.4401 -1.585,-17.2549 C 339.87,31.8432 335.558,22.9162 327.758,15.1992 319.967,7.49234 308.706,1 293.237,1 277.767,1 266.513,7.4923 258.729,15.1991 Z M 365.735,1128.04 h 10e-4 c -0.007,-0.01 -0.006,-0.02 -10e-4,0 z"
     fill="#e0e0e0"
     id="path1"
     sodipodi:nodetypes="cscccccccccccccccccsccccccccccccccccccccccccccsccccccscccsscsscccccscccccccscccccsccscscccccccsscscccsscsccccsscscccccccsccsccscscccsscscsssscsccsccccccccccccccsscccsccccscssscccccccccscsssscssscccccccsccscsssssccccccccccscccccccccccscccccscscccccsccccccccccscccsccccccscccccsccsccscccccscccccccccscsscccccccccccscccccscccssccsccccsccccccccccccccccscccccccccccccccccsscsscscccscccsscsccscscscccccsccsscscscccccsccccccccsssccccccccccccscssccccsccsccsscccccsscccccccccccscsccccccscccsccscccccsscscccccsccccccccccccccccccsscccccccccscccccscccccsccccccsccccccscccccccccsccccccccccccccccccccscscccccccccccccccccccsccsccccccccsccccccccsccccsccsccccccccccccccccsccscsccsccscccccccssccccsccccscccccscccscccccsccscccsccccccccsccscccsscscccccccccscccccccccccccccccccccccccccccccccscccc"
     style="display:inline"
     inkscape:label="full_body" />
  <path
     d="m 380.25,1079.12 c -0.625,-1.37 0,-4.87 0,-9.62 l 0.5,-6.25 -43.625,-9.25 c -0.375,6.75 0.625,18.38 0.75,21.38 0.125,3 -1.25,3.74 -1.25,8.87 0,5.13 2.875,9.25 4.5,13.37 0.744,1.89 0.938,3.05 0.617,4.3 -0.126,0.49 -0.333,1 -0.617,1.57 -0.569,1.15 -1.45,2.56 -2.625,4.63 -3.25,5.76 -0.625,10.5 -0.25,11.76 0.375,1.24 2.875,15.74 15.75,16.37 5.125,0.25 7.5,-1.13 9.125,-2.75 1.625,-1.62 0.875,-5 1.125,-5.25 0.25,-0.25 1.375,-0.25 1.875,0 0.5,0.25 -0.5,6.37 6.125,6.37 5.3,0 6.224,-4.41 6.023,-6.62 0.404,1.75 1.551,3.5 4.227,3.5 2.69,0 3.802,-1.67 4.125,-3.5 0.5,1.62 2.75,2.12 5.375,1.75 1.362,-0.19 1.945,-1.85 2.125,-3.63 0.125,0.5 1.25,0.88 3.25,0.88 2,0 3.125,-2.62 3.125,-3.88 0,-1.24 0.75,-0.37 1.5,-2.74 0.75,-2.38 1,-9.26 -3.125,-16.13 -3.059,-5.1 -7.767,-8.34 -10.711,-10.54 -1.025,-0.77 -1.837,-1.41 -2.289,-1.96 -1.75,-2.13 -1.25,-4.37 -2.375,-7.13 -1.125,-2.74 -2.625,-4.12 -3.25,-5.5 z"
     fill="#bdbdbd"
     id="path2"
     style="display:inline"
     inkscape:label="right_foot" />
  <path
     d="m 206.189,1079.12 c 0.625,-1.37 0,-4.87 0,-9.62 l -0.5,-6.25 43.625,-9.25 c 0.375,6.75 -0.625,18.38 -0.75,21.38 -0.125,3 1.25,3.74 1.25,8.87 0,5.13 -2.875,9.25 -4.5,13.37 -0.743,1.89 -0.937,3.05 -0.617,4.3 0.127,0.49 0.333,1 0.617,1.57 0.57,1.15 1.45,2.56 2.625,4.63 3.25,5.76 0.625,10.5 0.25,11.76 -0.375,1.24 -2.875,15.74 -15.75,16.37 -5.125,0.25 -7.5,-1.13 -9.125,-2.75 -1.625,-1.62 -0.875,-5 -1.125,-5.25 -0.25,-0.25 -1.375,-0.25 -1.875,0 -0.5,0.25 0.5,6.37 -6.125,6.37 -5.3,0 -6.224,-4.41 -6.023,-6.62 -0.404,1.75 -1.55,3.5 -4.227,3.5 -2.689,0 -3.801,-1.67 -4.125,-3.5 -0.5,1.62 -2.75,2.12 -5.375,1.75 -1.361,-0.19 -1.945,-1.85 -2.125,-3.63 -0.125,0.5 -1.25,0.88 -3.25,0.88 -2,0 -3.125,-2.62 -3.125,-3.88 0,-1.24 -0.75,-0.37 -1.5,-2.74 -0.75,-2.38 -1,-9.26 3.125,-16.13 3.059,-5.1 7.768,-8.34 10.711,-10.54 1.026,-0.77 1.837,-1.41 2.289,-1.96 1.75,-2.13 1.25,-4.37 2.375,-7.13 1.125,-2.74 2.625,-4.12 3.25,-5.5 z"
     fill="#bdbdbd"
     id="path3"
     style="display:inline"
     inkscape:label="left_foot" />
  <path
     d="m 210.75,1065.38 -4.5,5.62 0.25,7.62 3.25,-2.74 6.125,-4.88 4.875,-3.25 6.5,-3 6.5,1.25 4.5,2.38 5.875,5 4.625,4.74 v -3.62 -3.5 l -3.75,-5 -3.625,-3 -4.125,-1.75 12.25,-2.75 v -3.5 l -0.75,-4.12 -1.125,-5 -5.125,1.5 -7.875,3.12 -8,3.62 -6.875,3.88 -10.375,-1.38 -5,-1.62 1.375,9.75 z"
     fill="#e0e0e0"
     id="path4"
     style="display:inline"
     inkscape:label="left_ankle" />
  <path
     d="m 375.75,1065.38 4.5,5.62 -0.25,7.62 -3.25,-2.74 -6.125,-4.88 -4.875,-3.25 -6.5,-3 -6.5,1.25 -4.5,2.38 -5.875,5 -4.625,4.74 v -3.62 -3.5 l 3.75,-5 3.625,-3 4.125,-1.75 -12.25,-2.75 v -3.5 l 0.75,-4.12 1.125,-5 5.125,1.5 7.875,3.12 8,3.62 6.875,3.88 10.375,-1.38 5,-1.62 -1.375,9.75 z"
     fill="#e0e0e0"
     id="path5"
     style="display:inline"
     inkscape:label="right_ankle" />
  <path
     d="m 199,836.125 c 4,-7 7.75,-16.375 7.125,-27.125 l 1.875,5.375 1.625,6.25 1.875,6.625 1.625,7.875 1.875,9.375 1.375,7.5 0.875,6.125 1.25,8.125 1.5,8.625 1.375,10.25 1,8.125 1.125,10.25 2.125,23.625 2.25,28.375 2,21.25 1.875,15.125 2.5,17.125 3.625,19.62 3.625,19.38 -6.25,2.38 -1.625,-8.63 -1.875,-10.63 -1,-3.24 -4.75,-18 -6.5,-28.005 -6.125,-27.375 -8.5,-39 c -1.542,-7.792 -4.575,-27.55 -4.375,-44.25 0.2,-16.7 -0.917,-30.375 -1.5,-35.125 z"
     fill="#bdbdbd"
     id="path7"
     style="display:inline"
     inkscape:label="left_tibialis_anterior" />
  <path
     d="m 366.625,993.75 2.25,-16.625 -3.5,12.625 -9.125,36.87 -3,13.38 -1.625,10.5 8.5,3.62 2,-21 2.25,-21.62 z"
     fill="#bdbdbd"
     id="path8"
     style="display:inline"
     inkscape:label="right_peroneus_brevis" />
  <path
     d="m 220,993.75 -2.25,-16.625 3.5,12.625 9.125,36.87 3,13.38 1.625,10.5 -8.5,3.62 -2,-21 -2.25,-21.62 z"
     fill="#bdbdbd"
     id="path9"
     style="display:inline"
     inkscape:label="left_peroneus_brevis" />
  <path
     d="m 211,1013.38 c 1.1,12.19 0.458,20.08 0,22.5 l -2.125,11.62 1,9.12 -5.375,-1.37 1.875,-19.75 0.25,-6.88 -0.5,-9.24 -1.625,-14.76 -2.125,-14.62 -2.5,-14.75 -2.75,-18.375 -2.375,-14.875 -2.5,-16.125 -2,-13.5 -1.625,-14.25 -1.125,-11.25 v -8 l 1.75,-20.25 2.125,-13.625 4.25,-4.125 -0.75,11.75 c -0.458,6.208 -1.675,20.425 -2.875,27.625 -1.2,7.2 0.5,20.667 1.5,26.5 l 5.625,30.375 6.875,40.5 c 1.208,6.833 3.9,23.555 5,35.755 z"
     fill="#bdbdbd"
     id="path12"
     style="display:inline"
     inkscape:label="left_peroneus_longus_outer" />
  <path
     d="m 200.5,871.25 c 0.2,-16.7 -0.917,-30.375 -1.5,-35.125 l -3.375,4.75 -0.75,11.75 c -0.458,6.208 -1.675,20.425 -2.875,27.625 -1.2,7.2 0.5,20.667 1.5,26.5 l 5.625,30.375 6.875,40.5 c 1.208,6.833 3.9,23.555 5,35.755 1.1,12.19 0.458,20.08 0,22.5 l -2.125,11.24 1.125,9.38 9.5,1.75 7,-3.75 -0.5,-6 -1.5,-15.12 -1.75,-18.26 -4.625,-37.495 -4.75,-23.125 -8.5,-39 c -1.542,-7.792 -4.575,-27.55 -4.375,-44.25 z"
     fill="#bdbdbd"
     id="path13"
     style="display:inline"
     inkscape:label="left_peroneus_longus_inner" />
  <path
     d="m 209.75,1035.88 -3.625,-0.76 -1.125,12.63 7.75,-1.87 9.625,-3 11.625,-3.5 11.125,-2.76 -2,-12.74 -3.5,3.74 -9.875,4.13 -13.125,3.37 z"
     fill="#e0e0e0"
     id="path14"
     style="display:inline"
     inkscape:label="left_medial_malleolus" />
  <path
     d="M376.625 1035.88L380.25 1035.12L381.375 1047.75L373.625 1045.88L364 1042.88L352.375 1039.38L341.25 1036.62L343.25 1023.88L346.75 1027.62L356.625 1031.75L369.75 1035.12L376.625 1035.88Z"
     fill="#E0E0E0"
     id="path15"
     inkscape:label="right_medial_malleolus" />
  <path
     d="M 339,863.625 C 337.125,861 333.25,854.45 332.75,849.25 l -0.375,3.75 -2.125,12.125 -1.625,8.125 -1.25,7.25 -1,6.875 -0.75,9.5 -0.375,10.25 0.625,12.5 c 0.292,2.333 1.05,8.15 1.75,12.75 0.875,5.75 3.625,14.875 4.5,17.375 0.7,2 3.875,14.583 5.375,20.625 l 4,24.875 2,20.13 2.375,-25.255 2,-31.75 c 0.458,-9.083 1.475,-30.85 1.875,-45.25 0.5,-18 -2.625,-31 -3.625,-36.125 -0.8,-4.1 -5.083,-10.625 -7.125,-13.375 z"
     fill="#bdbdbd"
     id="path16"
     style="display:inline" />
  <path
     d="m 387.625,836.125 c -4,-7 -7.75,-16.375 -7.125,-27.125 l -1.875,5.375 -1.625,6.25 -1.875,6.625 -1.625,7.875 -1.875,9.375 -1.375,7.5 -0.875,6.125 -1.25,8.125 -1.5,8.625 -1.375,10.25 -1,8.125 -1.125,10.25 -2.125,23.625 -2.25,28.375 -2,21.25 -1.875,15.125 -2.5,17.125 -3.625,19.62 -3.625,19.38 6.25,2.38 1.625,-8.63 1.875,-10.63 1,-3.24 4.75,-18 6.5,-28.005 6.125,-27.375 8.5,-39 c 1.542,-7.792 4.575,-27.55 4.375,-44.25 -0.2,-16.7 0.917,-30.375 1.5,-35.125 z"
     fill="#bdbdbd"
     id="path6"
     sodipodi:nodetypes="cccccccccccccccccccccccccccccsc"
     style="display:inline" />
  <path
     d="m 375.625,1013.38 c -1.1,12.19 -0.458,20.08 0,22.5 l 2.125,11.62 -1,9.12 5.375,-1.37 -1.875,-19.75 -0.25,-6.88 0.5,-9.24 1.625,-14.76 2.125,-14.62 2.5,-14.75 2.75,-18.375 2.375,-14.875 2.5,-16.125 2,-13.5 1.625,-14.25 1.125,-11.25 v -8 l -1.75,-20.25 L 395.25,845 391,840.875 l 0.75,11.75 c 0.458,6.208 1.675,20.425 2.875,27.625 1.2,7.2 -0.5,20.667 -1.5,26.5 l -5.625,30.375 -6.875,40.5 c -1.208,6.833 -3.9,23.555 -5,35.755 z"
     fill="#bdbdbd"
     id="path10"
     sodipodi:nodetypes="ccccccccccccccccccccccscccc"
     style="display:inline" />
  <path
     d="m 386.125,871.25 c -0.2,-16.7 0.917,-30.375 1.5,-35.125 l 3.375,4.75 0.75,11.75 c 0.2442,3.31001 0.70417,8.89687 1.26229,14.48297 0.48865,4.89077 1.05253,9.78096 1.61271,13.14203 1.2,7.2 -0.5,20.667 -1.5,26.5 l -5.625,30.375 -6.875,40.5 c -1.208,6.833 -3.9,23.555 -5,35.755 -1.1,12.19 -0.458,20.08 0,22.5 l 2.125,11.24 -1.125,9.38 -9.5,1.75 -7,-3.75 0.5,-6 1.5,-15.12 1.75,-18.26 4.625,-37.495 4.75,-23.125 8.5,-39 c 1.542,-7.792 4.575,-27.55 4.375,-44.25 z"
     fill="#bdbdbd"
     id="path11"
     sodipodi:nodetypes="scccsscccccccccccccccs"
     style="display:inline" />
  <path
     d="M 339,863.625 C 337.125,861 333.25,854.45 332.75,849.25 l -0.375,3.75 -2.125,12.125 -1.625,8.125 -1.25,7.25 -1,6.875 -0.75,9.5 -0.375,10.25 0.625,12.5 c 0.292,2.333 1.05,8.15 1.75,12.75 0.875,5.75 3.625,14.875 4.5,17.375 0.7,2 3.875,14.583 5.375,20.625 l 4,24.875 2,20.13 2.375,-25.255 2,-31.75 c 0.458,-9.083 1.475,-30.85 1.875,-45.25 0.5,-18 -2.625,-31 -3.625,-36.125 -0.8,-4.1 -5.083,-10.625 -7.125,-13.375 z"
     fill="#bdbdbd"
     id="path17"
     sodipodi:nodetypes="ccccccccccsscccccssc"
     style="display:inline" />
  <path
     d="m 247.554,863.625 c 1.875,-2.625 5.75,-9.175 6.25,-14.375 l 0.375,3.75 2.125,12.125 1.625,8.125 1.25,7.25 1,6.875 0.75,9.5 0.375,10.25 -0.625,12.5 c -0.292,2.333 -1.05,8.15 -1.75,12.75 -0.875,5.75 -3.625,14.875 -4.5,17.375 -0.7,2 -3.875,14.583 -5.375,20.625 l -4,24.875 -2,20.13 -2.375,-25.255 -2,-31.75 c -0.459,-9.083 -1.475,-30.85 -1.875,-45.25 -0.5,-18 2.625,-31 3.625,-36.125 0.8,-4.1 5.083,-10.625 7.125,-13.375 z"
     fill="#bdbdbd"
     id="path18"
     style="display:inline" />
  <path
     d="m 262.625,778.25 2.25,-7.25 c -0.084,3.958 -0.225,13 -0.125,17.5 0.125,5.625 -1,14 -2.875,19.875 -1.875,5.875 -5.625,8.625 -7.75,10.25 -2.125,1.625 -6.125,7.125 -4.625,2.5 1.165,-3.594 1.403,-4.255 1.378,-4.137 L 253,808 l 2.625,-11.125 3.5,-11.5 z"
     fill="#bdbdbd"
     id="path19"
     style="display:inline" />
  <path
     d="m 323.999,778.25 -2.25,-7.25 c 0.084,3.958 0.225,13 0.125,17.5 -0.125,5.625 1,14 2.875,19.875 1.875,5.875 5.625,8.625 7.75,10.25 2.125,1.625 6.125,7.125 4.625,2.5 -1.165,-3.594 -1.403,-4.255 -1.377,-4.137 l -2.123,-8.988 -2.625,-11.125 -3.5,-11.5 z"
     fill="#bdbdbd"
     id="path20"
     style="display:inline" />
  <path
     d="M350.375 496.375L345.75 503.625L344 518.375L342.125 531.625L340.875 540.5L338.75 553.375L336.75 562.75L332.5 578.125L327.75 592.125L324.375 603L320.875 615.5L318.5 625.75L316.125 638.875L314.5 652.625L313.25 668.875L312.875 688.5L313.25 703.625V715.5L315.5 728.875L318.125 704.75L320.75 683.875L324.75 657C326.417 648.5 330.3 629.8 332.5 623C335.25 614.5 340.5 599.375 343.125 592.125C345.225 586.325 348.083 576.125 349.25 571.75L352.25 555.125L355.25 531.625L359.5 490.625L354.5 493L350.375 496.375Z"
     stroke="black"
     stroke-width="0.25"
     id="path28" />
  <path
     d="M236.125 496.375L240.75 503.625L242.5 518.375L244.375 531.625L245.625 540.5L247.75 553.375L249.75 562.75L254 578.125L258.75 592.125L262.125 603L265.625 615.5L268 625.75L270.375 638.875L272 652.625L273.25 668.875L273.625 688.5L273.25 703.625V715.5L271 728.875L268.375 704.75L265.75 683.875L261.75 657C260.083 648.5 256.2 629.8 254 623C251.25 614.5 246 599.375 243.375 592.125C241.275 586.325 238.417 576.125 237.25 571.75L234.25 555.125L231.25 531.625L227 490.625L232 493L236.125 496.375Z"
     stroke="black"
     stroke-width="0.25"
     id="path30" />
  <g
     id="Abductors">

      <path
         d="m 289.625,603.625 c -3.042,-6.042 -11.925,-22.95 -23.125,-42.25 1.25,5.375 8.166,25.167 10.25,32.125 0.583,1.583 2.5,8.875 5.5,25.375 3,16.5 2.083,40.542 1.25,50.5 0.625,-3.5 2.375,-13.475 4.375,-25.375 2,-11.9 2,-31.875 1.75,-40.375 z"
         fill="#bdbdbd"
         id="path26"
         sodipodi:nodetypes="cccscsc" />
      <path
         d="m 236.125,496.375 4.625,7.25 1.75,14.75 1.875,13.25 1.25,8.875 2.125,12.875 2,9.375 4.25,15.375 4.75,14 3.375,10.875 3.5,12.5 2.375,10.25 2.375,13.125 1.625,13.75 1.25,16.25 0.375,19.625 -0.375,15.125 V 715.5 L 271,728.875 268.375,704.75 265.75,683.875 261.75,657 c -1.667,-8.5 -5.55,-27.2 -7.75,-34 -2.75,-8.5 -8,-23.625 -10.625,-30.875 -2.1,-5.8 -4.958,-16 -6.125,-20.375 l -3,-16.625 -3,-23.5 -4.25,-41 5,2.375 z"
         fill="#bdbdbd"
         id="path29"
         sodipodi:nodetypes="ccccccccccccccccccccccsscccccc" />
      <path
         d="m 260.838,579.5 c 2.25,-6.375 5,-15.25 4,-20.25 l 7.375,20.25 4.625,14.875 1.375,5.75 c 1.875,7.167 5.65,25.325 5.75,40.625 0.1,15.3 -0.958,28.458 -1.5,33.125 l -4.25,19.25 -5,23.5 v -10 -31.875 c -0.25,-7.625 -1.425,-26.75 -4.125,-42.25 -3.375,-19.375 -7,-28.5 -8.25,-32.375 -1.25,-3.875 -2.25,-14.25 0,-20.625 z"
         fill="#bdbdbd"
         id="path32"
         sodipodi:nodetypes="sccccscccccsss" />
      <path
         d="m 264.625,558.125 c 1.625,10.375 -2.625,15.125 -4.125,25.75 -1.001,7.092 -0.97,10.327 -0.763,11.445 l 0.138,0.43 c -0.048,-0.069 -0.096,-0.208 -0.138,-0.43 l -7.862,-24.57 C 250.333,564.667 247,550.575 246,542.875 245,535.175 242.083,513.75 240.75,504 l 2.125,3.875 4.375,13.5 2.5,7.125 5.5,11.75 z"
         fill="#bdbdbd"
         id="path33"
         sodipodi:nodetypes="ccccccscccccc" />

      <path
         d="M297 603.625C300.042 597.583 308.925 580.675 320.125 561.375C318.875 566.75 311.959 586.542 309.875 593.5C309.292 595.083 307.375 602.375 304.375 618.875C301.375 635.375 302.292 659.417 303.125 669.375C302.5 665.875 300.75 655.9 298.75 644C296.75 632.1 296.75 612.125 297 603.625Z"
         fill="#BDBDBD"
         id="path25" />
      <path
         d="m 350.375,496.375 -4.625,7.25 -1.75,14.75 -1.875,13.25 -1.25,8.875 -2.125,12.875 -2,9.375 -4.25,15.375 -4.75,14 -3.375,10.875 -3.5,12.5 -2.375,10.25 -2.375,13.125 -1.625,13.75 -1.25,16.25 -0.375,19.625 0.375,15.125 V 715.5 l 2.25,13.375 2.625,-24.125 2.625,-20.875 4,-26.875 c 1.667,-8.5 5.55,-27.2 7.75,-34 2.75,-8.5 8,-23.625 10.625,-30.875 2.1,-5.8 4.958,-16 6.125,-20.375 l 3,-16.625 3,-23.5 4.25,-41 -5,2.375 z"
         fill="#bdbdbd"
         id="path27"
         sodipodi:nodetypes="ccccccccccccccccccccccsscccccc" />
      <path
         d="m 325.5,579.5 c -2.25,-6.375 -5,-15.25 -4,-20.25 l -7.375,20.25 -4.625,14.875 -1.375,5.75 c -1.875,7.167 -5.65,25.325 -5.75,40.625 -0.1,15.3 0.958,28.458 1.5,33.125 l 4.25,19.25 5,23.5 v -10 -31.875 c 0.25,-7.625 1.425,-26.75 4.125,-42.25 3.375,-19.375 7,-28.5 8.25,-32.375 1.25,-3.875 2.25,-14.25 0,-20.625 z"
         fill="#bdbdbd"
         id="path31"
         sodipodi:nodetypes="sccccscccccsss" />
      <path
         d="m 321.864,558.125 c -1.625,10.375 2.625,15.125 4.125,25.75 1.002,7.092 0.97,10.327 0.763,11.445 l -0.138,0.43 c 0.049,-0.069 0.097,-0.208 0.138,-0.43 l 7.862,-24.57 c 1.542,-6.083 4.875,-20.175 5.875,-27.875 1,-7.7 3.917,-29.125 5.25,-38.875 l -2.125,3.875 -4.375,13.5 -2.5,7.125 -5.5,11.75 z"
         fill="#bdbdbd"
         id="path34"
         sodipodi:nodetypes="ccccccscccccc" />
  </g>
  <path
     d="m 382.625,473.625 -2,4 6.625,16.5 3.5,9.625 4.375,12.875 -2.25,-12.875 L 390.75,490 388,478.875 l -3.375,-11 z"
     fill="#bdbdbd"
     id="path39"
     style="display:inline" />
  <path
     d="m 204,473.625 2,4 -6.625,16.5 -3.5,9.625 -4.375,12.875 2.25,-12.875 2.125,-13.75 2.75,-11.125 3.375,-11 z"
     fill="#bdbdbd"
     id="path40"
     style="display:inline" />
  <path
     d="M561.375 524.25C559.625 523 554.815 521.253 550.315 519.378C549.023 518.836 546.19 517.678 545.19 517.378C543.94 517.003 540.875 515.125 539.75 513.625C539.75 513.125 539.767 512.902 539.444 512.169C533.1 512.069 520.861 514.878 517.44 516.378C511.981 518.086 505.069 523.895 503.769 529.75C504.375 533.306 504.555 534.748 503.769 540.25C502.894 546.375 505.269 553.875 506.394 560.5C506.959 563.827 507.902 567.911 508.875 571.5C509.84 575.059 509.255 578.634 509.94 580.003C511.315 582.753 512.44 590.503 512.815 592.253C513.19 594.003 516.565 607.503 517.19 609.128C517.815 610.753 520.44 621.378 524.69 620.878C528.94 620.378 529.065 617.003 528.69 613.253C528.519 611.545 527.959 609.034 527.353 606.628C526.628 603.751 525.837 601.024 525.565 600.003C525.065 598.128 524.315 593.128 523.815 591.378C523.315 589.628 520.5 581.503 521.875 581.128C523.25 580.753 524.565 586.753 525.565 589.628C526.565 592.503 528.315 600.003 528.815 602.378C529.315 604.753 531.94 613.003 532.69 616.128C533.44 619.253 535.94 635.378 543.19 634.503C550.44 633.628 546.44 620.503 545.315 616.128C544.19 611.753 544.065 608.128 542.815 601.878C541.565 595.628 537.69 581.878 537.315 581.128C536.94 580.378 538.19 579.753 538.815 580.378C539.44 581.003 540.565 585.628 541.94 589.628C543.315 593.628 547.44 611.878 547.94 613.878C548.44 615.878 549.565 622.628 550.19 625.378C550.815 628.128 552.315 631.628 552.815 632.503C553.315 633.378 554.94 635.753 558.44 635.753C561.94 635.753 563.065 632.378 563.065 627.253C563.065 622.128 561.19 615.628 560.44 611.503C559.69 607.378 559.815 605.378 558.94 601.003C558.065 596.628 554.315 583.378 553.69 580.753C553.065 578.128 551.69 574.753 551.44 574.378C551.19 574.003 552.065 572.878 552.565 573.753C553.065 574.628 553.94 577.753 556.19 584.253C556.801 586.018 557.467 588.079 558.124 590.175C559.885 595.793 561.575 601.66 561.94 602.753C562.112 603.27 562.374 604.532 562.653 606.003C563.183 608.797 563.776 612.348 563.94 613.003C564.19 614.003 565.94 622.253 571.94 622.003C577.94 621.753 576.315 613.128 576.19 610.628C576.065 608.128 574.815 601.128 573.815 595.878C572.815 590.628 570.815 582.253 569.69 577.753C568.565 573.253 565.69 561.378 563.94 556.503C562.54 552.603 559.773 545.295 558.565 542.628C560.315 542.628 564.065 544.503 565.69 545.628C567.315 546.753 567.94 548.628 570.94 550.878C573.94 553.128 579.315 554.378 583.19 552.878C587.065 551.378 586.565 547.628 585.065 546.128C583.565 544.628 582 543.125 580.875 542C579.75 540.875 579.815 539.753 578.69 538.253C577.565 536.753 575.625 534.875 573.875 533.5C572.125 532.125 568 530 566.125 528.875C564.25 527.75 563.125 525.5 561.375 524.25Z"
     fill="#BDBDBD"
     id="path41" />
  <path
     d="M25.0516 524.25C26.8016 523 31.6122 521.253 36.1122 519.378C37.4038 518.836 40.2372 517.678 41.2372 517.378C42.4872 517.003 45.5516 515.125 46.6766 513.625C46.6766 513.125 46.6601 512.902 46.9823 512.169C53.3266 512.069 65.5657 514.878 68.9872 516.378C74.4455 518.086 81.3581 523.895 82.6581 529.75C82.0516 533.306 81.872 534.748 82.6581 540.25C83.5331 546.375 81.1581 553.875 80.0331 560.5C79.4681 563.827 78.5249 567.911 77.5516 571.5C76.5869 575.059 77.1717 578.634 76.4872 580.003C75.1122 582.753 73.9872 590.503 73.6122 592.253C73.2372 594.003 69.8622 607.503 69.2372 609.128C68.6122 610.753 65.9872 621.378 61.7372 620.878C57.4872 620.378 57.3622 617.003 57.7372 613.253C57.9079 611.545 58.4676 609.034 59.0737 606.628C59.7985 603.751 60.5899 601.024 60.8622 600.003C61.3622 598.128 62.1122 593.128 62.6122 591.378C63.1122 589.628 65.9266 581.503 64.5516 581.128C63.1766 580.753 61.8622 586.753 60.8622 589.628C59.8622 592.503 58.1122 600.003 57.6122 602.378C57.1122 604.753 54.4872 613.003 53.7372 616.128C52.9872 619.253 50.4872 635.378 43.2372 634.503C35.9872 633.628 39.9872 620.503 41.1122 616.128C42.2372 611.753 42.3622 608.128 43.6122 601.878C44.8622 595.628 48.7372 581.878 49.1122 581.128C49.4872 580.378 48.2372 579.753 47.6122 580.378C46.9872 581.003 45.8622 585.628 44.4872 589.628C43.1122 593.628 38.9872 611.878 38.4872 613.878C37.9872 615.878 36.8622 622.628 36.2372 625.378C35.6122 628.128 34.1122 631.628 33.6122 632.503C33.1122 633.378 31.4872 635.753 27.9872 635.753C24.4872 635.753 23.3622 632.378 23.3622 627.253C23.3622 622.128 25.2372 615.628 25.9872 611.503C26.7372 607.378 26.6122 605.378 27.4872 601.003C28.3622 596.628 32.1122 583.378 32.7372 580.753C33.3622 578.128 34.7372 574.753 34.9872 574.378C35.2372 574.003 34.3622 572.878 33.8622 573.753C33.3622 574.628 32.4872 577.753 30.2372 584.253C29.626 586.018 28.9594 588.079 28.3027 590.175C26.5418 595.793 24.8514 601.66 24.4872 602.753C24.3147 603.27 24.0529 604.532 23.7738 606.003C23.2437 608.797 22.6509 612.348 22.4872 613.003C22.2372 614.003 20.4872 622.253 14.4872 622.003C8.48721 621.753 10.1122 613.128 10.2372 610.628C10.3622 608.128 11.6122 601.128 12.6122 595.878C13.6122 590.628 15.6122 582.253 16.7372 577.753C17.8622 573.253 20.7372 561.378 22.4872 556.503C23.8872 552.603 26.6538 545.295 27.8622 542.628C26.1122 542.628 22.3622 544.503 20.7372 545.628C19.1122 546.753 18.4872 548.628 15.4872 550.878C12.4872 553.128 7.11221 554.378 3.23721 552.878C-0.637787 551.378 -0.137787 547.628 1.36221 546.128C2.86221 544.628 4.42665 543.125 5.55165 542C6.67665 540.875 6.61221 539.753 7.73721 538.253C8.86221 536.753 10.8017 534.875 12.5517 533.5C14.3017 532.125 18.4267 530 20.3016 528.875C22.1766 527.75 23.3016 525.5 25.0516 524.25Z"
     fill="#BDBDBD"
     id="path42" />
  <path
     d="M82 512.25C74.9167 509.084 58.525 503.325 49.625 505.625L46.5 513.625L56.125 515.25L64.75 518L72.125 521L79.875 525.5L82.875 530.5L87.625 518L82 512.25Z"
     fill="#E0E0E0"
     id="path45" />
  <path
     d="M504.375 512.25C511.458 509.084 527.85 503.325 536.75 505.625L539.875 513.625L530.25 515.25L521.625 518L514.25 521L506.5 525.5L503.5 530.5L498.75 518L504.375 512.25Z"
     fill="#E0E0E0"
     id="path46" />
  <path
     d="M505 406C504.625 402.667 501.925 390.15 494.125 366.75L500.625 379.25L505.625 391.875L511 409L515.25 425.25L518.25 439.75L522.75 463.125L522.125 473.375C520.333 469.333 515.95 458.4 512.75 447C509.55 435.6 506.25 414.917 505 406Z"
     fill="#BDBDBD"
     id="path47" />
  <path
     d="m 81.5,406 c 0.375,-3.333 3.075,-15.85 10.875,-39.25 l -6.5,12.5 -5,12.625 L 75.5,409 l -4.25,16.25 -3,14.5 -4.5,23.375 0.625,10.25 C 66.1667,469.333 70.55,458.4 73.75,447 c 3.2,-11.4 6.5,-32.083 7.75,-41 z"
     fill="#bdbdbd"
     id="path48"
     sodipodi:nodetypes="cccccccccsc" />
  <path
     d="M425.125 351.125L421.25 338.875C426.125 346.125 436.375 361.35 438.375 364.25C440.375 367.15 441.375 370.375 441.625 371.625L437.375 368L431.5 361.375L425.125 351.125Z"
     fill="#BDBDBD"
     id="path55" />
  <path
     d="M161.25 351.125L165.125 338.875C160.25 346.125 150 361.35 148 364.25C146 367.15 145 370.375 144.75 371.625L149 368L154.875 361.375L161.25 351.125Z"
     fill="#BDBDBD"
     id="path56" />
  <path
     d="M405.75 320.125V310.875C408.85 317.275 417.125 331.292 420.875 337.5L423.25 347.5L429.75 370.625C416.45 350.625 408.208 328.625 405.75 320.125Z"
     fill="#BDBDBD"
     id="path57" />
  <path
     d="M180.75 320.125V310.875C177.65 317.275 169.375 331.292 165.625 337.5L163.25 347.5L156.75 370.625C170.05 350.625 178.292 328.625 180.75 320.125Z"
     fill="#BDBDBD"
     id="path58" />
  <path
     d="M205.5 341.5C206.8 342.8 209.208 346.208 210.25 347.75C206.5 349.5 203.375 357.625 200.5 358.625C199.25 357.625 198.125 355.125 196.375 351.125L195 330.25C196.25 333.375 203.875 339.875 205.5 341.5Z"
     fill="#BDBDBD"
     id="path78" />
  <path
     d="M379.875 367.5C381.833 365.708 386.522 359.95 389.822 351.25C388.957 359.508 387.832 367.026 386.25 372.999L384.875 376.875C384 375.5 381.875 369.125 378 368.106C378.683 367.881 379.314 367.678 379.875 367.5Z"
     fill="#BDBDBD"
     id="path79" />
  <path
     d="M206.375 367.5C204.417 365.708 199.728 359.95 196.428 351.25C197.293 359.508 198.418 367.026 200 372.999L201.375 376.875C202.25 375.5 204.375 369.125 208.25 368.106C207.567 367.881 206.936 367.678 206.375 367.5Z"
     fill="#BDBDBD"
     id="path80" />
  <path
     d="M392.625 306C393.875 289.5 397.25 278.5 403.25 261.375C404.25 274.454 406.124 304.479 405.626 319.983C402.426 329.7 394.738 347.723 392.763 355.625C390.763 363.625 390.263 364.125 388.263 368.375L386.25 372.875C391.25 354 391.375 322.5 392.625 306Z"
     fill="#BDBDBD"
     id="path83" />
  <path
     d="M193.868 306C192.618 289.5 189.243 278.5 183.243 261.375C182.244 274.454 180.369 304.479 180.868 319.983C184.067 329.7 191.755 347.723 193.73 355.625C195.73 363.625 196.23 364.125 198.23 368.375L200.243 372.875C195.243 354 195.118 322.5 193.868 306Z"
     fill="#BDBDBD"
     id="path84" />
  <g
     id="Chest">
    <path
       id="path154"
       fill="#BDBDBD"
       d="M314.842 204.134C320.092 200.634 329.592 199.884 343.342 199.009C346.592 198.798 350.342 202.384 354.467 204.134C358.592 205.884 361.717 204.134 375.467 208.759C389.217 213.384 396.592 225.134 401.842 229.759C407.092 234.384 412.717 237.384 418.217 255.634C412.317 252.834 404.842 246.967 401.842 244.384V247.009L403.125 262.25C400.25 269 394.15 286.325 392.75 301.625C388.35 305.825 377.062 310.381 371.967 312.134C362.689 314.707 351.318 315.695 337.717 313.884C291.717 307.759 297.842 269.634 298.217 246.259C298.592 222.884 309.592 207.634 314.842 204.134Z" />
    <path
       d="m 271.625,204.134 c -5.25,-3.5 -14.75,-4.25 -28.5,-5.125 -3.25,-0.211 -7,3.375 -11.125,5.125 -4.125,1.75 -7.25,0 -21,4.625 -13.75,4.625 -21.125,16.375 -26.375,21 -5.25,4.625 -10.875,7.625 -16.375,25.875 5.9,-2.8 13.375,-8.667 16.375,-11.25 v 2.625 l -1.283,15.241 c 2.875,6.75 8.975,24.075 10.375,39.375 4.4,4.2 15.688,8.756 20.783,10.509 9.277,2.573 20.649,3.561 34.25,1.75 46,-6.125 39.875,-44.25 39.5,-67.625 -0.375,-23.375 -11.375,-38.625 -16.625,-42.125 z"
       fill="#bdbdbd"
       id="path153"
       sodipodi:nodetypes="scsssccccccsss" />
  </g>
  <path
     d="M261.625 155.75L269.625 139.625L293.375 152.125L317 139.625L324.375 155.75L331.875 196.375H328.875L327.375 195.5L316 196.875L315.5 197.625L307.125 200.375L306.5 199.5L298.875 203.5L293.375 206.875L280.25 199.875L279.5 200.375L275.25 199.5L270.5 197L259 195.875L254.375 196.375L261.625 155.75Z"
     fill="#BDBDBD"
     id="path96" />
  <g
     id="Quadriceps">

      <path
         d="M 382.125,559 C 377.25,550.625 378,553.875 367.5,536 l 6.75,21.75 4.875,17.25 c 1.167,4.667 3.95,16.75 5.75,27.75 1.8,11 2.25,24.083 2.25,29.25 v 14.5 l -0.875,14.25 -1.375,13.25 c -1.042,7.375 -3.25,22.825 -3.75,25.625 -0.625,3.5 -4.625,19.875 -6.375,26.25 -1.75,6.375 -4.75,10.125 -8,26.625 -2.6,13.2 2.917,26.333 6,31.25 4.1,7.6 9.208,10.833 11.25,11.5 0.9,-2.5 3.792,-22.208 5.125,-31.75 -1.75,-6.25 -0.75,-15.5 3.375,-25.875 4.125,-10.375 7.75,-25.625 9,-32.75 1.25,-7.125 4.5,-53.875 3.75,-71.875 -0.6,-14.4 -5.917,-34.083 -8.5,-42.125 C 393.5,583.042 386.025,565.7 382.125,559 Z"
         fill="#bdbdbd"
         id="path21"
         sodipodi:nodetypes="scccsscccssscccssscs" />
      <path
         d="m 331.875,664.375 c -0.208,-7.083 -0.225,-25.425 1.375,-42.125 -1.125,3.208 -3.825,11.625 -5.625,19.625 -2.25,10 -4.5,25.625 -5.875,34.75 -1.1,7.3 -3.125,24.625 -4,32.375 l -2.25,19.875 c 0.3,4.2 2.125,17.75 3,24 l 2.375,12 0.75,6.25 c 1.458,4.625 5.05,14.5 7.75,17 3.375,3.125 4.5,4.625 9.75,0.5 5.25,-4.125 4.125,-15.375 4,-19.875 -0.125,-4.5 -2.625,-23.25 -4.75,-35.125 -1.7,-9.5 -4.125,-33.625 -5.125,-44.5 z"
         fill="#bdbdbd"
         id="path23"
         sodipodi:nodetypes="ccsscccccsssscc" />
      <path
         d="m 343.625,591 c 5.5,-16 9.875,-37 10.875,-53.75 0.603,-10.093 2.425,-25.735 3.875,-37.079 l 0.75,7.204 1.875,9.75 2.75,9.375 3.75,9.375 c 3,8.291 10.15,30.3 14.75,52 5.75,27.125 5.875,46.375 4.125,72.125 -1.4,20.6 -6,43.916 -8.125,53 -1.125,4.625 -4.6,17.225 -9.5,30.625 -4.248,11.616 -2.665,23.446 -0.838,29.755 0.3,0.755 0.582,1.582 0.838,2.495 -0.272,-0.688 -0.558,-1.527 -0.838,-2.495 -1.759,-4.415 -4.149,-6.352 -5.537,-8.38 -1.625,-2.375 -8.625,-1.125 -12.75,0 -3.3,0.9 -5.458,7.625 -6.125,10.875 l -0.875,-13.125 -2.25,-15.5 -4.125,-28.625 -2.875,-28.75 -1.5,-29 v -17.25 c 0.25,-5.875 0.875,-18.525 1.375,-22.125 0.625,-4.5 4.875,-14.5 10.375,-30.5 z"
         fill="#bdbdbd"
         id="path35"
         sodipodi:nodetypes="sccccccssccccccscccccccss" />
      <path
         d="m 359.625,490.75 c 7.25,-3.125 16.5,-6.25 21,-12.875 L 386.5,492 l 4.25,12 3.125,8.25 2.25,10 0.75,6.375 0.875,6.25 3,21.25 c 1.292,10.917 4.025,34.625 4.625,42.125 0.6,7.5 0.25,26.958 0,35.75 -3,-31.5 -9,-43 -11.75,-51.125 -2.75,-8.125 -9,-20.75 -18.625,-34.875 -9.625,-14.125 -13.5,-26.25 -15.375,-38.625 -1.875,-12.375 0,-17.875 0,-18.625 z"
         fill="#bdbdbd"
         id="path37"
         sodipodi:nodetypes="cccccccccscsssc" />

      <path
         d="m 204.486,559 c 4.875,-8.375 4.125,-5.125 14.625,-23 l -6.75,21.75 -4.875,17.25 c -1.166,4.667 -3.95,16.75 -5.75,27.75 -1.8,11 -2.25,24.083 -2.25,29.25 v 14.5 l 0.875,14.25 1.375,13.25 c 1.042,7.375 3.25,22.825 3.75,25.625 0.625,3.5 4.625,19.875 6.375,26.25 1.75,6.375 4.75,10.125 8,26.625 2.6,13.2 -2.916,26.333 -6,31.25 -4.1,7.6 -9.208,10.833 -11.25,11.5 -0.9,-2.5 -3.791,-22.208 -5.125,-31.75 1.75,-6.25 0.75,-15.5 -3.375,-25.875 -4.125,-10.375 -7.75,-25.625 -9,-32.75 -1.25,-7.125 -4.5,-53.875 -3.75,-71.875 0.6,-14.4 5.917,-34.083 8.5,-42.125 3.25,-7.833 10.725,-25.175 14.625,-31.875 z"
         fill="#bdbdbd"
         id="path22"
         sodipodi:nodetypes="scccsscccssscccssscs" />
      <path
         d="m 254.436,664.375 c 0.208,-7.083 0.225,-25.425 -1.375,-42.125 1.125,3.208 3.825,11.625 5.625,19.625 2.25,10 4.5,25.625 5.875,34.75 1.1,7.3 3.125,24.625 4,32.375 l 2.25,19.875 c -0.3,4.2 -2.125,17.75 -3,24 l -2.375,12 -0.75,6.25 c -1.459,4.625 -5.05,14.5 -7.75,17 -3.375,3.125 -4.5,4.625 -9.75,0.5 -5.25,-4.125 -4.125,-15.375 -4,-19.875 0.125,-4.5 2.625,-23.25 4.75,-35.125 1.7,-9.5 4.125,-33.625 5.125,-44.5 z"
         fill="#bdbdbd"
         id="path24"
         sodipodi:nodetypes="ccsscccccsssscc" />
      <path
         d="m 242.737,591 c -5.5,-16 -9.875,-37 -10.875,-53.75 -0.602,-10.093 -2.424,-25.735 -3.875,-37.079 l -0.75,7.204 -1.875,9.75 -2.75,9.375 -3.75,9.375 c -3,8.291 -10.15,30.3 -14.75,52 -5.75,27.125 -5.875,46.375 -4.125,72.125 1.4,20.6 6,43.916 8.125,53 1.125,4.625 4.6,17.225 9.5,30.625 4.248,11.616 2.665,23.446 0.839,29.755 -0.301,0.755 -0.583,1.582 -0.839,2.495 0.272,-0.688 0.558,-1.527 0.839,-2.495 1.758,-4.415 4.149,-6.352 5.536,-8.38 1.625,-2.375 8.625,-1.125 12.75,0 3.3,0.9 5.459,7.625 6.125,10.875 l 0.875,-13.125 2.25,-15.5 4.125,-28.625 2.875,-28.75 1.5,-29 v -17.25 C 254.237,637.75 253.612,625.1 253.112,621.5 252.487,617 248.237,607 242.737,591 Z"
         fill="#bdbdbd"
         id="path36"
         sodipodi:nodetypes="sccccccssccccccscccccccss" />
      <path
         d="m 226.582,490.75 c -7.25,-3.125 -16.5,-6.25 -21,-12.875 l -5.875,14.125 -4.25,12 -3.125,8.25 -2.25,10 -0.75,6.375 -0.875,6.25 -3,21.25 c -1.292,10.917 -4.025,34.625 -4.625,42.125 -0.6,7.5 -0.25,26.958 0,35.75 3,-31.5 9,-43 11.75,-51.125 2.75,-8.125 9,-20.75 18.625,-34.875 9.625,-14.125 13.5,-26.25 15.375,-38.625 1.875,-12.375 0,-17.875 0,-18.625 z"
         fill="#bdbdbd"
         id="path38"
         sodipodi:nodetypes="cccccccccscsssc" />
  </g>
  <g
     id="Traps">
    <path
       d="m 326.75,185.5 0.625,-8.625 c 0.5,-8.7 3.792,-21.792 5.375,-27.25 0,0.958 0.2,3.35 1,5.25 2.5,2.875 7.5,6.625 23.875,14.625 13.1,6.4 26.542,10.167 31.625,11.25 -1.333,0.292 -5.075,1.55 -9.375,4.25 -5.375,3.375 -13.25,7 -27,8.75 -11,1.4 -22,-4.917 -26.125,-8.25 z"
       fill="#bdbdbd"
       id="path98"
       sodipodi:nodetypes="ccccscssc" />
    <path
       d="m 259.75,185.5 -0.625,-8.625 c -0.5,-8.7 -3.792,-21.792 -5.375,-27.25 0,0.958 -0.2,3.35 -1,5.25 -2.5,2.875 -7.5,6.625 -23.875,14.625 -13.1,6.4 -26.542,10.167 -31.625,11.25 1.333,0.292 5.075,1.55 9.375,4.25 5.375,3.375 13.25,7 27,8.75 11,1.4 22,-4.917 26.125,-8.25 z"
       fill="#bdbdbd"
       id="path99"
       sodipodi:nodetypes="ccccscssc" />
  </g>
  <g
     id="Neck">
    <path
       d="M 268.375,178.25 C 255,190 248.375,192.625 238,194.25 l 15.875,1.875 13.75,-7 c 1.958,-1.5 6.15,-4.675 7.25,-5.375 1.375,-0.875 7,-3.375 8.75,-8.75 0.876,-2.69 1.438,-8.878 1.768,-14.625 v 16.75 l -1.393,18.25 0.25,2.625 4.375,7.5 1.625,2.625 0.25,1.125 c 0.458,-0.208 1.6,-0.625 2.5,-0.625 0.9,0 2.375,0.417 3,0.625 l 0.25,-1.125 1.625,-2.625 4.375,-7.5 0.25,-2.625 -1.393,-18.25 v -16.75 c 0.33,5.747 0.892,11.935 1.768,14.625 1.75,5.375 7.375,7.875 8.75,8.75 1.1,0.7 5.292,3.875 7.25,5.375 l 13.75,7 15.875,-1.875 c -10.375,-1.625 -17,-4.25 -30.375,-16 -13.375,-11.75 -11.75,-22.125 -9.625,-30.75 -3.2,1.9 -6.5,3.375 -7.75,3.875 L 297.5,152 c -0.625,10.167 -1.75,33.075 -1.25,43.375 l 0.375,6.875 c -0.125,1.458 -1.025,4.375 -3.625,4.375 -3.25,0 -3.375,-5 -2.75,-11.25 0.5,-10.3 -0.625,-33.208 -1.25,-43.375 l -3.25,-0.625 c -1.25,-0.5 -4.55,-1.975 -7.75,-3.875 2.125,8.625 3.75,19 -9.625,30.75 z"
       fill="#bdbdbd"
       id="path97"
       sodipodi:nodetypes="scccsccccccccsccccccccscccscccccsccccs" />
    <path
       d="m 317,139.5 c 3.042,-1.917 10.5,-8.025 16,-17.125 l -0.25,13.875 v 13.125 c -0.792,1.083 -2.85,7.075 -4.75,22.375 -1.9,15.3 -1.125,22.458 -0.5,24.125 l -11.875,1.5 2.25,-8.125 5,-26.625 3.75,-13.25 C 322,158.5 315.25,180.75 314.875,182.25 c -0.375,1.5 -1,4.875 -5.375,13 -3.5,6.5 -9.042,8.875 -11.375,9.25 1.167,-1.708 3.625,-5.525 4.125,-7.125 0.625,-2 0.375,-1.375 3.875,-22.25 2.8,-16.7 8.417,-30.708 10.875,-35.625 z"
       fill="#bdbdbd"
       id="path100"
       sodipodi:nodetypes="ccccscccccsscssc" />
    <path
       d="M 269.5,139.625 C 266.458,137.708 259,131.6 253.5,122.5 l 0.25,13.875 V 149.5 c 0.792,1.083 2.85,7.075 4.75,22.375 1.9,15.3 1.125,22.458 0.5,24.125 l 11.875,1.5 -2.25,-8.125 -5,-26.625 -3.75,-13.25 c 4.625,9.125 11.375,31.375 11.75,32.875 0.375,1.5 1,4.875 5.375,13 3.5,6.5 9.042,8.875 11.375,9.25 -1.167,-1.708 -3.625,-5.525 -4.125,-7.125 -0.625,-2 -0.375,-1.375 -3.875,-22.25 -2.8,-16.7 -8.417,-30.708 -10.875,-35.625 z"
       fill="#bdbdbd"
       id="path101"
       sodipodi:nodetypes="ccccscccccsscssc" />
  </g>
  <g
     id="Shoulders">
   
      <path
         d="m 458.625,304.21 -1.24,-25.797 c -0.21,-3.121 -0.622,-11.447 -0.622,-20.203 0,-11 -1,-32.25 -11.75,-48 -10.017,-14.675 -16.452,-17.413 -29.013,-22.47 -0.92,-0.371 -1.511,-0.629 -2.5,-1.03 -10.13,-1.365 -18.155,0.533 -24.5,2.725 -4.695,1.622 -8.47,3.406 -11.5,4.15 -7.125,1.75 -17.625,3.375 -35,5.375 3.25,-0.211 7.875,3.376 12,5.126 4.125,1.75 7.25,0 21,4.625 13.75,4.625 21.125,16.375 26.375,21 5.25,4.625 10.875,7.625 16.375,25.875 13.872,11.441 21.804,20.543 28.493,29.999 5.004,7.075 7.282,10.762 11.882,18.625 z"
         fill="#bdbdbd"
         id="path92"
         sodipodi:nodetypes="ccscccsccsssccc" />
      <path
         d="m 459.58644,305.1633 -3.18859,-26.28215 c -0.21,-3.034 -0.635,-2.659 -0.635,-11.415 0,-3.836 -7.625,-27.625 -18.375,-43.375 -6.888,-8.056 -18.5,-18.546 -26.875,-24.664 -2,-1.461 -1.5,-1.086 -2,-1.461 -4.5,-3.182 -14.155,-10.257 -20.5,-8.065 -4.695,1.622 -8.47,3.406 -11.5,4.15 -7.125,1.75 -17.625,3.375 -35,5.375 3.25,-0.211 7.875,3.376 12,5.126 4.125,1.75 7.25,0 21,4.625 13.75,4.625 21.125,16.375 26.375,21 5.25,4.625 10.875,7.625 16.375,25.875 13.872,11.441 21.804,20.543 28.493,29.999 5.004,7.075 9.23059,11.24915 13.83059,19.11215 z"
         fill="#bdbdbd"
         id="path125"
         sodipodi:nodetypes="ccscscsccsssccc" />

      <path
         d="m 128,304.21 1.24,-25.797 c 0.21,-3.121 0.622,-11.447 0.622,-20.203 0,-11 1,-32.25 11.75,-48 10.017,-14.675 16.452,-17.413 29.013,-22.47 0.92,-0.371 1.511,-0.629 2.5,-1.03 10.13,-1.365 18.155,0.533 24.5,2.725 4.695,1.622 8.47,3.406 11.5,4.15 7.125,1.75 17.625,3.375 35,5.375 -3.25,-0.211 -7.875,3.376 -12,5.126 -4.125,1.75 -7.25,0 -21,4.625 -13.75,4.625 -21.125,16.375 -26.375,21 -5.25,4.625 -10.875,7.625 -16.375,25.875 -13.872,11.441 -21.804,20.543 -28.493,29.999 -5.004,7.075 -7.282,10.762 -11.882,18.625 z"
         fill="#bdbdbd"
         id="path93"
         sodipodi:nodetypes="ccscccsccsssccc" />
      <path
         d="m 128.5,304.189 1.24,-25.795 c 0.21,-3.034 0.635,-2.659 0.635,-11.415 0,-3.836 7.625,-27.625 18.375,-43.375 6.888,-8.056 18.5,-18.546 26.875,-24.664 2,-1.461 1.5,-1.086 2,-1.461 4.5,-3.182 14.155,-10.257 20.5,-8.065 4.695,1.622 8.47,3.406 11.5,4.15 7.125,1.75 17.625,3.375 35,5.375 -3.25,-0.211 -7.875,3.376 -12,5.126 -4.125,1.75 -7.25,0 -21,4.625 -13.75,4.625 -21.125,16.375 -26.375,21 -5.25,4.625 -10.875,7.625 -16.375,25.875 -13.872,11.441 -21.804,20.543 -28.493,29.999 -5.004,7.075 -7.282,10.762 -11.882,18.625 z"
         fill="#bdbdbd"
         id="path123"
         sodipodi:nodetypes="ccscscsccsssccc" />
  </g>
  <g
     id="Abdominals">
  
      <path
         d="m 381.649,419.25 c 0.875,11.125 -10.341,17.391 -17.341,21.141 -8.487,3.56 -12.833,4.649 -16.426,21.108 -3.875,17.75 -5.875,15.25 -7.75,26.125 -1.875,10.875 -1.125,22.308 0.125,30.183 2.25,-8.182 3.762,-11.423 5.716,-14.683 1.05,-1.753 2.16,-3.293 3.534,-5.5 1.845,-2.963 5.715,-5.151 10,-7.055 5.296,-2.355 11.226,-4.276 14.75,-6.695 2.816,-1.932 4.852,-4.036 6.387,-6.375 1.94,-2.955 3.093,-7.037 4.001,-10.875 0,-3.051 0.229,-6.331 0.455,-11.75 0.108,-2.574 0.214,-5.631 0.295,-9.375 0.192,-8.924 -2.49,-17.259 -3.746,-26.249 z"
         fill="#bdbdbd"
         id="path67"
         sodipodi:nodetypes="cccscccccccccc" />
      <path
         d="m 375.802,347.875 c -4.1,-0.6 -12.375,-0.833 -16,-0.875 -7.75,5.375 -7.25,16 -6.875,23.125 0.375,7.125 4.75,6.25 6.875,5.125 2.947,-1.965 12.295,-5.272 18,-7.144 0.683,-0.224 1.313,-0.428 1.875,-0.606 1.958,-1.792 5.5,-6.125 6.5,-8.625 -2.875,-1 -6.625,-9.25 -10.375,-11 z"
         fill="#bdbdbd"
         id="path69"
         sodipodi:nodetypes="ccsccccc" />
      <path
         d="m 360.125,375.144 c 2.947,-1.965 12.295,-5.272 18,-7.144 3.875,1.019 6,7.394 6.875,8.769 l -1.112,5.125 c -0.104,1.068 -0.285,2.419 -0.505,4 -3.75,10.5 -5.508,11.25 -9.883,15.5 -2.489,2.418 -7.216,4.776 -11,7.25 -7.625,3.625 -9.25,-7.875 -9.25,-16 0,-8.125 0,-12.125 6.875,-17.5 z"
         fill="#bdbdbd"
         id="path71"
         sodipodi:nodetypes="cccccscsc" />
      <path
         d="m 359.688,346.874 c -11.5,-3.625 -10.75,-23.125 -0.75,-24 4.525,3.316 8.639,6.693 12.749,8.375 8.25,3.375 17.625,2.75 19.5,-4 0.5,9.001 -9.125,12.625 -10.749,14.25 -1.301,1.3 -3.709,4.708 -4.75,6.25 -4.1,-0.6 -12.376,-0.833 -16,-0.875 z"
         fill="#bdbdbd"
         id="path73"
         sodipodi:nodetypes="ccccccc" />
      <path
         d="m 373.496,401.25 c 4.375,-4.25 6.133,-5 9.883,-15.5 -0.836,6.004 -2.258,16.501 -1.562,33.876 0.875,11.125 -8.321,16.124 -15.321,19.874 -0.718,0.318 -1.409,0.613 -2.074,0.892 -5.513,1.734 -7.933,-3.029 -9.051,-7.392 -1.25,-4.875 -0.5,-13.375 1.25,-18.5 1.75,-5.125 12.5,-9 16.875,-13.25 z"
         fill="#bdbdbd"
         id="path75"
         sodipodi:nodetypes="scccccss" />
      <path
         d="m 380.75,341.5 c -1.3,1.3 -3.708,4.708 -4.75,6.25 3.75,1.75 6.875,9.875 9.75,10.875 1.25,-1 2.375,-3.5 4.125,-7.5 l 1.375,-20.875 c -1.25,3.125 -8.875,9.625 -10.5,11.25 z"
         fill="#bdbdbd"
         id="path77"
         sodipodi:nodetypes="sccccs" />
      <path
         d="m 371.875,331.362 c -8.25,-3.375 -15.25,-14.954 -34.375,-17.5 26.824,3.572 44.977,-4.036 55.5,-12.362 l -1.625,25.862 c -1.875,6.75 -11.25,7.375 -19.5,4 z"
         fill="#bdbdbd"
         id="path81"
         sodipodi:nodetypes="scccs" />

      <path
         d="m 293.61,577.185 -0.185,-0.009 -0.684,0.009 c -7.254,0.37 -10.961,0.558 -13.316,-6.259 -2.375,-6.875 -12.25,-30.375 -15.625,-38.75 -3.375,-8.375 -5.25,-26 -5.875,-34.625 -0.625,-8.625 -3.5,-18.25 -6.5,-22.625 -3,-4.375 -6.5,-16.125 -6.625,-21.625 0,-5.25 -1.25,-11.375 -0.625,-12.25 l 0.005,-0.007 v 0 c 0.064,-0.09 0.154,-0.215 0.299,-0.368 1.306,-1.371 7.11,-4.94 39.122,-4.377 0.621,-5.199 6.729,-6.998 9.574,-6.998 2.846,0 8.953,1.799 9.574,6.998 32.013,-0.563 37.816,3.006 39.122,4.377 0.146,0.153 0.235,0.278 0.299,0.368 h 10e-4 l 0.004,0.007 c 0.625,0.875 -0.625,7 -0.625,12.25 -0.125,5.5 -3.625,17.25 -6.625,21.625 -3,4.375 -5.875,14 -6.5,22.625 -0.625,8.625 -2.5,26.25 -5.875,34.625 -3.375,8.375 -13.25,31.875 -15.625,38.75 -2.355,6.817 -6.062,6.629 -13.315,6.259 z"
         fill="#bdbdbd"
         id="path85"
         sodipodi:nodetypes="cccsssscscsccsccccccssssc" />
      <path
         d="m 301.882,347.551 c 4,0 9.5,2.75 21,8 6,2.739 11.4,6.675 17,9.375 7,3.375 4.875,14 4.875,17 0,2.824 1.883,8.75 -0.295,10.999 -0.136,0.14 -0.287,0.266 -0.455,0.376 -2.875,1.875 -34.625,-5.875 -42.125,-5.875 -7.5,0 -7.125,-5.25 -7.5,-23.625 -0.375,-18.375 3.5,-16.25 7.5,-16.25 z"
         fill="#bdbdbd"
         id="path86"
         sodipodi:nodetypes="scssccsss" />
      <path
         d="m 284.381,347.551 c -4,0 -9.5,2.75 -21,8 -6,2.739 -11.4,6.675 -17,9.375 -7,3.375 -4.875,14 -4.875,17 0,2.824 -1.883,8.75 0.295,10.999 0.136,0.14 0.287,0.266 0.455,0.376 2.875,1.875 34.625,-5.875 42.125,-5.875 7.5,0 7.125,-5.25 7.5,-23.625 0.375,-18.375 -3.5,-16.25 -7.5,-16.25 z"
         fill="#bdbdbd"
         id="path87"
         sodipodi:nodetypes="scssccsss" />
      <path
         d="m 296.18,395.551 c 3,-7.625 14.75,-4.375 27.75,-2.25 5.25,0.859 10.436,2.597 17.625,3.25 2.258,0.206 3.57,1.734 4.328,3.875 1.55,4.378 0.783,11.319 1.047,14.75 0.518,6.74 0.005,14.512 -2.754,18.25 -0.567,0.769 -1.229,1.367 -1.996,1.75 -4.5,2.25 -32.875,-3.875 -40.25,-5.625 -7.375,-1.75 -8.75,-26.375 -5.75,-34 z"
         fill="#bdbdbd"
         id="path88"
         sodipodi:nodetypes="sccscccss" />
      <path
         d="m 290.179,395.551 c -3,-7.625 -14.75,-4.375 -27.75,-2.25 -5.25,0.859 -10.436,2.597 -17.625,3.25 -2.258,0.206 -3.57,1.734 -4.328,3.875 -1.55,4.378 -0.783,11.319 -1.047,14.75 -0.518,6.74 -0.004,14.512 2.754,18.25 0.567,0.769 1.229,1.367 1.996,1.75 4.5,2.25 32.875,-3.875 40.25,-5.625 7.375,-1.75 8.75,-26.375 5.75,-34 z"
         fill="#bdbdbd"
         id="path89"
         sodipodi:nodetypes="sccscccss" />
      <path
         d="m 295.691,311.801 c 0.375,-10 9.375,-7.625 18.5,-6.375 5.673,3.892 13.348,6.79 23.375,8.125 1.083,0.625 4.9,4.625 9,15.625 5.125,13.75 2.338,35.484 -1.125,35.75 -3.25,0.25 -15.625,-9.625 -22.5,-13.5 -6.875,-3.875 -19.25,-5.875 -25.25,-12.125 -2.755,-2.87 -2.375,-17.5 -2,-27.5 z"
         fill="#bdbdbd"
         id="path90"
         sodipodi:nodetypes="sccscscs" />
      <path
         d="m 290.691,311.801 c -0.375,-10 -9.375,-7.625 -18.5,-6.375 -5.673,3.892 -13.349,6.79 -23.375,8.125 -1.084,0.625 -4.9,4.625 -9,15.625 -5.125,13.75 -2.338,35.484 1.125,35.75 3.25,0.25 15.625,-9.625 22.5,-13.5 6.875,-3.875 19.25,-5.875 25.25,-12.125 2.755,-2.87 2.375,-17.5 2,-27.5 z"
         fill="#bdbdbd"
         id="path91"
         sodipodi:nodetypes="sccscscs" />

      <path
         d="m 204.601,419.25 c -0.875,11.125 10.341,17.391 17.341,21.141 8.487,3.56 12.833,4.649 16.426,21.108 3.875,17.75 5.875,15.25 7.75,26.125 1.875,10.875 1.125,22.308 -0.125,30.183 -2.25,-8.182 -3.762,-11.423 -5.716,-14.683 -1.05,-1.753 -2.16,-3.293 -3.534,-5.5 -1.845,-2.963 -5.715,-5.151 -10,-7.055 -5.296,-2.355 -11.226,-4.276 -14.75,-6.695 -2.816,-1.932 -4.852,-4.036 -6.387,-6.375 -1.94,-2.955 -3.093,-7.037 -4.001,-10.875 0,-3.051 -0.229,-6.331 -0.455,-11.75 -0.108,-2.574 -0.214,-5.631 -0.295,-9.375 -0.192,-8.924 2.49,-17.259 3.746,-26.249 z"
         fill="#bdbdbd"
         id="path68"
         sodipodi:nodetypes="cccscccccccccc" />
      <path
         d="m 210.448,347.875 c 4.1,-0.6 12.375,-0.833 16,-0.875 7.75,5.375 7.25,16 6.875,23.125 -0.375,7.125 -4.75,6.25 -6.875,5.125 -2.947,-1.965 -12.295,-5.272 -18,-7.144 -0.683,-0.224 -1.313,-0.428 -1.875,-0.606 -1.958,-1.792 -5.5,-6.125 -6.5,-8.625 2.875,-1 6.625,-9.25 10.375,-11 z"
         fill="#bdbdbd"
         id="path70"
         sodipodi:nodetypes="ccsccccc" />
      <path
         d="m 226.125,375.144 c -2.947,-1.965 -12.295,-5.272 -18,-7.144 -3.875,1.019 -6,7.394 -6.875,8.769 l 1.112,5.125 c 0.104,1.068 0.285,2.419 0.505,4 3.75,10.5 5.508,11.25 9.883,15.5 2.489,2.418 7.216,4.776 11,7.25 7.625,3.625 9.25,-7.875 9.25,-16 0,-8.125 0,-12.125 -6.875,-17.5 z"
         fill="#bdbdbd"
         id="path72"
         sodipodi:nodetypes="cccccscsc" />
      <path
         d="m 226.562,346.874 c 11.5,-3.625 10.75,-23.125 0.75,-24 -4.525,3.316 -8.639,6.693 -12.749,8.375 -8.25,3.375 -17.625,2.75 -19.5,-4 -0.5,9.001 9.125,12.625 10.749,14.25 1.301,1.3 3.709,4.708 4.75,6.25 4.1,-0.6 12.376,-0.833 16,-0.875 z"
         fill="#bdbdbd"
         id="path74"
         sodipodi:nodetypes="ccccccc" />
      <path
         d="m 212.754,401.25 c -4.375,-4.25 -6.133,-5 -9.883,-15.5 0.836,6.004 2.258,16.501 1.562,33.876 -0.875,11.125 8.321,16.124 15.321,19.874 0.718,0.318 1.409,0.613 2.074,0.892 5.513,1.734 7.933,-3.029 9.051,-7.392 1.25,-4.875 0.5,-13.375 -1.25,-18.5 -1.75,-5.125 -12.5,-9 -16.875,-13.25 z"
         fill="#bdbdbd"
         id="path76"
         sodipodi:nodetypes="scccccss" />
      <path
         d="m 214.375,331.362 c 8.25,-3.375 15.25,-14.954 34.375,-17.5 -26.824,3.572 -44.977,-4.036 -55.5,-12.362 l 1.625,25.862 c 1.875,6.75 11.25,7.375 19.5,4 z"
         fill="#bdbdbd"
         id="path82"
         sodipodi:nodetypes="scccs" />
  </g>
  <g
     id="Biceps">

      <path
         d="m 458.5,304.25 -1.125,-25.125 5.625,9 c 2.042,3.542 6.325,11.4 7.125,14.5 1,3.875 7.25,20.25 8.375,24 1.125,3.75 1.75,14.875 1.625,16.375 -0.1,1.2 0.375,4.083 0.625,5.375 0,0.708 0.1,3.175 0.5,7.375 0.4,4.2 -3.417,16.25 -5.375,21.75 -1.25,-38.25 -7.5,-51.125 -10.125,-58.5 -2.1,-5.9 -5.708,-12.292 -7.25,-14.75 z"
         fill="#bdbdbd"
         id="path62"
         sodipodi:nodetypes="cccssscscsc" />
      <path
         d="m 446.375,319.75 c -5.5,-18.375 -6.875,-34.125 -34.875,-67.875 l 6.375,3.375 c 5.958,4.583 20.15,17.175 29.25,30.875 11.375,17.125 17.625,27 23.375,47.125 4.6,16.1 5.333,36.958 5.125,45.375 -0.8,2.8 -1.917,8.583 -2.375,11.125 -9.6,-2.4 -16.5,-6.667 -18.75,-8.5 -0.167,-1.375 -0.4,-5.6 0,-11.5 0.5,-7.375 -2.625,-31.625 -8.125,-50 z"
         fill="#bdbdbd"
         id="path63"
         sodipodi:nodetypes="sccsscccss" />
      <path
         d="m 412,252 -10.125,-7.375 1.125,14 2,28.125 0.625,23 c 3.125,8.625 22.5,40.375 29.25,49.375 6.75,9 7.25,12.375 7.25,14.625 0,1.8 -2.75,4.333 -4.125,5.375 l -5,6.375 c 0.3,3 3.125,16.25 4.5,22.5 0.25,-1.042 1.45,-4.175 4.25,-8.375 3.5,-5.25 11.125,-12.625 12.125,-16.125 1,-3.5 0.25,-9 0.75,-13.375 C 453.25,346.5 449.125,326.625 441.25,302 434.95,282.3 419.125,260.458 412,252 Z"
         fill="#bdbdbd"
         id="path65"
         sodipodi:nodetypes="cccccsscccsscsc" />

      <path
         d="m 128.029,304.25 1.125,-25.125 -5.625,9 c -2.041,3.542 -6.325,11.4 -7.125,14.5 -1,3.875 -7.25,20.25 -8.375,24 -1.125,3.75 -1.75,14.875 -1.625,16.375 0.1,1.2 -0.375,4.083 -0.625,5.375 0,0.708 -0.1,3.175 -0.5,7.375 -0.4,4.2 3.417,16.25 5.375,21.75 1.25,-38.25 7.5,-51.125 10.125,-58.5 2.1,-5.9 5.709,-12.292 7.25,-14.75 z"
         fill="#bdbdbd"
         id="path61"
         sodipodi:nodetypes="cccssscscsc" />
      <path
         d="m 140.031,319.75 c 5.5,-18.375 6.875,-34.125 34.875,-67.875 l -6.375,3.375 c -5.958,4.583 -20.15,17.175 -29.25,30.875 -11.375,17.125 -17.625,27 -23.375,47.125 -4.6,16.1 -5.333,36.958 -5.125,45.375 0.8,2.8 1.917,8.583 2.375,11.125 9.6,-2.4 16.5,-6.667 18.75,-8.5 0.167,-1.375 0.4,-5.6 0,-11.5 -0.5,-7.375 2.625,-31.625 8.125,-50 z"
         fill="#bdbdbd"
         id="path64"
         sodipodi:nodetypes="sccsscccss" />
      <path
         d="m 174.375,252 10.125,-7.375 -1.125,14 -2,28.125 -0.625,23 c -3.125,8.625 -22.5,40.375 -29.25,49.375 -6.75,9 -7.25,12.375 -7.25,14.625 0,1.8 2.75,4.333 4.125,5.375 l 5,6.375 c -0.3,3 -3.125,16.25 -4.5,22.5 -0.25,-1.042 -1.45,-4.175 -4.25,-8.375 C 141.125,394.375 133.5,387 132.5,383.5 c -1,-3.5 -0.25,-9 -0.75,-13.375 1.375,-23.625 5.5,-43.5 13.375,-68.125 6.3,-19.7 22.125,-41.542 29.25,-50 z"
         fill="#bdbdbd"
         id="path66"
         sodipodi:nodetypes="cccccsscccsscsc" />
  </g>
  <g
     id="Forearms"
     style="display:inline">
    <path
       d="m 56,488.375 c 1.9,-5.5 5.875,-18.292 7.625,-24 l 38.125,-33 22.625,3.625 11.375,6.125 -2.5,5 -7.625,13.25 -6.625,9.25 -6.5,8.5 -11.875,17.375 -8.5,14.5 -4.625,9.625 -37.875,-12.75 c 1.3333,-3.542 4.475,-12 6.375,-17.5 z"
       fill="#bdbdbd"
       id="path43"
       sodipodi:nodetypes="sccccccccccccs"
       style="display:inline" />
    <path
       d="m 159,357.75 4.125,-11.125 -0.5,3.375 -5.125,17.875 -1.625,5.25 -0.75,4.625 c -1.125,7.292 -3.9,23.625 -6,30.625 -2.625,8.75 -8.375,23.75 -12.375,30.875 -4,7.125 -24.5,33.75 -27.125,36.25 -2.1,2 -10.2917,13.167 -14.125,18.5 l -13.5,18.5 -3.75,-2 10.375,-15.375 c 5.5833,-8.542 17.425,-26.425 20.125,-29.625 2.7,-3.2 9.375,-16.083 12.375,-22.125 l 5.375,-10.625 18.25,-33.125 6,-18.125 z"
       fill="#bdbdbd"
       id="path50"
       sodipodi:nodetypes="ccccccsssccccsccccc"
       style="display:inline" />
    <path
       d="m 145.875,377 c 1.417,-0.917 6.325,-7.325 14.625,-25.625 -0.7,3.8 -6.792,21.5 -9.75,29.875 l -6.125,18.25 c -5.042,9.25 -15.9,28.975 -19,33.875 -3.875,6.125 -18.125,25.25 -22.25,28.375 C 99.25,464.875 92,474.5 86.25,482 c -4.6,6 -12,19.917 -15.125,26.125 l -3.625,-1 c 1.875,-5.042 7.9,-18.775 17,-33.375 9.1,-14.6 15.2917,-33.917 17.25,-41.75 l 4.5,-10 4.875,-12.375 6.25,-5.625 17.75,-15.125 z"
       fill="#bdbdbd"
       id="path52"
       sodipodi:nodetypes="ccccsssccscccccc"
       style="display:inline" />
    <path
       d="m 144.5,371.625 c 2.292,-1.917 7.9,-7.125 12,-12.625 l -4.5,9 -5.5,8.5 -11.625,12.375 -23.625,20.625 c 1.375,-3.458 3.65,-12.225 1.75,-19.625 5.8,-1.1 14.917,-5.958 18.75,-8.25 z"
       fill="#bdbdbd"
       id="path54"
       sodipodi:nodetypes="ccccccccc"
       style="display:inline" />
    <path
       d="m 106.25,345.875 c 0.25,-2.125 0.125,-8.5 0.875,-15.125 l -2.125,6 -2,9.125 -2.75,6.75 -7.2499,12.75 c -1.9166,5.75 -6.45,19.8 -9.25,30 -3.5,12.75 -3.375,24.5 -9,47.625 -4.5,18.5 -8.875,27.625 -10.5,29.875 l -1.75,14.75 c 2.0417,-2.458 9.85,-12.375 24.75,-32.375 18.6249,-25 26.2499,-51.625 26.6249,-57.625 0.375,-6 -2.75,-18.25 -3.375,-20.875 -0.625,-2.625 -4.625,-12.375 -5.125,-18.25 -0.5,-5.875 0.625,-10.5 0.875,-12.625 z"
       fill="#bdbdbd"
       id="path60"
       sodipodi:nodetypes="scccccssccsssss"
       style="display:inline" />
    <path
       d="m 530.5,488.375 c -1.9,-5.5 -5.875,-18.292 -7.625,-24 l -38.125,-33 -22.625,3.625 -11.375,6.125 2.5,5 7.625,13.25 6.625,9.25 6.5,8.5 11.875,17.375 8.5,14.5 4.625,9.625 37.875,-12.75 c -1.333,-3.542 -4.475,-12 -6.375,-17.5 z"
       fill="#bdbdbd"
       id="path44"
       sodipodi:nodetypes="sccccccccccccs"
       style="display:inline" />
    <path
       d="M 427.625,357.75 423.5,346.625 424,350 l 5.125,17.875 1.625,5.25 0.75,4.625 c 1.125,7.292 3.9,23.625 6,30.625 2.625,8.75 8.375,23.75 12.375,30.875 4,7.125 24.5,33.75 27.125,36.25 2.1,2 10.292,13.167 14.125,18.5 l 13.5,18.5 3.75,-2 L 498,495.125 C 492.417,486.583 480.575,468.7 477.875,465.5 475.175,462.3 468.5,449.417 465.5,443.375 l -5.375,-10.625 -18.25,-33.125 -6,-18.125 z"
       fill="#bdbdbd"
       id="path49"
       sodipodi:nodetypes="ccccccsssccccsccccc"
       style="display:inline" />
    <path
       d="m 440.5,377 c -1.417,-0.917 -6.325,-7.325 -14.625,-25.625 0.7,3.8 6.792,21.5 9.75,29.875 l 6.125,18.25 c 5.042,9.25 15.9,28.975 19,33.875 3.875,6.125 18.125,25.25 22.25,28.375 4.125,3.125 11.375,12.75 17.125,20.25 4.6,6 12,19.917 15.125,26.125 l 3.625,-1 c -1.875,-5.042 -7.9,-18.775 -17,-33.375 -9.1,-14.6 -15.292,-33.917 -17.25,-41.75 l -4.5,-10 L 475.25,409.625 469,404 451.25,388.875 Z"
       fill="#bdbdbd"
       id="path51"
       sodipodi:nodetypes="ccccsssccscccccc"
       style="display:inline" />
    <path
       d="m 441.75,371.625 c -2.292,-1.917 -7.9,-7.125 -12,-12.625 l 4.5,9 5.5,8.5 11.625,12.375 L 475,409.5 c -1.375,-3.458 -3.65,-12.225 -1.75,-19.625 -5.8,-1.1 -14.917,-5.958 -18.75,-8.25 z"
       fill="#bdbdbd"
       id="path53"
       sodipodi:nodetypes="ccccccccc"
       style="display:inline" />
    <path
       d="m 480.25,345.875 c -0.25,-2.125 -0.125,-8.5 -0.875,-15.125 l 2.125,6 2,9.125 2.75,6.75 7.25,12.75 c 1.917,5.75 6.45,19.8 9.25,30 1.61876,5.8969 2.4621,11.5799 3.45752,18.27328 1.15683,7.77873 2.51905,16.92208 5.54248,29.35172 4.5,18.5 8.875,27.625 10.5,29.875 l 1.75,14.75 c -2.042,-2.458 -9.85,-12.375 -24.75,-32.375 -18.625,-25 -26.25,-51.625 -26.625,-57.625 -0.375,-6 2.75,-18.25 3.375,-20.875 0.625,-2.625 4.625,-12.375 5.125,-18.25 0.5,-5.875 -0.625,-10.5 -0.875,-12.625 z"
       fill="#bdbdbd"
       id="path59"
       sodipodi:nodetypes="scccccsssccsssss"
       style="display:inline" />
  </g>
</svg>
